<svg width="306" height="302" viewBox="0 0 306 302" fill="none" xmlns="http://www.w3.org/2000/svg">
<rect width="306" height="302" rx="40" fill="#FF4B40"/>
<path d="M30.548 204.252C30.548 206.34 29.828 208.08 28.388 209.472C26.972 210.84 24.8 211.524 21.872 211.524H17.048V222H13.772V196.908H21.872C24.704 196.908 26.852 197.592 28.316 198.96C29.804 200.328 30.548 202.092 30.548 204.252ZM21.872 208.824C23.696 208.824 25.04 208.428 25.904 207.636C26.768 206.844 27.2 205.716 27.2 204.252C27.2 201.156 25.424 199.608 21.872 199.608H17.048V208.824H21.872ZM52.6197 211.38C52.6197 212.004 52.5837 212.664 52.5117 213.36H36.7437C36.8637 215.304 37.5237 216.828 38.7237 217.932C39.9477 219.012 41.4237 219.552 43.1517 219.552C44.5677 219.552 45.7437 219.228 46.6797 218.58C47.6397 217.908 48.3117 217.02 48.6957 215.916H52.2237C51.6957 217.812 50.6397 219.36 49.0557 220.56C47.4717 221.736 45.5037 222.324 43.1517 222.324C41.2797 222.324 39.5997 221.904 38.1117 221.064C36.6477 220.224 35.4957 219.036 34.6557 217.5C33.8157 215.94 33.3957 214.14 33.3957 212.1C33.3957 210.06 33.8037 208.272 34.6197 206.736C35.4357 205.2 36.5757 204.024 38.0397 203.208C39.5277 202.368 41.2317 201.948 43.1517 201.948C45.0237 201.948 46.6797 202.356 48.1197 203.172C49.5597 203.988 50.6637 205.116 51.4317 206.556C52.2237 207.972 52.6197 209.58 52.6197 211.38ZM49.2357 210.696C49.2357 209.448 48.9597 208.38 48.4077 207.492C47.8557 206.58 47.0997 205.896 46.1397 205.44C45.2037 204.96 44.1597 204.72 43.0077 204.72C41.3517 204.72 39.9357 205.248 38.7597 206.304C37.6077 207.36 36.9477 208.824 36.7797 210.696H49.2357ZM60.2199 205.476C60.7959 204.348 61.6119 203.472 62.6679 202.848C63.7479 202.224 65.0559 201.912 66.5919 201.912V205.296H65.7279C62.0559 205.296 60.2199 207.288 60.2199 211.272V222H56.9439V202.272H60.2199V205.476ZM77.3576 222.324C75.8456 222.324 74.4896 222.072 73.2896 221.568C72.0896 221.04 71.1416 220.32 70.4456 219.408C69.7496 218.472 69.3656 217.404 69.2936 216.204H72.6776C72.7736 217.188 73.2296 217.992 74.0456 218.616C74.8856 219.24 75.9776 219.552 77.3216 219.552C78.5696 219.552 79.5536 219.276 80.2736 218.724C80.9936 218.172 81.3536 217.476 81.3536 216.636C81.3536 215.772 80.9696 215.136 80.2016 214.728C79.4336 214.296 78.2456 213.876 76.6376 213.468C75.1736 213.084 73.9736 212.7 73.0376 212.316C72.1256 211.908 71.3336 211.32 70.6616 210.552C70.0136 209.76 69.6896 208.728 69.6896 207.456C69.6896 206.448 69.9896 205.524 70.5896 204.684C71.1896 203.844 72.0416 203.184 73.1456 202.704C74.2496 202.2 75.5096 201.948 76.9256 201.948C79.1096 201.948 80.8736 202.5 82.2176 203.604C83.5616 204.708 84.2816 206.22 84.3776 208.14H81.1016C81.0296 207.108 80.6096 206.28 79.8416 205.656C79.0976 205.032 78.0896 204.72 76.8176 204.72C75.6416 204.72 74.7056 204.972 74.0096 205.476C73.3136 205.98 72.9656 206.64 72.9656 207.456C72.9656 208.104 73.1696 208.644 73.5776 209.076C74.0096 209.484 74.5376 209.82 75.1616 210.084C75.8096 210.324 76.6976 210.6 77.8256 210.912C79.2416 211.296 80.3936 211.68 81.2816 212.064C82.1696 212.424 82.9256 212.976 83.5496 213.72C84.1976 214.464 84.5336 215.436 84.5576 216.636C84.5576 217.716 84.2576 218.688 83.6576 219.552C83.0576 220.416 82.2056 221.1 81.1016 221.604C80.0216 222.084 78.7736 222.324 77.3576 222.324ZM97.7862 222.324C95.9382 222.324 94.2582 221.904 92.7462 221.064C91.2582 220.224 90.0822 219.036 89.2182 217.5C88.3782 215.94 87.9582 214.14 87.9582 212.1C87.9582 210.084 88.3902 208.308 89.2542 206.772C90.1422 205.212 91.3422 204.024 92.8542 203.208C94.3662 202.368 96.0582 201.948 97.9302 201.948C99.8022 201.948 101.494 202.368 103.006 203.208C104.518 204.024 105.706 205.2 106.57 206.736C107.458 208.272 107.902 210.06 107.902 212.1C107.902 214.14 107.446 215.94 106.534 217.5C105.646 219.036 104.434 220.224 102.898 221.064C101.362 221.904 99.6582 222.324 97.7862 222.324ZM97.7862 219.444C98.9622 219.444 100.066 219.168 101.098 218.616C102.13 218.064 102.958 217.236 103.582 216.132C104.23 215.028 104.554 213.684 104.554 212.1C104.554 210.516 104.242 209.172 103.618 208.068C102.994 206.964 102.178 206.148 101.17 205.62C100.162 205.068 99.0702 204.792 97.8942 204.792C96.6942 204.792 95.5902 205.068 94.5822 205.62C93.5982 206.148 92.8062 206.964 92.2062 208.068C91.6062 209.172 91.3062 210.516 91.3062 212.1C91.3062 213.708 91.5942 215.064 92.1702 216.168C92.7702 217.272 93.5622 218.1 94.5462 218.652C95.5302 219.18 96.6102 219.444 97.7862 219.444ZM121.822 201.912C124.222 201.912 126.166 202.644 127.654 204.108C129.142 205.548 129.886 207.636 129.886 210.372V222H126.646V210.84C126.646 208.872 126.154 207.372 125.17 206.34C124.186 205.284 122.842 204.756 121.138 204.756C119.41 204.756 118.03 205.296 116.998 206.376C115.99 207.456 115.486 209.028 115.486 211.092V222H112.21V202.272H115.486V205.08C116.134 204.072 117.01 203.292 118.114 202.74C119.242 202.188 120.478 201.912 121.822 201.912ZM134.013 212.064C134.013 210.048 134.421 208.284 135.237 206.772C136.053 205.236 137.169 204.048 138.585 203.208C140.025 202.368 141.621 201.948 143.373 201.948C145.101 201.948 146.601 202.32 147.873 203.064C149.145 203.808 150.093 204.744 150.717 205.872V202.272H154.029V222H150.717V218.328C150.069 219.48 149.097 220.44 147.801 221.208C146.529 221.952 145.041 222.324 143.337 222.324C141.585 222.324 140.001 221.892 138.585 221.028C137.169 220.164 136.053 218.952 135.237 217.392C134.421 215.832 134.013 214.056 134.013 212.064ZM150.717 212.1C150.717 210.612 150.417 209.316 149.817 208.212C149.217 207.108 148.401 206.268 147.369 205.692C146.361 205.092 145.245 204.792 144.021 204.792C142.797 204.792 141.681 205.08 140.673 205.656C139.665 206.232 138.861 207.072 138.261 208.176C137.661 209.28 137.361 210.576 137.361 212.064C137.361 213.576 137.661 214.896 138.261 216.024C138.861 217.128 139.665 217.98 140.673 218.58C141.681 219.156 142.797 219.444 144.021 219.444C145.245 219.444 146.361 219.156 147.369 218.58C148.401 217.98 149.217 217.128 149.817 216.024C150.417 214.896 150.717 213.588 150.717 212.1ZM162.841 195.36V222H159.565V195.36H162.841ZM170.116 199.068C169.492 199.068 168.964 198.852 168.532 198.42C168.1 197.988 167.884 197.46 167.884 196.836C167.884 196.212 168.1 195.684 168.532 195.252C168.964 194.82 169.492 194.604 170.116 194.604C170.716 194.604 171.22 194.82 171.628 195.252C172.06 195.684 172.276 196.212 172.276 196.836C172.276 197.46 172.06 197.988 171.628 198.42C171.22 198.852 170.716 199.068 170.116 199.068ZM171.7 202.272V222H168.424V202.272H171.7ZM181.28 204.972V216.6C181.28 217.56 181.484 218.244 181.892 218.652C182.3 219.036 183.008 219.228 184.016 219.228H186.428V222H183.476C181.652 222 180.284 221.58 179.372 220.74C178.46 219.9 178.004 218.52 178.004 216.6V204.972H175.448V202.272H178.004V197.304H181.28V202.272H186.428V204.972H181.28ZM207.389 202.272L195.509 231.288H192.125L196.013 221.784L188.057 202.272H191.693L197.885 218.256L204.005 202.272H207.389ZM33.896 280.752L28.892 275.748C27.668 276.084 26.42 276.252 25.148 276.252C22.82 276.252 20.696 275.712 18.776 274.632C16.856 273.528 15.332 272.004 14.204 270.06C13.1 268.092 12.548 265.884 12.548 263.436C12.548 260.988 13.1 258.792 14.204 256.848C15.332 254.88 16.856 253.356 18.776 252.276C20.696 251.172 22.82 250.62 25.148 250.62C27.5 250.62 29.636 251.172 31.556 252.276C33.476 253.356 34.988 254.868 36.092 256.812C37.196 258.756 37.748 260.964 37.748 263.436C37.748 265.836 37.22 267.996 36.164 269.916C35.108 271.836 33.656 273.348 31.808 274.452L38.144 280.752H33.896ZM15.896 263.436C15.896 265.428 16.292 267.18 17.084 268.692C17.9 270.204 19.004 271.368 20.396 272.184C21.812 273 23.396 273.408 25.148 273.408C26.9 273.408 28.472 273 29.864 272.184C31.28 271.368 32.384 270.204 33.176 268.692C33.992 267.18 34.4 265.428 34.4 263.436C34.4 261.42 33.992 259.668 33.176 258.18C32.384 256.668 31.292 255.504 29.9 254.688C28.508 253.872 26.924 253.464 25.148 253.464C23.372 253.464 21.788 253.872 20.396 254.688C19.004 255.504 17.9 256.668 17.084 258.18C16.292 259.668 15.896 261.42 15.896 263.436ZM59.6391 256.272V276H56.3631V273.084C55.7391 274.092 54.8631 274.884 53.7351 275.46C52.6311 276.012 51.4071 276.288 50.0631 276.288C48.5271 276.288 47.1471 275.976 45.9231 275.352C44.6991 274.704 43.7271 273.744 43.0071 272.472C42.3111 271.2 41.9631 269.652 41.9631 267.828V256.272H45.2031V267.396C45.2031 269.34 45.6951 270.84 46.6791 271.896C47.6631 272.928 49.0071 273.444 50.7111 273.444C52.4631 273.444 53.8431 272.904 54.8511 271.824C55.8591 270.744 56.3631 269.172 56.3631 267.108V256.272H59.6391ZM66.8624 253.068C66.2384 253.068 65.7104 252.852 65.2784 252.42C64.8464 251.988 64.6304 251.46 64.6304 250.836C64.6304 250.212 64.8464 249.684 65.2784 249.252C65.7104 248.82 66.2384 248.604 66.8624 248.604C67.4624 248.604 67.9664 248.82 68.3744 249.252C68.8064 249.684 69.0224 250.212 69.0224 250.836C69.0224 251.46 68.8064 251.988 68.3744 252.42C67.9664 252.852 67.4624 253.068 66.8624 253.068ZM68.4464 256.272V276H65.1704V256.272H68.4464ZM76.4778 273.3H86.1618V276H72.7338V273.3L82.3098 258.936H72.8058V256.272H86.0898V258.936L76.4778 273.3Z" fill="black"/>
</svg>
