<svg width="300" height="300" viewBox="0 0 300 300" fill="none" xmlns="http://www.w3.org/2000/svg">
<g clip-path="url(#clip0_397368:40780)">
<rect width="300" height="300" fill="#9BEEA5"/>
<circle cx="150" cy="186" r="186" fill="url(#paint0_radial_397368:40780)"/>
<circle cx="150.5" cy="186.5" r="123.5" fill="url(#paint1_radial_397368:40780)" fill-opacity="0.9"/>
<circle cx="62.5" cy="186.5" r="46.5" fill="#E6E6E6" stroke="black" stroke-width="2"/>
<path fill-rule="evenodd" clip-rule="evenodd" d="M90.6751 187.43C89.4781 180.903 86.5267 174.692 81.994 169.832C81.471 169.255 81.001 168.345 80.2028 168.199C79.4017 166.567 77.8746 165.413 76.6538 164.094C73.9892 161.437 71.4399 158.468 68.0031 156.79C52.0624 150.233 36.7224 168.929 33.4671 182.989C30.2338 194.297 33.7652 209.895 47.777 210.352C49.7593 212.975 52.4946 214.789 55.3043 216.41C59.1414 218.867 63.3271 219.865 67.7662 218.497C72.1872 219.653 76.7701 215.945 79.4269 212.694C81.5269 210.175 82.9663 207.101 84.8871 204.494C87.1548 204.438 89.1145 202.517 89.4181 200.266C91.5361 196.374 91.4399 191.709 90.6751 187.43V187.43Z" fill="#D08B5B"/>
<path fill-rule="evenodd" clip-rule="evenodd" d="M33.4671 182.989C36.7224 168.929 52.0624 150.233 68.0031 156.79C71.4399 158.468 73.9892 161.437 76.6538 164.094C77.8746 165.413 79.4017 166.567 80.2028 168.199C81.001 168.345 81.471 169.255 81.994 169.832C86.5267 174.692 89.4781 180.903 90.6751 187.43C91.4399 191.709 91.5361 196.374 89.4181 200.266C89.1145 202.517 87.1548 204.438 84.8871 204.494C84.4715 205.058 84.0784 205.644 83.6962 206.242L83.606 206.272L83.5949 205.611C83.4036 194.889 82.7863 188.417 81.7428 186.194C80.6886 183.949 76.152 179.838 68.1328 173.862L67.8888 173.68L66.0063 172.125L64.5455 173.775C59.0496 179.975 54.7476 184.759 51.6393 188.128C48.2946 191.753 45.4648 197.267 43.1499 204.672L43.0799 204.897L47.17 210.323C33.6636 209.44 30.281 194.132 33.4671 182.989Z" fill="#9DDADB"/>
<path fill-rule="evenodd" clip-rule="evenodd" d="M55.953 154.568C58.8535 153.891 61.8953 154.031 64.7684 154.776C70.4628 156.253 75.1483 160.092 79.0332 164.373C82.8227 168.549 85.9477 173.336 88.23 178.492L88.3457 178.755C89.9601 182.43 91.363 186.251 91.4232 190.299C91.4749 193.782 91.1231 197.411 89.9978 200.725C88.9953 203.676 87.1514 206.65 83.9791 207.358C82.1498 212.008 78.5711 216.035 74.063 218.19C71.267 219.527 68.1964 220.123 65.1051 219.827C61.951 219.524 59.005 218.009 56.54 216.076C56.4724 216.023 56.5594 215.92 56.6291 215.96C59.5969 217.671 63.1068 218.282 66.5061 218.169C72.0924 217.985 77.2136 214.969 80.1564 210.229C80.8886 209.05 81.5411 207.805 82.0615 206.511C82.0311 206.405 82.0134 206.297 82.0134 206.191C82.0134 205.745 82.225 205.405 82.5408 205.185C82.6872 204.727 82.8167 204.264 82.9248 203.796C83.1701 202.737 83.3069 201.661 83.3894 200.578C83.4564 199.697 83.4193 198.763 83.5077 197.86C83.4755 197.136 83.4308 196.413 83.3652 195.692C83.1543 193.368 82.7276 191.049 81.9058 188.859C81.0732 186.64 79.7584 184.683 78.0996 182.999C74.5415 179.386 70.1116 176.749 66.6517 173.038L66.4705 172.842L66.4582 172.838C66.0289 173.278 65.5999 173.718 65.1697 174.157L63.2042 176.162C59.1926 180.259 55.2134 184.395 51.7235 188.954C49.714 191.579 47.9086 194.331 46.3529 197.249C45.6163 198.631 44.9483 200.047 44.3446 201.492L44.107 202.068C43.8243 202.756 43.5188 203.526 43.3491 204.304C43.854 204.805 44.2232 205.541 44.6316 206.109C45.0948 206.754 45.629 207.368 46.1786 207.941C46.7349 208.521 47.3451 209.077 47.9928 209.553L48.0706 209.609C48.8138 210.136 49.6669 210.501 49.7784 211.505C49.8268 211.941 49.437 212.292 49.0761 212.427C48.0882 212.799 47.0648 211.732 46.4063 211.119C45.9957 210.737 45.6182 210.324 45.2682 209.889C44.9275 209.938 44.5845 209.962 44.2451 209.922C43.7191 209.86 43.1983 209.768 42.6859 209.633C38.4364 208.517 35.291 204.989 33.594 201.06C31.3157 195.784 31.3687 189.703 32.3158 184.125C34.0465 173.93 39.6477 164.41 48.1054 158.382C50.4741 156.694 53.1007 155.235 55.953 154.568ZM60.5315 155.932C55.0676 155.644 50.0862 158.462 46.0895 161.97C38.8125 168.356 34.3302 177.707 33.4284 187.309C32.9493 192.411 33.3078 197.91 35.9678 202.418C36.9998 204.167 38.329 205.69 39.898 206.975C41.3765 208.186 43.0617 208.884 44.8634 209.359C44.7814 209.246 44.7004 209.132 44.6217 209.017C44.2026 208.403 43.8697 207.751 43.5908 207.067C43.5662 207.092 43.5199 207.097 43.4926 207.059C42.3554 205.499 42.7113 203.637 43.2533 201.921C43.8217 200.121 44.542 198.37 45.3641 196.671C48.3606 190.479 52.8176 185.086 57.444 180.053C59.8068 177.482 62.248 174.986 64.6801 172.482C65.8947 171.231 67.1061 169.977 68.3021 168.708C68.8974 168.077 69.489 167.442 70.0753 166.802C70.655 166.169 71.1766 165.499 71.8984 165.025C72.4738 164.647 73.0481 165.369 72.7792 165.906C72.3656 166.732 71.6543 167.386 71.0248 168.058L70.96 168.127C70.3464 168.79 69.7271 169.447 69.1041 170.1C68.3875 170.852 67.6654 171.599 66.941 172.343C67.5588 172.272 68.1839 172.23 68.798 172.137C69.632 172.011 70.4547 171.824 71.2733 171.621C72.1359 171.408 72.9874 171.135 73.8093 170.796C74.5814 170.477 75.3111 169.967 76.1607 169.917C76.8798 169.875 77.1044 170.765 76.706 171.234C76.1569 171.88 75.1696 172.134 74.3668 172.373L74.2535 172.408C73.3654 172.679 72.4568 172.882 71.5383 173.018C70.3298 173.197 68.9331 173.279 67.6401 173.096C70.2221 174.61 72.5981 176.486 74.9673 178.316L75.3854 178.639C77.7002 180.42 79.9594 182.34 81.6099 184.777C83.1505 187.052 84.0807 189.7 84.6028 192.384C84.8603 193.708 85.0302 195.046 85.1443 196.39C85.5693 197.581 85.501 198.997 85.394 200.307L85.3558 200.76L85.3587 200.892C85.3746 201.712 85.7038 203.536 84.9284 204.155C84.9152 204.221 84.9029 204.287 84.8891 204.353C84.9856 204.294 85.081 204.232 85.1755 204.169C85.2144 204.143 85.2521 204.114 85.2901 204.086L85.3973 203.998C85.4013 203.995 85.4049 203.992 85.4077 203.989C85.6484 203.778 85.8779 203.558 86.0919 203.319C86.4873 202.878 86.8633 202.318 87.2193 201.673C88.0016 200.255 88.5014 198.714 88.8879 197.12C89.5945 194.206 89.8861 191.076 89.5638 188.088C89.5188 187.67 89.4265 187.147 89.2832 186.611C88.9431 185.337 88.5519 184.076 88.1139 182.832C87.2376 180.344 86.1635 177.931 84.911 175.609C82.3675 170.895 79.0948 166.536 75.1737 162.878C71.2026 159.174 66.0529 156.223 60.5315 155.932ZM52.8261 170.996C53.0231 170.875 53.2259 171.109 53.1282 171.298C52.6551 172.211 51.8595 172.981 51.1987 173.764C50.5145 174.574 49.8352 175.388 49.1577 176.204C47.778 177.865 46.4314 179.556 45.1379 181.285L44.7964 181.742C43.6592 183.269 42.5358 184.82 41.5418 186.442C41.0217 187.29 40.5634 188.168 40.1471 189.072C39.751 189.932 39.5682 190.971 39.0921 191.779C39.0621 191.83 38.9693 191.826 38.9578 191.761C38.8024 190.891 39.1863 189.843 39.4606 189.028C39.7867 188.059 40.2507 187.136 40.7475 186.244C41.7837 184.385 43.0253 182.642 44.2726 180.92C45.5394 179.171 46.8547 177.458 48.2345 175.797C48.8826 175.017 49.5452 174.252 50.2277 173.502L50.4845 173.222C51.1994 172.447 51.9198 171.549 52.8261 170.996ZM49.5136 168.292C49.8376 168.052 50.1141 168.543 49.9075 168.803C48.6728 170.356 47.268 171.752 45.9169 173.2C44.6193 174.592 43.379 176.035 42.2088 177.535C39.8225 180.594 37.9124 183.95 36.2947 187.468C36.2642 187.534 36.1682 187.485 36.1826 187.421C37.0395 183.616 39.0428 180.16 41.3238 177.038L41.4106 176.919C43.7178 173.779 46.3699 170.623 49.5136 168.292Z" fill="black"/>
<path fill-rule="evenodd" clip-rule="evenodd" d="M75.8224 207.088C75.3899 207.653 74.6067 208.085 73.7295 208.292C72.8937 208.489 71.97 208.481 71.1728 208.178L71.1044 208.15C70.5083 207.903 69.9362 207.404 69.7189 206.884C69.6326 206.677 69.6033 206.467 69.6625 206.27C69.7156 206.094 69.8403 205.931 70.048 205.791C70.1131 205.748 70.2006 205.744 70.2839 205.759C70.3873 205.777 70.4892 205.826 70.5506 205.891C70.8917 206.253 71.3865 206.606 71.9722 206.6C72.424 206.595 72.7931 206.417 73.1509 206.216L73.4024 206.072C73.645 205.934 73.8911 205.804 74.1695 205.745C74.6678 205.638 75.2723 205.832 75.6406 206.153C75.8012 206.292 75.9179 206.456 75.9496 206.633C75.9763 206.781 75.9388 206.936 75.8224 207.088ZM73.2315 197.217C74.2213 197.818 75.7295 199.218 74.6646 200.707C73.4112 202.019 71.6066 200.514 70.7174 199.834C69.8928 199.306 68.9663 200.663 69.7314 201.279C76.1573 206.027 78.7651 197.374 73.7321 196.511C73.1779 196.416 72.9721 197.032 73.2315 197.217ZM62.0647 187.989L62.3491 187.911L62.6391 187.833L62.8351 187.781C64.1819 187.429 65.6674 187.12 67.003 187.271C67.4901 187.326 67.8854 187.6 67.9543 188.109C68.0124 188.539 67.7341 189.093 67.2605 189.17C65.6919 189.423 64.0861 189.341 62.5103 189.602C61.7255 189.732 60.9468 189.893 60.165 190.038C59.5706 190.149 58.9563 190.188 58.3568 190.277L58.4946 190.296C58.5428 190.303 58.5307 190.384 58.4832 190.381C58.2855 190.361 58.0876 190.358 57.8894 190.372L57.8044 190.379C57.6751 190.397 57.5988 190.243 57.7141 190.165C58.4446 189.67 59.0645 189.134 59.8824 188.769C60.5898 188.454 61.318 188.194 62.0647 187.989ZM74.3257 187.23C75.3612 186.186 77.5633 186.587 78.7952 187.065C79.4983 187.338 80.1668 187.683 80.7236 188.199L80.7779 188.25L80.8615 188.33C81.2374 188.697 81.6565 189.203 81.5968 189.732C81.5878 189.813 81.5438 189.905 81.4524 189.921C80.959 190.008 80.4744 189.749 80.0188 189.592L79.717 189.489C79.2639 189.335 78.8079 189.188 78.3407 189.081C77.7598 188.95 77.1672 188.873 76.5708 188.881C75.968 188.889 75.3204 189.059 74.7462 188.82C74.1057 188.553 73.7737 187.787 74.3257 187.23ZM64.0955 195.656C63.8313 195.925 63.4824 196.077 63.0358 195.987C62.6869 195.916 62.0224 195.566 61.4917 195.027C61.1285 194.658 60.8249 194.197 60.7424 193.663C60.7232 193.539 60.6573 193.459 60.5707 193.409C60.5023 193.37 60.4121 193.35 60.3139 193.36C60.2305 193.368 60.142 193.398 60.0736 193.438C59.9434 193.514 59.8902 193.622 59.8794 193.703C59.7749 194.48 60.0759 195.252 60.545 195.902C61.178 196.78 62.1077 197.423 62.6541 197.574C63.5892 197.832 64.5745 197.626 65.301 196.977C65.8819 196.458 66.1796 195.781 66.4559 195.085L66.5092 194.95C66.5713 194.792 66.633 194.636 66.6983 194.481C66.8293 194.17 66.7873 193.901 66.6604 193.692C66.5197 193.46 66.2601 193.297 65.971 193.247C65.7039 193.201 65.418 193.251 65.1923 193.414C65.0017 193.552 64.8479 193.77 64.7933 194.092C64.7045 194.616 64.4984 195.217 64.1351 195.614L64.0955 195.656ZM80.1296 192.622C79.9118 192.509 79.7413 192.475 79.4996 192.547C79.366 192.587 79.2339 192.664 79.1304 192.767C79.0279 192.87 78.954 192.997 78.9253 193.138C78.8546 193.486 78.6636 193.812 78.3915 194.025C78.159 194.206 77.8654 194.303 77.5398 194.248C77.1885 194.19 76.8537 193.965 76.6232 193.7C76.559 193.626 76.5063 193.543 76.4554 193.46L76.425 193.41C76.3114 193.223 76.201 193.049 76.0443 192.912C75.985 192.859 75.8955 192.823 75.8088 192.823C75.7736 192.823 75.7378 192.829 75.7038 192.839C75.3541 193.19 75.2868 193.455 75.2981 193.719C75.3099 193.995 75.4191 194.275 75.5955 194.536C76.0094 195.149 76.7953 195.651 77.3256 195.765C78.0518 195.92 78.773 195.733 79.3513 195.329C79.9463 194.912 80.3872 194.265 80.5246 193.537C80.5577 193.361 80.5437 193.172 80.4767 193.007C80.4112 192.847 80.2972 192.709 80.1296 192.622Z" fill="black"/>
<path fill-rule="evenodd" clip-rule="evenodd" d="M80.44 187.489C83.5167 187.489 85.2725 188.149 85.9158 188.201L85.9352 188.202C86.2028 188.219 86.4429 188.242 86.6947 188.339C87.6209 188.695 87.7717 189.664 87.2313 190.275C87.1934 191.539 87.36 193.016 87.0741 194.285C86.7215 199.631 84.202 200.533 82.7699 200.863C82.0509 201.028 81.1988 201.094 80.435 200.919C79.1321 200.871 77.8441 200.464 76.742 199.755C75.2072 198.767 74.0672 197.249 73.6973 195.447C73.522 194.588 73.4401 193.693 73.5355 192.82L73.5496 192.7C73.0507 192.462 72.4726 192.417 71.8767 192.396C71.592 192.386 71.3114 192.377 71.0388 192.389C70.7724 192.418 70.5091 192.458 70.245 192.512C69.9567 192.599 69.6844 192.742 69.4329 192.969L69.4156 193.3C69.3683 194.128 69.2595 194.958 69.0916 195.77C68.8436 196.968 68.4448 198.112 67.5961 198.962C67.3088 199.39 66.9533 199.772 66.5217 200.103C64.954 201.308 62.824 201.75 60.8691 201.583C56.9005 201.245 54.6066 198.101 54.0779 196.757L54.0463 196.676C53.6644 195.677 53.3601 194.38 52.1533 194.166L51.8967 194.12C51.346 194.017 50.8379 193.873 50.515 193.337C50.3735 193.103 50.3007 192.841 50.2828 192.574C50.0944 192.589 49.9063 192.602 49.7189 192.616C48.2235 192.931 39.2541 193.199 38.5382 193.199C38.5382 193.199 37.162 193.777 36.581 193.329C36.1782 193.018 36.0458 192.603 36.2674 192.132C36.602 191.425 38.1452 190.999 38.8305 190.864C38.8305 190.864 49.8888 190.956 50.6848 190.805C51.1772 190.299 52.0581 190.368 52.7942 190.288C53.4035 189.854 54.2559 189.564 54.9293 189.37C55.0665 189.318 55.2024 189.267 55.3345 189.22C56.5689 188.781 57.852 188.549 59.1546 188.424C60.4979 188.297 61.8451 188.355 63.1805 188.537C63.7433 188.613 64.3008 188.712 64.8544 188.841C65.8456 188.971 66.8311 189.186 67.8227 189.441L68.0211 189.492C69.0653 189.765 70.1384 190.002 71.2193 189.817C72.0993 189.667 72.9456 189.329 73.757 188.963L73.8626 188.915C75.6467 188.102 78.4328 187.489 80.44 187.489ZM64.7471 190.461C64.0888 190.317 63.8077 191.33 64.4681 191.475C64.9357 191.577 65.332 191.813 65.5998 192.211L65.628 192.255C65.9873 192.825 66.8958 192.299 66.534 191.724C66.127 191.078 65.4944 190.625 64.7471 190.461ZM84.0269 189.833C83.7948 189.67 83.4437 189.791 83.309 190.022C83.1607 190.276 83.2579 190.558 83.4752 190.725L83.4973 190.741C83.6967 190.881 83.8908 191.132 83.9152 191.39L83.9174 191.422C83.9435 192.096 84.993 192.099 84.9668 191.422C84.9412 190.759 84.5567 190.206 84.0269 189.833Z" fill="black"/>
<circle cx="238.5" cy="186.5" r="46.5" fill="#E6E6E6" stroke="black" stroke-width="2"/>
<path fill-rule="evenodd" clip-rule="evenodd" d="M249.535 217.723C246.697 217.715 244.099 217.162 241.633 215.951C238.657 214.979 235.406 214.45 232.991 212.3C231.815 212.55 230.609 211.342 229.633 210.623C228.042 216.479 219.759 215.505 216.259 211.72C214.118 209.912 213.257 205.439 216.975 204.256C210.884 200.118 208.684 192.971 209.102 185.236C209.543 172.263 219.516 158.775 232.334 156.524C234.863 156.079 237.46 156.127 239.977 156.656C241.383 156.961 242.743 157.552 244.247 157.525C250.083 156.603 256.493 156.709 261.314 160.444C269.018 165.599 270.089 175.914 269.189 184.207L269.225 184.284C268.777 187.328 268.033 190.116 266.625 191.952C266.516 194.59 265.599 200.223 265.531 202.449C265.696 212.811 259.811 217.41 249.535 217.723" fill="#D08B5B"/>
<path fill-rule="evenodd" clip-rule="evenodd" d="M229.596 158.472C234.853 156.693 238.171 157.612 243.077 158.595L243.379 158.655L243.855 158.748C248.778 158.418 253.019 157.337 257.772 159.695C267.663 163.854 269.493 175.334 268.812 184.921L268.771 185.1C268.449 186.498 267.996 187.944 267.044 189.056C265.445 181.184 260.304 175.987 253.982 171.025L253.756 170.752C252.971 169.806 252.115 168.822 251.08 168.155C251.114 167.849 251.131 167.542 251.126 167.24C251.118 166.822 250.522 166.471 250.211 166.834L250.151 166.907C249.745 167.4 247.613 169.769 246.534 170.984L246.4 171.136L246.074 171.506L245.524 172.164C239.592 179.258 233.334 186.379 224.486 189.783C222.365 188.442 219.793 189.623 218.468 191.512C214.703 195.901 219.068 204.177 224.855 201.932C225.206 204.967 226.725 208.389 228.785 210.679C226.528 213.829 222.915 214.397 219.537 212.614C216.238 211.141 214.104 208.047 216.129 204.625C216.171 204.601 216.215 204.577 216.259 204.553C217.812 205.589 219.621 206.268 221.492 206.405L221.633 206.415C222.802 206.47 222.783 204.63 221.597 204.535C213.754 203.538 210.272 194.58 210.264 187.555C209.931 175.189 217.639 162.466 229.596 158.472Z" fill="#C93305"/>
<path fill-rule="evenodd" clip-rule="evenodd" d="M215.634 204.113C197.183 187.808 216.111 151.116 240.118 155.984C242.548 156.798 245.015 157.08 247.532 156.477C260.212 154.497 270.585 165.258 270.049 177.707C270.138 179.836 270.121 181.968 269.891 184.088C269.627 186.876 268.909 189.857 267.306 192.175C267.287 193.731 266.371 199.57 266.224 202.317L266.196 202.891C266.05 205.714 265.735 208.593 264.494 211.168C260.678 218.083 250.847 219.567 243.799 217.553L243.506 217.456C242.197 217.021 240.712 216.441 239.881 215.344C239.442 214.765 240.169 214.025 240.774 214.183C241.552 214.386 242.198 214.86 242.925 215.197C247.666 217.293 253.274 216.591 257.954 214.634L258.095 214.574C266.478 211.171 264.181 199.066 265.285 192.164C265.536 183.4 258.226 177.431 252.719 171.634L252.555 171.451C251.989 170.823 251.391 170.211 250.604 170.078C250.389 170.731 249.859 171.288 249.368 171.765L248.256 172.966C247.145 174.166 246.031 175.361 244.901 176.545C239.415 182.118 233.825 189.686 225.369 190.255C225.889 190.726 226.344 191.263 226.889 191.706C227.119 191.936 226.885 192.322 226.576 192.243C226.002 192.097 225.634 191.551 225.257 191.125C220.689 189.208 216.939 196.293 220.808 199.227C222.244 200.747 226.438 199.59 225.468 201.465C226.527 204.785 228.157 208.125 230.913 210.346C231.722 210.957 232.986 211.266 233.523 212.166C233.653 212.383 233.587 212.737 233.343 212.852C232.173 213.398 230.915 212.479 230.015 211.788C225.266 221.072 207.851 210.814 215.634 204.113ZM243.855 158.746L243.379 158.653C238.305 157.649 234.96 156.655 229.596 158.47C217.639 162.464 209.93 175.187 210.264 187.553C210.272 194.578 213.754 203.536 221.597 204.533C222.783 204.627 222.801 206.468 221.633 206.413L221.597 206.41C219.664 206.29 217.792 205.588 216.197 204.51C214.056 207.976 216.201 211.122 219.536 212.612C222.915 214.395 226.527 213.827 228.785 210.676C226.724 208.387 225.206 204.965 224.854 201.93C219.067 204.175 214.703 195.899 218.468 191.51C219.793 189.621 222.365 188.44 224.485 189.781C233.607 186.271 239.976 178.811 246.074 171.504L246.399 171.134C247.467 169.928 249.922 167.204 250.194 166.852C250.5 166.456 251.118 166.812 251.125 167.237C251.131 167.54 251.114 167.847 251.08 168.153C252.215 168.885 253.135 169.997 253.982 171.023C260.303 175.985 265.444 181.182 267.043 189.053C268.036 187.894 268.487 186.373 268.812 184.919C269.493 175.332 267.662 163.852 257.772 159.693C253.019 157.335 248.778 158.415 243.855 158.746ZM221.426 194.751C221.015 194.383 223.735 194.339 223.992 194.627L224.051 194.647C225.025 194.99 226.809 196.094 225.933 197.24C224.684 198.418 223.814 194.923 221.426 194.751Z" fill="black"/>
<path fill-rule="evenodd" clip-rule="evenodd" d="M251.994 206.551C251.07 206.175 250.246 205.548 249.643 204.746C249.434 204.468 249.379 204.174 249.423 203.904C249.473 203.602 249.652 203.328 249.897 203.144C250.142 202.959 250.449 202.868 250.746 202.915C251.004 202.955 251.26 203.096 251.463 203.388L251.506 203.446C251.864 203.93 252.331 204.327 252.863 204.583C253.376 204.829 253.949 204.944 254.542 204.878C255.672 204.75 256.451 204.14 257.279 203.312C257.382 203.207 257.485 203.099 257.588 202.99C257.653 202.89 257.743 202.827 257.844 202.793C257.955 202.756 258.081 202.758 258.197 202.798C258.308 202.837 258.408 202.911 258.475 203.008C258.538 203.101 258.574 203.216 258.562 203.349C258.487 204.207 258.037 204.973 257.398 205.575C256.689 206.243 255.748 206.705 254.863 206.867C253.888 207.046 252.894 206.918 251.994 206.551ZM255.323 193.308C256.361 193.938 257.942 195.406 256.826 196.967C255.512 198.343 253.62 196.765 252.687 196.051C251.823 195.498 250.852 196.921 251.654 197.566C258.391 202.544 261.125 193.473 255.848 192.568C255.267 192.469 255.051 193.114 255.323 193.308ZM243.251 187.518C243.365 186.098 245.533 185.775 245.748 187.181C245.941 188.44 245.714 189.596 245.146 190.73C244.603 191.813 243.238 191.307 243.135 190.321C242.997 189 243.179 188.402 243.251 187.518ZM259.75 186.889C260.052 186.494 260.488 186.225 261.011 186.377C262.644 186.853 262.163 189.167 261.589 190.294C261.278 190.905 260.27 191.061 259.815 190.522C259.073 189.644 258.718 187.89 259.661 187.025C259.687 186.98 259.715 186.935 259.75 186.889ZM245.123 181.303L245.381 181.258C246.179 181.12 247.171 180.988 247.736 181.628C248.035 181.968 248.138 182.599 247.736 182.924C247.028 183.496 246.245 183.274 245.397 183.323C244.698 183.363 244.026 183.478 243.352 183.67C241.875 184.092 240.671 184.861 239.409 185.706C239.243 185.817 239.074 185.606 239.153 185.451C239.882 184.027 241.293 182.857 242.707 182.144C243.462 181.764 244.288 181.448 245.123 181.303ZM258.261 180.665L258.458 180.706C260.607 181.154 263.399 182.049 264.417 184.156C264.456 184.454 264.415 184.518 264.381 184.559L264.37 184.573C264.343 184.609 264.321 184.658 264.192 184.698C264.156 184.69 264.119 184.681 264.083 184.671C263.616 184.549 263.247 184.381 262.89 184.207L262.503 184.016C262.053 183.796 261.6 183.584 261.119 183.428C260.094 183.094 259.039 182.859 257.968 182.734C257.736 182.706 257.512 182.628 257.336 182.494C257.168 182.367 257.041 182.191 256.982 181.957C256.907 181.654 256.928 181.424 257.091 181.151C257.214 180.946 257.389 180.804 257.59 180.722C257.795 180.639 258.029 180.619 258.261 180.665Z" fill="black"/>
<path d="M120.728 63.63C120.728 65.0533 120.343 66.2433 119.573 67.2C118.803 68.1333 117.776 68.8333 116.493 69.3C115.233 69.7667 113.833 70 112.293 70H100.183V45.15H114.008C115.174 45.15 116.178 45.465 117.018 46.095C117.858 46.7017 118.511 47.495 118.978 48.475C119.444 49.455 119.678 50.47 119.678 51.52C119.678 52.6867 119.374 53.8067 118.768 54.88C118.161 55.9533 117.274 56.7467 116.108 57.26C117.508 57.68 118.628 58.4267 119.468 59.5C120.308 60.5733 120.728 61.95 120.728 63.63ZM105.923 50.05V55.195H111.558C112.188 55.195 112.748 54.985 113.238 54.565C113.728 54.145 113.973 53.4917 113.973 52.605C113.973 51.7883 113.751 51.1583 113.308 50.715C112.888 50.2717 112.374 50.05 111.768 50.05H105.923ZM114.883 62.475C114.883 61.705 114.661 61.0517 114.218 60.515C113.774 59.9783 113.214 59.71 112.538 59.71H105.923V65.135H112.293C113.016 65.135 113.623 64.89 114.113 64.4C114.626 63.8867 114.883 63.245 114.883 62.475ZM123.499 64.505C123.499 63.2917 123.837 62.23 124.514 61.32C125.19 60.41 126.124 59.6983 127.314 59.185C128.504 58.6483 129.869 58.38 131.409 58.38C132.155 58.38 132.89 58.45 133.614 58.59C134.337 58.7067 134.967 58.8817 135.504 59.115V58.31C135.504 56.2333 134.279 55.195 131.829 55.195C130.802 55.195 129.834 55.37 128.924 55.72C128.037 56.07 127.092 56.5717 126.089 57.225L124.409 53.655C126.835 52.0683 129.495 51.275 132.389 51.275C135.142 51.275 137.277 51.94 138.794 53.27C140.334 54.5767 141.104 56.4783 141.104 58.975V63.77C141.104 64.33 141.185 64.7267 141.349 64.96C141.535 65.1933 141.85 65.3217 142.294 65.345V70C141.804 70.0933 141.36 70.1633 140.964 70.21C140.567 70.2567 140.217 70.28 139.914 70.28C138.864 70.28 138.059 70.07 137.499 69.65C136.962 69.23 136.624 68.6583 136.484 67.935L136.379 67.13C135.562 68.18 134.582 68.985 133.439 69.545C132.295 70.0817 131.117 70.35 129.904 70.35C128.69 70.35 127.594 70.0933 126.614 69.58C125.657 69.0667 124.899 68.3783 124.339 67.515C123.779 66.6283 123.499 65.625 123.499 64.505ZM134.629 65.205C135.212 64.7383 135.504 64.26 135.504 63.77V62.125C135.014 61.9383 134.477 61.7983 133.894 61.705C133.334 61.5883 132.82 61.53 132.354 61.53C131.304 61.53 130.44 61.7633 129.764 62.23C129.11 62.6967 128.784 63.2917 128.784 64.015C128.784 64.645 129.029 65.1933 129.519 65.66C130.032 66.1033 130.709 66.325 131.549 66.325C132.109 66.325 132.669 66.22 133.229 66.01C133.789 65.8 134.255 65.5317 134.629 65.205ZM153.196 70.35C151.61 70.35 150.07 70.0933 148.576 69.58C147.106 69.0433 145.858 68.285 144.831 67.305L146.756 63.77C149.02 65.4267 151.108 66.255 153.021 66.255C153.745 66.255 154.305 66.1383 154.701 65.905C155.098 65.6717 155.296 65.31 155.296 64.82C155.296 64.3067 155.028 63.945 154.491 63.735C153.955 63.5017 153.161 63.2333 152.111 62.93C150.711 62.4633 149.545 62.0083 148.611 61.565C147.678 61.1217 146.978 60.585 146.511 59.955C146.045 59.325 145.811 58.485 145.811 57.435C145.811 55.5917 146.5 54.11 147.876 52.99C149.253 51.8467 151.12 51.275 153.476 51.275C154.736 51.275 155.961 51.4733 157.151 51.87C158.365 52.2667 159.496 52.9317 160.546 53.865L158.376 57.365C157.326 56.6417 156.393 56.1167 155.576 55.79C154.76 55.4633 153.966 55.3 153.196 55.3C152.59 55.3 152.076 55.4167 151.656 55.65C151.236 55.86 151.026 56.2333 151.026 56.77C151.026 57.2833 151.26 57.6683 151.726 57.925C152.193 58.1583 152.916 58.415 153.896 58.695C155.39 59.1383 156.638 59.5933 157.641 60.06C158.668 60.5033 159.426 61.0633 159.916 61.74C160.43 62.3933 160.686 63.2683 160.686 64.365C160.686 66.2317 160.01 67.7017 158.656 68.775C157.303 69.825 155.483 70.35 153.196 70.35ZM164.559 49.525V44.45H170.159V49.525H164.559ZM164.559 70V51.625H170.159V70H164.559ZM183.777 70.35C181.724 70.35 179.951 69.9067 178.457 69.02C176.987 68.1333 175.856 66.9667 175.062 65.52C174.292 64.0733 173.907 62.4983 173.907 60.795C173.907 59.115 174.292 57.5517 175.062 56.105C175.856 54.6583 176.987 53.4917 178.457 52.605C179.927 51.7183 181.701 51.275 183.777 51.275C185.877 51.275 187.651 51.73 189.097 52.64C190.567 53.5267 191.664 54.6933 192.387 56.14L186.927 57.785C186.204 56.6183 185.142 56.035 183.742 56.035C182.599 56.035 181.631 56.4667 180.837 57.33C180.044 58.1933 179.647 59.3483 179.647 60.795C179.647 62.2417 180.044 63.4083 180.837 64.295C181.631 65.1817 182.599 65.625 183.742 65.625C184.442 65.625 185.084 65.4617 185.667 65.135C186.251 64.785 186.682 64.3417 186.962 63.805L192.422 65.485C191.746 66.9083 190.661 68.075 189.167 68.985C187.697 69.895 185.901 70.35 183.777 70.35ZM51.5402 102V77.15H62.1452C63.3352 77.15 64.4202 77.395 65.4002 77.885C66.4035 78.3517 67.2668 78.9933 67.9902 79.81C68.7135 80.6033 69.2735 81.5017 69.6702 82.505C70.0668 83.5083 70.2652 84.5233 70.2652 85.55C70.2652 86.9967 69.9268 88.3617 69.2502 89.645C68.5968 90.9283 67.6752 91.9783 66.4852 92.795C65.2952 93.5883 63.9068 93.985 62.3202 93.985H57.2802V102H51.5402ZM57.2802 88.98H61.9702C62.6468 88.98 63.2302 88.6883 63.7202 88.105C64.2102 87.5217 64.4552 86.67 64.4552 85.55C64.4552 84.4067 64.1635 83.5667 63.5802 83.03C63.0202 82.47 62.4135 82.19 61.7602 82.19H57.2802V88.98ZM82.3008 102.35C80.2242 102.35 78.4508 101.918 76.9808 101.055C75.5108 100.192 74.3792 99.0483 73.5858 97.625C72.8158 96.2017 72.4308 94.6617 72.4308 93.005C72.4308 91.2317 72.8158 89.61 73.5858 88.14C74.3558 86.67 75.4758 85.4917 76.9458 84.605C78.4158 83.7183 80.2008 83.275 82.3008 83.275C84.3775 83.275 86.1508 83.7183 87.6208 84.605C89.0908 85.4917 90.1992 86.6583 90.9458 88.105C91.7158 89.5517 92.1008 91.1033 92.1008 92.76C92.1008 93.4367 92.0542 94.0317 91.9608 94.545H78.3808C78.4742 95.7817 78.9175 96.7267 79.7108 97.38C80.5275 98.01 81.4492 98.325 82.4758 98.325C83.2925 98.325 84.0742 98.1267 84.8208 97.73C85.5675 97.3333 86.0808 96.7967 86.3608 96.12L91.1208 97.45C90.3975 98.8967 89.2658 100.075 87.7258 100.985C86.2092 101.895 84.4008 102.35 82.3008 102.35ZM78.2408 91.115H86.2208C86.1042 89.9483 85.6725 89.0267 84.9258 88.35C84.2025 87.65 83.3042 87.3 82.2308 87.3C81.1575 87.3 80.2475 87.65 79.5008 88.35C78.7775 89.05 78.3575 89.9717 78.2408 91.115ZM107.294 88.42C105.941 88.4433 104.716 88.665 103.619 89.085C102.522 89.505 101.729 90.135 101.239 90.975V102H95.6389V83.625H100.784V87.335C101.414 86.0983 102.231 85.13 103.234 84.43C104.237 83.73 105.287 83.3683 106.384 83.345C106.851 83.345 107.154 83.3567 107.294 83.38V88.42ZM117.688 102.35C116.101 102.35 114.561 102.093 113.068 101.58C111.598 101.043 110.349 100.285 109.323 99.305L111.248 95.77C113.511 97.4267 115.599 98.255 117.513 98.255C118.236 98.255 118.796 98.1383 119.193 97.905C119.589 97.6717 119.788 97.31 119.788 96.82C119.788 96.3067 119.519 95.945 118.983 95.735C118.446 95.5017 117.653 95.2333 116.603 94.93C115.203 94.4633 114.036 94.0083 113.103 93.565C112.169 93.1217 111.469 92.585 111.003 91.955C110.536 91.325 110.303 90.485 110.303 89.435C110.303 87.5917 110.991 86.11 112.368 84.99C113.744 83.8467 115.611 83.275 117.968 83.275C119.228 83.275 120.453 83.4733 121.643 83.87C122.856 84.2667 123.988 84.9317 125.038 85.865L122.868 89.365C121.818 88.6417 120.884 88.1167 120.068 87.79C119.251 87.4633 118.458 87.3 117.688 87.3C117.081 87.3 116.568 87.4167 116.148 87.65C115.728 87.86 115.518 88.2333 115.518 88.77C115.518 89.2833 115.751 89.6683 116.218 89.925C116.684 90.1583 117.408 90.415 118.388 90.695C119.881 91.1383 121.129 91.5933 122.133 92.06C123.159 92.5033 123.918 93.0633 124.408 93.74C124.921 94.3933 125.178 95.2683 125.178 96.365C125.178 98.2317 124.501 99.7017 123.148 100.775C121.794 101.825 119.974 102.35 117.688 102.35ZM137.8 102.35C135.7 102.35 133.915 101.907 132.445 101.02C130.998 100.133 129.89 98.9667 129.12 97.52C128.35 96.0733 127.965 94.51 127.965 92.83C127.965 91.1267 128.35 89.5517 129.12 88.105C129.89 86.6583 131.01 85.4917 132.48 84.605C133.95 83.7183 135.723 83.275 137.8 83.275C139.877 83.275 141.65 83.7183 143.12 84.605C144.59 85.4917 145.71 86.6583 146.48 88.105C147.25 89.5517 147.635 91.1267 147.635 92.83C147.635 94.51 147.25 96.0733 146.48 97.52C145.71 98.9667 144.59 100.133 143.12 101.02C141.65 101.907 139.877 102.35 137.8 102.35ZM133.705 92.83C133.705 94.2533 134.09 95.4083 134.86 96.295C135.653 97.1817 136.633 97.625 137.8 97.625C138.943 97.625 139.9 97.1817 140.67 96.295C141.463 95.4083 141.86 94.2533 141.86 92.83C141.86 91.4067 141.463 90.2517 140.67 89.365C139.9 88.4783 138.943 88.035 137.8 88.035C136.633 88.035 135.653 88.4783 134.86 89.365C134.09 90.2517 133.705 91.4067 133.705 92.83ZM169.122 102H163.522V91.675C163.522 90.4617 163.289 89.5867 162.822 89.05C162.379 88.49 161.784 88.21 161.037 88.21C160.267 88.21 159.486 88.5133 158.692 89.12C157.899 89.7267 157.339 90.5083 157.012 91.465V102H151.412V83.625H156.452V86.705C157.129 85.6317 158.086 84.7917 159.322 84.185C160.559 83.5783 161.982 83.275 163.592 83.275C164.782 83.275 165.739 83.4967 166.462 83.94C167.209 84.36 167.769 84.92 168.142 85.62C168.539 86.2967 168.796 87.0433 168.912 87.86C169.052 88.6767 169.122 89.47 169.122 90.24V102ZM172.688 96.505C172.688 95.2917 173.026 94.23 173.703 93.32C174.38 92.41 175.313 91.6983 176.503 91.185C177.693 90.6483 179.058 90.38 180.598 90.38C181.345 90.38 182.08 90.45 182.803 90.59C183.526 90.7067 184.156 90.8817 184.693 91.115V90.31C184.693 88.2333 183.468 87.195 181.018 87.195C179.991 87.195 179.023 87.37 178.113 87.72C177.226 88.07 176.281 88.5717 175.278 89.225L173.598 85.655C176.025 84.0683 178.685 83.275 181.578 83.275C184.331 83.275 186.466 83.94 187.983 85.27C189.523 86.5767 190.293 88.4783 190.293 90.975V95.77C190.293 96.33 190.375 96.7267 190.538 96.96C190.725 97.1933 191.04 97.3217 191.483 97.345V102C190.993 102.093 190.55 102.163 190.153 102.21C189.756 102.257 189.406 102.28 189.103 102.28C188.053 102.28 187.248 102.07 186.688 101.65C186.151 101.23 185.813 100.658 185.673 99.935L185.568 99.13C184.751 100.18 183.771 100.985 182.628 101.545C181.485 102.082 180.306 102.35 179.093 102.35C177.88 102.35 176.783 102.093 175.803 101.58C174.846 101.067 174.088 100.378 173.528 99.515C172.968 98.6283 172.688 97.625 172.688 96.505ZM183.818 97.205C184.401 96.7383 184.693 96.26 184.693 95.77V94.125C184.203 93.9383 183.666 93.7983 183.083 93.705C182.523 93.5883 182.01 93.53 181.543 93.53C180.493 93.53 179.63 93.7633 178.953 94.23C178.3 94.6967 177.973 95.2917 177.973 96.015C177.973 96.645 178.218 97.1933 178.708 97.66C179.221 98.1033 179.898 98.325 180.738 98.325C181.298 98.325 181.858 98.22 182.418 98.01C182.978 97.8 183.445 97.5317 183.818 97.205ZM195.281 76.45H200.881V95.455C200.881 96.225 201.021 96.7733 201.301 97.1C201.581 97.4267 201.977 97.59 202.491 97.59C202.841 97.59 203.191 97.5433 203.541 97.45C203.914 97.3333 204.241 97.205 204.521 97.065L205.256 101.265C204.556 101.592 203.751 101.848 202.841 102.035C201.931 102.222 201.079 102.315 200.286 102.315C198.699 102.315 197.462 101.895 196.576 101.055C195.712 100.215 195.281 99.0017 195.281 97.415V76.45ZM208.074 81.525V76.45H213.674V81.525H208.074ZM208.074 102V83.625H213.674V102H208.074ZM230.408 101.02C229.638 101.347 228.751 101.65 227.748 101.93C226.768 102.21 225.776 102.35 224.773 102.35C223.84 102.35 222.988 102.198 222.218 101.895C221.448 101.568 220.83 101.043 220.363 100.32C219.896 99.5967 219.663 98.64 219.663 97.45V87.86H217.318V83.625H219.663V77.78H225.263V83.625H229.008V87.86H225.263V95.525C225.263 96.1317 225.415 96.575 225.718 96.855C226.021 97.1117 226.406 97.24 226.873 97.24C227.293 97.24 227.725 97.17 228.168 97.03C228.611 96.89 228.996 96.7383 229.323 96.575L230.408 101.02ZM233.593 104.765C234.55 105.068 235.355 105.22 236.008 105.22C236.662 105.22 237.175 104.987 237.548 104.52C237.945 104.053 238.295 103.213 238.598 102L231.598 83.625H237.373L241.643 96.26L245.283 83.625H250.568L243.568 104.975C243.078 106.492 242.192 107.717 240.908 108.65C239.648 109.607 238.167 110.085 236.463 110.085C235.483 110.085 234.527 109.91 233.593 109.56V104.765Z" fill="black"/>
<path d="M130.169 269V260.48H131.825V267.548H136.169V269H130.169ZM139.963 260.48L142.267 267.032L144.547 260.48H146.287L143.059 269H141.463L138.223 260.48H139.963ZM150.197 269V260.48H151.853V267.548H156.197V269H150.197ZM170.452 267.548V269H165.628V267.548H167.284V262.004C167.196 262.124 167.04 262.268 166.816 262.436C166.592 262.596 166.344 262.736 166.072 262.856C165.808 262.976 165.568 263.036 165.352 263.036V261.548C165.56 261.548 165.776 261.492 166 261.38C166.224 261.268 166.432 261.14 166.624 260.996C166.816 260.844 166.972 260.712 167.092 260.6C167.22 260.48 167.284 260.412 167.284 260.396H168.928V267.548H170.452Z" fill="black"/>
<circle cx="150.5" cy="186.5" r="55.5" fill="#E6E6E6" stroke="black" stroke-width="2"/>
<path fill-rule="evenodd" clip-rule="evenodd" d="M175.986 186.293C175.422 181.793 173.651 177.015 171.788 172.82C167.6 163.95 158.011 162.729 149.415 160.9C140.932 159.665 131.949 158.55 123.595 161.014C118.898 162.165 117.063 167.759 117.805 172.174C118.228 174.925 119.48 177.529 120.547 180.078C122.67 185.314 124.016 190.92 124.018 196.589C123.873 200.293 123.35 204.522 127.607 206.091C131.657 208.106 132 213.567 137.072 216.665C139.123 220.82 144.709 221.185 148.73 222.149C151.272 222.636 153.842 222.994 156.419 223.225C163.881 224.181 169.851 222.019 173.757 215.371C176.371 211.325 178.317 206.653 177.837 201.749C177.358 196.586 176.56 191.449 175.986 186.293Z" fill="#D08B5B"/>
<path fill-rule="evenodd" clip-rule="evenodd" d="M149.479 150.121C149.905 149.638 150.561 149.803 150.96 150.185C151.219 150.262 151.47 150.375 151.707 150.526C152.244 150.457 152.806 150.457 153.332 150.476C153.459 150.404 153.596 150.341 153.745 150.286C154.808 149.897 155.75 150.095 156.526 150.615C156.9 150.261 157.372 150.039 157.976 150.073C158.514 150.103 158.898 150.356 159.227 150.69C159.555 150.217 160.085 149.88 160.745 149.833C161.668 149.767 162.556 150.137 163.291 150.711C163.72 150.219 164.304 149.936 164.955 149.934C165.383 149.856 165.835 149.887 166.244 150.01C166.837 150.189 167.358 150.525 167.772 150.96C168.428 150.332 169.231 149.88 170.157 149.946C171.356 150.032 172.349 150.914 172.811 151.998C173.622 152.323 174.371 152.787 174.997 153.447C175.03 153.482 175.062 153.519 175.096 153.555C175.433 153.68 175.75 153.856 176.03 154.088C176.915 154.825 177.113 155.892 176.82 156.937C176.861 157.104 176.896 157.274 176.928 157.444C177.757 157.57 178.51 158.049 178.939 158.828C179.525 159.898 179.41 161.307 178.775 162.328C178.502 162.768 178.155 163.138 177.766 163.461C178.206 164.461 177.995 165.654 177.285 166.462C177.113 166.741 176.9 166.993 176.662 167.22C176.925 168.254 176.456 169.32 175.521 169.872L175.441 170.073C175.427 170.106 175.413 170.139 175.399 170.172C175.389 170.214 175.376 170.256 175.364 170.297C175.341 170.664 175.221 171.024 174.981 171.363C174.49 172.058 173.882 172.511 173.559 173.322L173.527 173.407C173.388 173.791 172.941 174.062 172.559 173.943C174.678 178.295 175.788 183.136 176.551 187.881C176.931 190.248 177.224 192.623 177.462 195.007L177.696 197.381C177.901 199.492 178.084 201.609 178.085 203.727C178.088 208.517 176.718 213.124 173.777 216.936C170.996 220.539 167.06 223.151 162.614 224.179C158.024 225.24 152.639 224.822 148.522 222.394C147.309 221.68 148.372 219.964 149.607 220.538C151.945 221.626 154.32 222.434 156.912 222.615C159.438 222.792 161.97 222.476 164.365 221.65C168.329 220.281 171.701 217.415 173.868 213.845C174.936 212.085 175.709 210.176 176.121 208.158C176.633 205.644 176.556 203.044 176.368 200.498L176.355 200.324C175.983 195.417 175.492 190.48 174.699 185.622C173.998 181.326 172.921 177.117 171.521 173.001C170.973 172.518 170.36 172.119 169.704 171.816C164.9 171.615 160.087 171.674 155.29 172.005C151.198 172.29 147.126 172.771 143.084 173.473L142.652 173.549C141.757 173.708 140.763 173.799 139.92 174.16C139.197 174.47 138.904 175.065 138.722 175.797C138.263 177.649 138.193 179.676 138.116 181.575C138.04 183.431 138.212 185.303 138.063 187.153C137.937 188.701 137.54 190.285 136.393 191.405C135.793 191.991 135.055 192.312 134.362 192.757C133.914 193.044 133.724 193.34 133.782 193.872C133.907 195.036 134.844 196.502 133.791 197.498C133.606 197.673 133.285 197.696 133.103 197.498C132.669 197.026 132.069 196.666 131.554 196.285C131.338 196.127 131.517 195.82 131.762 195.929C132.084 196.074 132.412 196.244 132.748 196.393C132.006 195.782 130.952 195.482 130.074 195.305C129.632 195.217 129.168 195.191 128.707 195.232C128.367 195.394 128.019 195.545 127.671 195.692C127.229 195.878 126.783 196.046 126.333 196.206C124.773 197.477 124.029 199.545 124.354 201.567C124.532 202.683 125.046 203.897 126.017 204.549C127.167 205.321 128.707 204.989 129.95 205.562C131.113 206.098 131.821 207.182 132.351 208.303L132.572 208.769C133.064 209.803 133.57 210.809 134.242 211.75C135.02 212.839 135.973 213.817 137.012 214.657C137.516 215.064 138.053 215.43 138.608 215.763L138.76 215.853C139.322 216.183 139.724 216.497 139.762 217.194C139.775 217.437 139.621 217.659 139.424 217.785C138.573 218.324 137.727 217.65 137.019 217.179C136.255 216.672 135.524 216.101 134.849 215.478C133.563 214.296 132.452 212.892 131.596 211.368C130.945 210.208 130.574 208.575 129.544 207.675C128.915 207.127 128.027 207.122 127.241 207.022C126.511 206.928 125.82 206.776 125.17 206.416C122.525 204.947 121.778 201.391 122.405 198.642C122.511 198.179 122.66 197.728 122.844 197.293C121.86 197.457 120.754 196.44 121.153 195.413C121.184 195.335 121.219 195.262 121.252 195.188C120.603 194.761 120.092 194.114 119.849 193.267C119.724 192.83 119.706 192.388 119.771 191.961C119.457 191.75 119.197 191.46 119.03 191.103C118.507 190.861 118.044 190.5 117.768 189.983C117.385 189.271 117.433 188.614 117.725 188.023C117.684 187.949 117.644 187.873 117.606 187.795C116.536 187.117 115.788 185.947 115.873 184.649C115.901 184.219 116.007 183.832 116.171 183.483C116.157 183.439 116.144 183.393 116.132 183.349C115.235 182.893 114.494 182.144 114.23 181.145C113.965 180.139 114.277 179.136 114.9 178.365C113.988 177.698 113.44 176.767 113.773 175.358C113.908 174.786 114.18 174.264 114.547 173.825C114.546 173.812 114.543 173.798 114.54 173.784L114.454 173.718C113.329 172.83 112.682 171.699 113.373 170.307C113.683 169.681 114.125 169.245 114.644 168.958L114.67 168.876C114.298 168.078 114.172 167.193 114.429 166.261C114.638 165.494 115.135 164.884 115.77 164.478C115.728 164.135 115.734 163.769 115.802 163.372C115.916 162.702 116.249 162.117 116.735 161.703C116.753 161.614 116.776 161.528 116.801 161.441C116.965 160.911 117.272 160.335 117.628 159.908C117.921 159.554 118.249 159.425 118.65 159.412C118.626 159.085 118.642 158.754 118.709 158.418C118.914 157.382 119.574 156.408 120.55 155.966C120.951 155.785 121.374 155.732 121.781 155.776C122.127 155.047 122.803 154.519 123.634 154.405C123.957 154.359 124.258 154.362 124.535 154.403C124.691 154.33 124.854 154.265 125.024 154.205C125.136 154.166 125.25 154.129 125.364 154.093C125.748 153.616 126.254 153.235 126.845 153.005C127.527 152.74 128.221 152.767 128.836 152.99L129.032 152.949C129.339 152.417 129.828 152.006 130.58 151.819C131.434 151.608 132.31 151.902 132.982 152.439C132.985 152.439 132.988 152.439 132.992 152.437C133.343 151.652 133.943 151.105 134.95 151.143C135.578 151.167 136.144 151.479 136.582 151.922C136.825 151.892 137.068 151.864 137.312 151.837C137.571 151.535 137.858 151.252 138.175 150.999C138.695 150.582 139.371 150.616 139.753 151.202C139.837 151.33 139.914 151.459 139.992 151.588L140.343 151.564C140.756 151.006 141.319 150.629 142.091 150.599C142.799 150.57 143.303 150.917 143.688 151.401C144 151.393 144.315 151.388 144.629 151.383C144.995 150.959 145.427 150.585 145.919 150.275C146.296 150.038 146.852 150.119 147.157 150.435C147.363 150.65 147.555 150.874 147.734 151.106C148.194 150.59 148.815 150.25 149.479 150.121ZM127.123 198.361C127.832 197.957 128.786 198.395 129.473 198.738C130.31 199.156 131.141 199.786 131.653 200.576C132.35 201.652 130.711 202.521 129.977 201.556C129.526 200.962 129.166 200.364 128.619 199.844C128.119 199.367 127.395 199.048 127.108 198.419C127.097 198.398 127.1 198.373 127.123 198.361ZM127.621 172.254L127.635 172.217C127.836 171.665 126.956 171.427 126.756 171.974C126.453 172.804 126.802 173.706 127.621 174.064C127.849 174.163 128.108 174.129 128.245 173.9C128.36 173.708 128.307 173.375 128.081 173.277C127.62 173.075 127.466 172.719 127.621 172.254ZM120.037 170.711C120.477 170.322 119.831 169.68 119.392 170.067C118.983 170.428 118.68 170.919 118.758 171.483C118.839 172.058 119.272 172.464 119.747 172.751C120.25 173.056 120.709 172.268 120.207 171.964L120.151 171.93C119.94 171.799 119.694 171.619 119.658 171.362C119.62 171.088 119.851 170.875 120.037 170.711ZM122.538 163.849L122.569 163.826C123.043 163.488 122.588 162.697 122.109 163.039C121.67 163.352 121.318 163.759 121.281 164.321C121.245 164.867 121.523 165.34 121.886 165.723C122.29 166.151 122.933 165.505 122.53 165.079C122.137 164.664 122.061 164.211 122.538 163.849Z" fill="black"/>
<path fill-rule="evenodd" clip-rule="evenodd" d="M163.615 209.883C163.849 209.478 164.386 209.103 164.878 209.16C167.082 209.418 167.078 212.085 166.227 213.642C165.473 215.022 163.911 215.832 162.348 215.714C160.706 215.59 159.307 214.626 158.691 213.093C158.284 212.079 158.096 210.207 159.179 209.526C159.199 209.513 159.233 209.516 159.249 209.535C159.768 210.138 159.788 211.043 160.243 211.714C160.666 212.339 161.323 212.854 162.092 212.934C162.667 212.993 163.249 212.786 163.474 212.271C163.595 211.993 163.581 211.842 163.536 211.65L163.494 211.483C163.35 210.9 163.285 210.455 163.615 209.883ZM164.204 198.188C165.354 198.885 167.105 200.511 165.869 202.24C164.413 203.764 162.317 202.016 161.285 201.226C160.327 200.614 159.251 202.189 160.14 202.904C167.602 208.418 170.63 198.37 164.786 197.368C164.142 197.258 163.903 197.972 164.204 198.188ZM152.066 193.406C152.771 192.35 154.382 192.506 154.77 193.759C154.981 194.438 154.69 195.049 154.705 195.727C154.718 196.3 154.68 196.938 154.504 197.493C154.103 198.758 152.963 199.652 151.614 199.614C150.27 199.578 149.086 198.728 148.523 197.532C147.958 196.332 148.077 195.089 148.49 193.868C148.51 193.81 148.587 193.781 148.633 193.831C149.121 194.348 149.478 194.894 149.847 195.473L150.225 196.067C150.515 196.513 150.935 197.084 151.475 197.049L151.556 197.041C151.706 197.028 151.683 197.057 151.799 196.853C151.853 196.759 151.843 196.583 151.869 196.472L151.878 196.434L151.873 196.414C151.862 196.36 151.85 196.258 151.841 196.081L151.839 196.042C151.8 195.216 151.566 194.155 152.066 193.406ZM169.95 194.11C169.824 192.759 171.727 192.459 172.36 193.458C172.69 193.98 172.786 194.635 172.859 195.255L172.893 195.55C172.968 196.187 172.998 196.85 172.721 197.444C172.284 198.381 171.335 198.875 170.311 198.797C169.333 198.722 168.44 198.156 167.97 197.297C167.55 196.531 167.134 195.034 167.643 194.234C167.674 194.186 167.735 194.18 167.777 194.217C168.259 194.643 168.337 195.421 168.623 195.977C168.918 196.55 169.366 197.108 170.044 197.195C170.694 197.279 170.942 196.925 170.776 196.307C170.562 195.51 170.031 194.968 169.95 194.11ZM152.58 185.374L152.891 185.255C153.958 184.853 155.422 184.388 156.289 185.253C156.824 185.787 156.926 186.573 156.544 187.224C156.081 188.013 155.252 188.033 154.45 188.149C153.539 188.281 152.612 188.532 151.764 188.891C150.808 189.294 149.921 189.797 149.052 190.359C148.226 190.893 147.403 191.766 146.414 191.931C146.374 191.937 146.328 191.92 146.317 191.876C146.093 190.911 146.717 189.962 147.274 189.209C147.947 188.298 148.764 187.55 149.676 186.88C150.557 186.232 151.563 185.765 152.58 185.374ZM171.953 188.803L172.048 188.787C172.694 188.679 173.28 188.704 173.768 189.215C174.14 189.605 174.283 190.111 174.106 190.626C173.942 191.102 173.576 191.585 173.045 191.685C171.252 192.021 169.266 191.966 167.464 191.711C166.64 191.594 165.808 191.451 165.005 191.226L164.635 191.119C163.965 190.928 163.197 190.729 162.711 190.237C162.535 190.06 162.636 189.807 162.846 189.725C163.696 189.393 164.86 189.569 165.766 189.543C166.82 189.513 167.876 189.434 168.925 189.326C169.95 189.219 170.942 188.988 171.953 188.803Z" fill="black"/>
<path fill-rule="evenodd" clip-rule="evenodd" d="M150.643 213.809C151.875 210.927 154.565 208.81 157.662 208.035C159.936 207.468 162.323 207.486 164.641 207.711C165.856 207.829 167.159 207.925 168.303 208.375C169.281 208.759 170.077 209.486 170.676 210.34C171.389 211.351 171.874 212.508 172.215 213.694C172.263 213.863 172.309 214.033 172.351 214.204C172.203 215.098 171.889 215.86 171.058 216.423C170.247 216.972 169.28 217.197 168.316 217.277C168.222 217.232 168.13 217.185 168.047 217.137C166.544 216.279 165.487 214.251 163.59 214.525C161.898 214.77 160.784 216.895 159.778 218.141C156.547 218.517 153.319 217.548 150.691 215.705C150.558 215.074 150.55 214.438 150.643 213.809M174.547 211.623C174.288 210.899 173.963 210.198 173.577 209.538C172.301 207.354 170.344 205.614 168.019 204.62C162.521 202.27 155.406 203.926 150.966 207.78C149.449 209.097 147.915 211.033 147.451 213.115C147.313 213.143 147.182 213.215 147.075 213.316C143.866 211.3 140.563 209.361 137.977 206.566C136.1 204.536 134.794 202.133 133.995 199.493C133.929 199.276 133.578 199.308 133.589 199.548C133.592 199.604 133.595 199.66 133.598 199.717C133.564 199.613 133.406 199.667 133.394 199.767C132.964 202.974 132.426 206.375 132.921 209.599C133.218 211.523 134.093 212.931 135.264 214.452C136.518 216.082 137.938 217.598 139.39 219.052C140.311 219.975 141.273 221.04 142.401 221.716C143.713 222.503 145.201 223.1 146.601 223.707C148.026 224.326 149.471 224.898 150.945 225.394C153.889 226.388 156.932 227.076 160.029 227.377C162.509 227.617 165.342 227.879 167.718 226.948C169.539 226.235 171.009 224.945 172.175 223.394C173.445 221.704 174.448 219.78 175.003 217.75C175.579 215.642 174.668 211.963 174.547 211.623" fill="black"/>
</g>
<defs>
<radialGradient id="paint0_radial_397368:40780" cx="0" cy="0" r="1" gradientUnits="userSpaceOnUse" gradientTransform="translate(150 186) rotate(90) scale(186)">
<stop stop-color="#75D181" stop-opacity="0"/>
<stop offset="1" stop-color="#75D181"/>
</radialGradient>
<radialGradient id="paint1_radial_397368:40780" cx="0" cy="0" r="1" gradientUnits="userSpaceOnUse" gradientTransform="translate(150.5 186.5) rotate(90) scale(123.5)">
<stop stop-color="#53BC60" stop-opacity="0"/>
<stop offset="1" stop-color="#53BC60"/>
</radialGradient>
<clipPath id="clip0_397368:40780">
<rect width="300" height="300" rx="8" fill="white"/>
</clipPath>
</defs>
</svg>
