<svg width="300" height="300" viewBox="0 0 300 300" fill="none" xmlns="http://www.w3.org/2000/svg">
<g clip-path="url(#clip0_397370:41112)">
<rect width="300" height="300" fill="#61CEFF"/>
<circle cx="150" cy="186" r="186" fill="url(#paint0_radial_397370:41112)"/>
<circle cx="150.5" cy="186.5" r="123.5" fill="url(#paint1_radial_397370:41112)"/>
<circle cx="62.5" cy="186.5" r="46.5" fill="#E6E6E6" stroke="black" stroke-width="2"/>
<path fill-rule="evenodd" clip-rule="evenodd" d="M70.6733 218.73C67.753 218.721 65.08 218.152 62.5439 216.906C59.4816 215.907 56.1377 215.363 53.6526 213.151C52.4424 213.407 51.2021 212.165 50.1982 211.425C48.5608 217.45 40.0397 216.448 36.4393 212.554C34.2367 210.694 33.3508 206.092 37.1755 204.875C30.909 200.618 28.6456 193.265 29.0763 185.308C29.5295 171.961 39.7896 158.085 52.9768 155.77C55.5783 155.312 58.2499 155.36 60.8402 155.905C62.2867 156.218 63.6849 156.827 65.233 156.799C71.2369 155.85 77.8313 155.959 82.7905 159.802C90.7167 165.106 91.8184 175.717 90.8922 184.249L90.9297 184.329C90.469 187.46 89.7032 190.329 88.255 192.217C88.1423 194.931 87.1992 200.726 87.1294 203.016C87.2985 213.676 81.2449 218.407 70.6733 218.73" fill="#D08B5B"/>
<path fill-rule="evenodd" clip-rule="evenodd" d="M50.16 157.774C55.5686 155.944 58.9817 156.889 64.0292 157.9L64.3403 157.962L64.8298 158.057C69.8947 157.718 74.2573 156.606 79.1474 159.032C89.3223 163.31 91.2056 175.121 90.5047 184.984L90.4631 185.168C90.1318 186.606 89.6655 188.093 88.6855 189.237C87.0404 181.139 81.7517 175.793 75.2483 170.688L75.0158 170.407C74.2084 169.433 73.3276 168.422 72.2626 167.735C72.2976 167.42 72.315 167.105 72.3093 166.794C72.3016 166.364 71.688 166.002 71.368 166.376L71.307 166.452C70.8894 166.959 68.6957 169.395 67.5856 170.646L67.4472 170.802L67.1123 171.183L66.5469 171.86C60.4435 179.157 54.0057 186.483 44.9026 189.986C42.7212 188.606 40.0752 189.821 38.7121 191.765C34.8386 196.28 39.3287 204.794 45.2822 202.484C45.6437 205.607 47.2062 209.127 49.3261 211.483C47.0034 214.724 43.2872 215.309 39.8111 213.474C36.4178 211.958 34.222 208.775 36.3049 205.255C36.3487 205.23 36.3937 205.205 36.4396 205.181C38.0366 206.247 39.8977 206.945 41.8223 207.087L41.9681 207.096C43.1703 207.153 43.1512 205.26 41.9312 205.163C33.8621 204.137 30.2797 194.921 30.2717 187.694C29.9289 174.972 37.859 161.883 50.16 157.774Z" fill="#C93305"/>
<path fill-rule="evenodd" clip-rule="evenodd" d="M35.7958 204.728C16.8136 187.954 36.2873 150.206 60.9852 155.214C63.4849 156.051 66.0233 156.342 68.6119 155.721C81.657 153.684 92.3288 164.754 91.7772 177.562C91.869 179.753 91.8513 181.945 91.6145 184.127C91.3438 186.995 90.6044 190.062 88.9555 192.446C88.9364 194.048 87.9938 200.055 87.8423 202.881L87.8134 203.471C87.663 206.375 87.3389 209.337 86.0623 211.986C82.1363 219.1 72.0232 220.627 64.7718 218.555L64.4703 218.455C63.1233 218.008 61.5963 217.411 60.741 216.283C60.289 215.687 61.0373 214.925 61.6596 215.088C62.4606 215.296 63.1246 215.785 63.8724 216.132C68.7501 218.288 74.5193 217.566 79.3342 215.552L79.4799 215.49C88.1032 211.99 85.741 199.536 86.8761 192.436C87.1343 183.419 79.6146 177.278 73.949 171.315L73.7794 171.126C73.1974 170.48 72.5826 169.851 71.7732 169.713C71.5516 170.386 71.0064 170.958 70.5008 171.449L69.3574 172.685C68.2137 173.919 67.0677 175.148 65.9053 176.367C60.2614 182.1 54.5109 189.885 45.8111 190.472C46.3459 190.956 46.8148 191.509 47.3753 191.964C47.6118 192.201 47.3707 192.598 47.0535 192.517C46.4621 192.366 46.0839 191.805 45.6958 191.367C40.9971 189.394 37.1383 196.683 41.1192 199.701C42.596 201.265 46.9115 200.075 45.9136 202.004C47.0027 205.42 48.6792 208.855 51.515 211.14C52.3476 211.769 53.6481 212.087 54.2005 213.013C54.3338 213.236 54.2658 213.6 54.0154 213.719C52.8108 214.28 51.5167 213.335 50.5915 212.624C45.7057 222.175 27.7893 211.622 35.7958 204.728ZM64.8295 158.055L64.3399 157.959C59.1198 156.926 55.6786 155.904 50.1596 157.771C37.8586 161.88 29.9285 174.97 30.2713 187.692C30.2794 194.919 33.8618 204.135 41.9308 205.16C43.1508 205.257 43.1699 207.151 41.9678 207.094L41.931 207.092C39.9419 206.968 38.0165 206.246 36.3752 205.136C34.1733 208.703 36.38 211.939 39.8107 213.472C43.2869 215.306 47.003 214.721 49.3257 211.48C47.2059 209.125 45.6433 205.605 45.2819 202.482C39.3284 204.792 34.8383 196.278 38.7117 191.762C40.0748 189.819 42.7209 188.604 44.9022 189.984C54.2869 186.373 60.8388 178.698 67.112 171.181L67.4469 170.8C68.5452 169.559 71.0707 166.757 71.3508 166.394C71.6655 165.987 72.3011 166.354 72.309 166.791C72.3146 167.102 72.2973 167.418 72.2623 167.733C73.4303 168.486 74.3768 169.63 75.2479 170.686C81.7513 175.79 87.0401 181.137 88.6852 189.235C89.7069 188.042 90.1702 186.477 90.5044 184.982C91.2052 175.119 89.322 163.308 79.147 159.03C74.257 156.603 69.8943 157.715 64.8295 158.055ZM41.7553 195.097C41.3316 194.719 44.1308 194.673 44.395 194.969L44.4553 194.99C45.4575 195.342 47.2925 196.478 46.3914 197.658C45.1065 198.869 44.2116 195.273 41.7553 195.097Z" fill="black"/>
<path fill-rule="evenodd" clip-rule="evenodd" d="M73.2025 207.237C72.2521 206.85 71.4041 206.204 70.7842 205.38C70.5686 205.093 70.5127 204.79 70.558 204.514C70.6088 204.202 70.7933 203.92 71.045 203.731C71.2974 203.541 71.6132 203.448 71.9184 203.495C72.1837 203.537 72.4478 203.682 72.6567 203.982L72.7004 204.042C73.069 204.54 73.5493 204.948 74.0965 205.212C74.624 205.465 75.2139 205.584 75.8243 205.515C76.987 205.384 77.7883 204.756 78.6401 203.904C78.7457 203.796 78.8513 203.685 78.9575 203.573C79.0245 203.47 79.1176 203.405 79.2208 203.37C79.3355 203.332 79.4653 203.334 79.5841 203.376C79.6987 203.416 79.8012 203.491 79.8699 203.592C79.9352 203.688 79.9722 203.806 79.9602 203.942C79.8822 204.825 79.4196 205.613 78.7624 206.232C78.0326 206.919 77.0651 207.395 76.1543 207.561C75.1508 207.745 74.1283 207.614 73.2025 207.237V207.237ZM76.6277 193.613C77.6953 194.26 79.3219 195.77 78.1735 197.376C76.8216 198.792 74.8752 197.168 73.9161 196.434C73.0267 195.865 72.0275 197.329 72.8526 197.993C79.7834 203.114 82.5961 193.782 77.1676 192.851C76.57 192.749 76.348 193.412 76.6277 193.613ZM64.2077 187.656C64.3256 186.194 66.5555 185.863 66.7773 187.309C66.9759 188.604 66.7421 189.794 66.1575 190.96C65.5989 192.074 64.195 191.554 64.0888 190.54C63.9465 189.18 64.1343 188.565 64.2077 187.656ZM81.1818 187.009C81.4927 186.602 81.9415 186.325 82.4793 186.482C84.1596 186.972 83.6643 189.352 83.0742 190.511C82.7536 191.14 81.7172 191.3 81.2488 190.746C80.4854 189.842 80.1198 188.038 81.0903 187.148C81.1166 187.102 81.1459 187.056 81.1818 187.009ZM66.1338 181.262L66.3993 181.215C67.2203 181.074 68.2413 180.938 68.8221 181.596C69.1302 181.946 69.2362 182.595 68.8221 182.929C68.0937 183.518 67.2885 183.29 66.4156 183.34C65.6963 183.381 65.005 183.5 64.3121 183.697C62.792 184.131 61.5534 184.922 60.2551 185.791C60.0848 185.905 59.9109 185.688 59.9922 185.529C60.7416 184.064 62.194 182.861 63.6487 182.127C64.4252 181.736 65.2748 181.411 66.1338 181.262ZM79.6501 180.606L79.8532 180.647C82.064 181.108 84.9362 182.03 85.9831 184.197C86.023 184.503 85.9809 184.569 85.9466 184.612L85.9352 184.626C85.9069 184.663 85.8844 184.713 85.7513 184.755C85.7144 184.746 85.6771 184.737 85.6394 184.727C85.1595 184.601 84.7798 184.428 84.4123 184.249L84.0137 184.053C83.5514 183.827 83.0849 183.609 82.5906 183.448C81.5356 183.104 80.4505 182.863 79.3485 182.733C79.1097 182.705 78.8797 182.625 78.6983 182.487C78.526 182.356 78.3945 182.175 78.3345 181.934C78.2567 181.622 78.2791 181.386 78.4467 181.105C78.5727 180.894 78.7529 180.748 78.96 180.664C79.171 180.578 79.4113 180.558 79.6501 180.606Z" fill="black"/>
<circle cx="238.5" cy="186.5" r="46.5" fill="#E6E6E6" stroke="black" stroke-width="2"/>
<path fill-rule="evenodd" clip-rule="evenodd" d="M261.004 185.508C260.54 181.806 259.082 177.874 257.55 174.422C254.103 167.124 246.213 166.119 239.14 164.615C232.16 163.598 224.769 162.681 217.895 164.708C214.03 165.655 212.521 170.259 213.131 173.891C213.479 176.155 214.509 178.297 215.387 180.395C217.134 184.703 218.242 189.316 218.243 193.98C218.124 197.028 217.693 200.508 221.196 201.799C224.529 203.456 224.811 207.95 228.984 210.499C230.672 213.918 235.268 214.219 238.577 215.012C240.668 215.412 242.783 215.707 244.903 215.897C251.043 216.684 255.955 214.905 259.169 209.434C261.32 206.105 262.922 202.261 262.526 198.226C262.132 193.978 261.476 189.751 261.004 185.508Z" fill="#D08B5B"/>
<path fill-rule="evenodd" clip-rule="evenodd" d="M239.193 155.745C239.544 155.348 240.084 155.484 240.411 155.798C240.625 155.861 240.831 155.954 241.027 156.078C241.468 156.021 241.93 156.021 242.363 156.037C242.468 155.978 242.581 155.926 242.703 155.881C243.578 155.561 244.353 155.724 244.992 156.152C245.3 155.861 245.688 155.678 246.184 155.706C246.627 155.73 246.943 155.939 247.214 156.213C247.484 155.824 247.92 155.547 248.463 155.508C249.223 155.454 249.953 155.759 250.558 156.23C250.911 155.826 251.391 155.593 251.927 155.591C252.28 155.527 252.652 155.552 252.988 155.654C253.476 155.801 253.904 156.077 254.245 156.436C254.785 155.919 255.446 155.547 256.208 155.601C257.194 155.672 258.011 156.397 258.391 157.29C259.059 157.557 259.675 157.939 260.19 158.482C260.217 158.511 260.244 158.541 260.271 158.571C260.549 158.673 260.81 158.819 261.04 159.01C261.768 159.616 261.931 160.494 261.69 161.353C261.723 161.491 261.752 161.631 261.778 161.771C262.461 161.875 263.081 162.269 263.433 162.91C263.916 163.79 263.821 164.95 263.298 165.79C263.074 166.151 262.789 166.456 262.468 166.722C262.83 167.544 262.657 168.526 262.073 169.191C261.931 169.421 261.756 169.628 261.56 169.815C261.776 170.665 261.391 171.543 260.621 171.997L260.555 172.162C260.544 172.189 260.533 172.217 260.521 172.244C260.513 172.279 260.502 172.312 260.492 172.347C260.473 172.648 260.374 172.944 260.177 173.223C259.773 173.795 259.272 174.168 259.007 174.836L258.98 174.906C258.866 175.222 258.498 175.444 258.184 175.347C259.927 178.927 260.841 182.911 261.468 186.815C261.781 188.762 262.023 190.717 262.219 192.679L262.411 194.632C262.579 196.369 262.73 198.111 262.731 199.853C262.733 203.795 261.606 207.586 259.186 210.722C256.898 213.687 253.659 215.836 250.001 216.682C246.224 217.555 241.793 217.211 238.406 215.213C237.407 214.626 238.282 213.213 239.298 213.686C241.222 214.581 243.177 215.246 245.309 215.395C247.387 215.541 249.471 215.281 251.442 214.601C254.703 213.475 257.478 211.116 259.261 208.179C260.14 206.731 260.776 205.16 261.115 203.5C261.536 201.431 261.473 199.292 261.318 197.196L261.307 197.054C261.001 193.016 260.597 188.953 259.945 184.956C259.368 181.421 258.481 177.958 257.33 174.571C256.879 174.174 256.375 173.846 255.835 173.596C251.882 173.431 247.922 173.479 243.974 173.752C240.607 173.986 237.257 174.382 233.931 174.96L233.575 175.022C232.839 175.153 232.022 175.228 231.328 175.525C230.733 175.78 230.492 176.27 230.342 176.872C229.964 178.396 229.907 180.064 229.843 181.626C229.781 183.153 229.922 184.694 229.799 186.216C229.696 187.49 229.369 188.793 228.426 189.715C227.932 190.197 227.325 190.461 226.755 190.827C226.386 191.064 226.23 191.307 226.277 191.745C226.38 192.702 227.151 193.908 226.285 194.728C226.132 194.872 225.869 194.891 225.719 194.728C225.361 194.34 224.867 194.043 224.444 193.73C224.266 193.6 224.414 193.347 224.615 193.437C224.88 193.556 225.15 193.696 225.426 193.819C224.816 193.316 223.949 193.07 223.226 192.923C222.863 192.851 222.48 192.83 222.102 192.864C221.822 192.997 221.535 193.121 221.249 193.242C220.885 193.395 220.518 193.533 220.148 193.665C218.864 194.711 218.252 196.412 218.519 198.076C218.666 198.995 219.089 199.994 219.888 200.53C220.834 201.165 222.102 200.892 223.124 201.364C224.081 201.805 224.664 202.696 225.1 203.619L225.282 204.003C225.687 204.853 226.103 205.681 226.656 206.455C227.296 207.351 228.08 208.156 228.935 208.847C229.349 209.182 229.791 209.483 230.248 209.757L230.373 209.831C230.836 210.102 231.167 210.361 231.198 210.935C231.208 211.135 231.082 211.317 230.919 211.421C230.219 211.865 229.523 211.31 228.941 210.922C228.312 210.505 227.711 210.035 227.155 209.522C226.097 208.55 225.182 207.395 224.479 206.141C223.943 205.186 223.638 203.842 222.79 203.102C222.273 202.651 221.542 202.647 220.895 202.565C220.294 202.487 219.726 202.362 219.191 202.066C217.015 200.857 216.4 197.931 216.916 195.67C217.003 195.288 217.126 194.917 217.277 194.56C216.467 194.695 215.557 193.857 215.886 193.012C215.911 192.948 215.94 192.889 215.967 192.827C215.434 192.476 215.012 191.944 214.812 191.247C214.71 190.887 214.695 190.523 214.749 190.172C214.49 189.999 214.276 189.76 214.139 189.466C213.709 189.267 213.328 188.97 213.1 188.545C212.785 187.958 212.825 187.418 213.065 186.932C213.031 186.871 212.999 186.809 212.968 186.745C212.086 186.186 211.471 185.223 211.541 184.156C211.564 183.802 211.651 183.483 211.786 183.196C211.775 183.16 211.764 183.122 211.754 183.086C211.017 182.711 210.407 182.095 210.189 181.272C209.972 180.445 210.228 179.62 210.74 178.985C209.99 178.436 209.539 177.67 209.813 176.511C209.924 176.04 210.148 175.611 210.45 175.25C210.449 175.239 210.447 175.227 210.444 175.216L210.374 175.162C209.448 174.431 208.916 173.5 209.484 172.355C209.739 171.84 210.103 171.481 210.53 171.245L210.552 171.177C210.245 170.521 210.142 169.792 210.353 169.026C210.525 168.395 210.934 167.892 211.456 167.559C211.421 167.276 211.426 166.975 211.483 166.648C211.576 166.097 211.85 165.616 212.25 165.275C212.265 165.202 212.284 165.131 212.305 165.06C212.44 164.624 212.693 164.15 212.985 163.798C213.226 163.507 213.496 163.401 213.826 163.39C213.806 163.121 213.82 162.848 213.875 162.572C214.044 161.72 214.586 160.918 215.39 160.555C215.72 160.406 216.067 160.362 216.402 160.398C216.687 159.798 217.243 159.364 217.927 159.27C218.193 159.232 218.441 159.235 218.668 159.269C218.797 159.208 218.931 159.155 219.071 159.106C219.163 159.073 219.257 159.043 219.351 159.014C219.667 158.621 220.083 158.307 220.569 158.119C221.13 157.9 221.702 157.922 222.208 158.106L222.369 158.072C222.621 157.635 223.024 157.296 223.643 157.142C224.345 156.968 225.066 157.211 225.619 157.652C225.621 157.652 225.624 157.652 225.627 157.651C225.916 157.005 226.41 156.555 227.238 156.586C227.755 156.606 228.221 156.862 228.581 157.227C228.781 157.202 228.981 157.18 229.182 157.157C229.394 156.908 229.631 156.676 229.892 156.467C230.319 156.125 230.876 156.152 231.191 156.635C231.259 156.74 231.323 156.846 231.387 156.952L231.675 156.932C232.015 156.473 232.479 156.163 233.114 156.139C233.696 156.115 234.111 156.4 234.428 156.798C234.685 156.792 234.944 156.787 235.203 156.783C235.504 156.435 235.859 156.127 236.264 155.872C236.574 155.677 237.031 155.744 237.282 156.004C237.452 156.18 237.61 156.365 237.757 156.556C238.135 156.131 238.647 155.852 239.193 155.745ZM220.798 195.439C221.382 195.106 222.167 195.466 222.731 195.749C223.42 196.092 224.104 196.611 224.525 197.261C225.099 198.146 223.75 198.861 223.146 198.067C222.775 197.579 222.479 197.086 222.029 196.659C221.618 196.266 221.022 196.004 220.785 195.486C220.777 195.469 220.779 195.449 220.798 195.439ZM221.208 173.957L221.219 173.926C221.385 173.472 220.66 173.276 220.496 173.726C220.246 174.409 220.534 175.151 221.208 175.446C221.395 175.528 221.608 175.499 221.721 175.311C221.816 175.153 221.772 174.879 221.587 174.798C221.207 174.633 221.08 174.34 221.208 173.957ZM214.967 172.687C215.33 172.367 214.798 171.838 214.437 172.157C214.1 172.454 213.85 172.858 213.915 173.322C213.981 173.796 214.338 174.13 214.729 174.366C215.143 174.616 215.52 173.968 215.107 173.718L215.061 173.69C214.888 173.582 214.685 173.434 214.655 173.223C214.624 172.998 214.815 172.822 214.967 172.687ZM217.025 167.041L217.051 167.022C217.441 166.744 217.066 166.093 216.673 166.374C216.311 166.632 216.022 166.967 215.991 167.429C215.961 167.878 216.19 168.267 216.489 168.583C216.821 168.935 217.351 168.404 217.019 168.053C216.696 167.711 216.633 167.338 217.025 167.041Z" fill="black"/>
<path fill-rule="evenodd" clip-rule="evenodd" d="M250.825 204.919C251.017 204.586 251.459 204.277 251.864 204.324C253.677 204.536 253.674 206.731 252.974 208.012C252.353 209.147 251.068 209.814 249.782 209.717C248.431 209.614 247.28 208.822 246.773 207.56C246.438 206.726 246.283 205.186 247.175 204.625C247.191 204.614 247.218 204.617 247.232 204.632C247.659 205.128 247.676 205.873 248.05 206.426C248.398 206.939 248.938 207.364 249.572 207.429C250.045 207.478 250.523 207.308 250.708 206.884C250.808 206.655 250.797 206.53 250.759 206.373L250.725 206.236C250.606 205.755 250.553 205.39 250.825 204.919ZM251.309 195.296C252.255 195.87 253.696 197.208 252.679 198.63C251.481 199.884 249.757 198.446 248.907 197.796C248.119 197.292 247.234 198.588 247.965 199.177C254.105 203.714 256.597 195.446 251.788 194.621C251.258 194.53 251.062 195.118 251.309 195.296ZM241.322 191.362C241.902 190.492 243.227 190.62 243.547 191.652C243.72 192.211 243.481 192.713 243.493 193.271C243.504 193.742 243.473 194.267 243.328 194.724C242.998 195.765 242.06 196.5 240.95 196.47C239.844 196.439 238.869 195.741 238.406 194.756C237.941 193.769 238.04 192.746 238.379 191.742C238.395 191.693 238.459 191.67 238.497 191.711C238.898 192.136 239.192 192.585 239.496 193.062L239.807 193.55C240.045 193.918 240.391 194.388 240.836 194.358L240.902 194.352C241.026 194.341 241.007 194.366 241.102 194.198C241.146 194.12 241.138 193.975 241.159 193.884L241.167 193.853L241.163 193.836C241.153 193.792 241.144 193.708 241.136 193.563L241.135 193.53C241.103 192.851 240.91 191.977 241.322 191.362ZM256.037 191.94C255.933 190.829 257.499 190.582 258.02 191.404C258.292 191.833 258.371 192.372 258.431 192.883L258.459 193.125C258.52 193.649 258.545 194.195 258.317 194.684C257.958 195.454 257.176 195.862 256.334 195.797C255.529 195.735 254.795 195.27 254.408 194.563C254.063 193.932 253.72 192.701 254.139 192.043C254.164 192.003 254.215 191.998 254.249 192.029C254.645 192.379 254.71 193.019 254.945 193.477C255.188 193.948 255.557 194.408 256.115 194.479C256.649 194.548 256.853 194.257 256.717 193.748C256.541 193.092 256.104 192.646 256.037 191.94ZM241.745 184.752L242.001 184.654C242.878 184.323 244.083 183.941 244.796 184.653C245.237 185.092 245.32 185.739 245.006 186.275C244.626 186.924 243.943 186.94 243.283 187.036C242.534 187.144 241.771 187.351 241.073 187.646C240.286 187.978 239.557 188.392 238.841 188.854C238.162 189.294 237.485 190.012 236.671 190.147C236.638 190.153 236.6 190.139 236.592 190.102C236.407 189.308 236.92 188.527 237.378 187.908C237.933 187.158 238.605 186.543 239.355 185.991C240.08 185.459 240.908 185.074 241.745 184.752ZM257.685 187.574L257.763 187.56C258.295 187.472 258.777 187.492 259.178 187.913C259.485 188.234 259.603 188.65 259.457 189.074C259.322 189.465 259.021 189.863 258.584 189.945C257.109 190.222 255.474 190.176 253.992 189.966C253.313 189.87 252.629 189.753 251.968 189.568L251.664 189.48C251.112 189.322 250.481 189.158 250.08 188.753C249.936 188.608 250.019 188.4 250.192 188.332C250.891 188.059 251.849 188.204 252.595 188.183C253.462 188.158 254.33 188.093 255.193 188.004C256.037 187.916 256.853 187.726 257.685 187.574Z" fill="black"/>
<path fill-rule="evenodd" clip-rule="evenodd" d="M240.151 208.149C241.165 205.778 243.378 204.036 245.926 203.399C247.798 202.932 249.761 202.947 251.669 203.132C252.668 203.228 253.74 203.307 254.682 203.678C255.487 203.994 256.142 204.592 256.635 205.295C257.221 206.127 257.62 207.079 257.901 208.055C257.94 208.194 257.978 208.333 258.013 208.474C257.891 209.21 257.632 209.837 256.949 210.3C256.282 210.752 255.486 210.937 254.693 211.003C254.615 210.966 254.54 210.927 254.471 210.888C253.235 210.182 252.365 208.513 250.804 208.739C249.412 208.94 248.495 210.689 247.667 211.714C245.009 212.023 242.353 211.226 240.19 209.709C240.081 209.19 240.074 208.667 240.151 208.149M259.819 206.351C259.607 205.755 259.339 205.178 259.021 204.635C257.972 202.838 256.361 201.407 254.448 200.588C249.924 198.655 244.07 200.018 240.416 203.188C239.168 204.272 237.906 205.865 237.525 207.579C237.411 207.601 237.303 207.66 237.215 207.744C234.575 206.085 231.856 204.489 229.729 202.19C228.184 200.519 227.11 198.542 226.452 196.37C226.398 196.191 226.109 196.217 226.118 196.415C226.121 196.461 226.123 196.508 226.126 196.554C226.098 196.469 225.968 196.513 225.958 196.595C225.604 199.234 225.161 202.032 225.569 204.685C225.813 206.268 226.533 207.427 227.496 208.678C228.528 210.02 229.697 211.267 230.891 212.463C231.649 213.223 232.441 214.099 233.369 214.656C234.449 215.303 235.673 215.795 236.825 216.294C237.997 216.803 239.187 217.273 240.399 217.681C242.822 218.5 245.326 219.065 247.874 219.313C249.914 219.511 252.246 219.726 254.201 218.96C255.699 218.373 256.909 217.312 257.868 216.036C258.913 214.646 259.738 213.062 260.195 211.392C260.669 209.658 259.919 206.63 259.819 206.351" fill="black"/>
<circle cx="150.5" cy="186.5" r="55.5" fill="#E6E6E6" stroke="black" stroke-width="2"/>
<path fill-rule="evenodd" clip-rule="evenodd" d="M186.397 188.44C184.949 180.544 181.379 173.031 175.896 167.152C175.263 166.454 174.695 165.353 173.729 165.177C172.76 163.202 170.913 161.806 169.436 160.211C166.213 156.996 163.129 153.405 158.972 151.375C139.689 143.444 121.132 166.059 117.194 183.068C113.283 196.746 117.555 215.615 134.505 216.168C136.902 219.34 140.211 221.536 143.61 223.497C148.252 226.469 153.315 227.675 158.685 226.021C164.033 227.419 169.577 222.934 172.791 219C175.331 215.954 177.072 212.235 179.396 209.082C182.139 209.013 184.51 206.69 184.877 203.967C187.439 199.258 187.323 193.616 186.397 188.44V188.44Z" fill="#D08B5B"/>
<path fill-rule="evenodd" clip-rule="evenodd" d="M117.194 183.068C121.132 166.059 139.689 143.444 158.972 151.375C163.129 153.405 166.213 156.996 169.436 160.211C170.913 161.806 172.76 163.202 173.729 165.177C174.695 165.353 175.263 166.454 175.896 167.152C181.379 173.031 184.949 180.544 186.397 188.44C187.323 193.616 187.439 199.258 184.877 203.967C184.51 206.69 182.139 209.013 179.396 209.082C178.893 209.764 178.417 210.473 177.955 211.196L177.846 211.233L177.833 210.432C177.601 197.463 176.854 189.633 175.592 186.945C174.317 184.229 168.829 179.256 159.129 172.026L158.833 171.806L156.556 169.926L154.789 171.921C148.141 179.421 142.937 185.209 139.177 189.284C135.131 193.669 131.708 200.339 128.907 209.296L128.823 209.568L133.77 216.132C117.432 215.065 113.34 196.546 117.194 183.068Z" fill="#9DDADB"/>
<path fill-rule="evenodd" clip-rule="evenodd" d="M144.395 148.688C147.903 147.868 151.583 148.038 155.059 148.939C161.947 150.725 167.615 155.37 172.314 160.548C176.898 165.599 180.679 171.39 183.44 177.628L183.579 177.945C185.532 182.392 187.229 187.014 187.302 191.91C187.365 196.124 186.939 200.514 185.578 204.522C184.365 208.092 182.135 211.69 178.297 212.546C176.085 218.171 171.755 223.043 166.302 225.649C162.92 227.266 159.205 227.988 155.466 227.629C151.65 227.263 148.087 225.43 145.105 223.092C145.023 223.028 145.128 222.903 145.213 222.952C148.803 225.021 153.049 225.76 157.161 225.624C163.918 225.401 170.113 221.753 173.673 216.02C174.559 214.592 175.348 213.087 175.978 211.521C175.941 211.393 175.919 211.262 175.919 211.135C175.919 210.595 176.175 210.183 176.557 209.917C176.735 209.363 176.891 208.804 177.022 208.238C177.319 206.956 177.484 205.655 177.584 204.344C177.665 203.279 177.62 202.149 177.727 201.056C177.688 200.181 177.634 199.307 177.555 198.434C177.3 195.622 176.783 192.818 175.789 190.168C174.782 187.483 173.192 185.116 171.185 183.079C166.881 178.709 161.522 175.519 157.337 171.03L157.118 170.792L157.103 170.787C156.583 171.32 156.064 171.852 155.544 172.384L153.166 174.809C148.314 179.765 143.5 184.769 139.278 190.283C136.848 193.459 134.664 196.787 132.782 200.317C131.891 201.989 131.083 203.702 130.352 205.45L130.065 206.146C129.723 206.979 129.353 207.911 129.148 208.851C129.759 209.457 130.206 210.348 130.7 211.036C131.26 211.816 131.906 212.558 132.571 213.251C133.244 213.953 133.982 214.625 134.766 215.201L134.86 215.269C135.759 215.907 136.791 216.348 136.925 217.562C136.984 218.09 136.513 218.514 136.076 218.678C134.881 219.127 133.643 217.838 132.846 217.096C132.35 216.633 131.893 216.134 131.47 215.608C131.057 215.667 130.643 215.697 130.232 215.648C129.596 215.572 128.966 215.461 128.346 215.298C123.205 213.948 119.4 209.68 117.348 204.927C114.592 198.546 114.656 191.19 115.801 184.441C117.895 172.109 124.671 160.592 134.902 153.301C137.767 151.259 140.944 149.494 144.395 148.688ZM149.933 150.337C143.324 149.989 137.298 153.398 132.463 157.641C123.66 165.366 118.238 176.678 117.147 188.293C116.568 194.465 117.001 201.117 120.219 206.57C121.468 208.685 123.075 210.529 124.973 212.083C126.762 213.548 128.8 214.392 130.98 214.967C130.881 214.83 130.783 214.692 130.688 214.552C130.181 213.81 129.778 213.021 129.441 212.194C129.411 212.224 129.355 212.23 129.322 212.185C127.946 210.297 128.377 208.045 129.032 205.969C129.72 203.791 130.591 201.673 131.586 199.618C135.21 192.128 140.602 185.604 146.198 179.515C149.057 176.406 152.01 173.386 154.952 170.357C156.421 168.844 157.886 167.327 159.333 165.792C160.053 165.028 160.769 164.26 161.478 163.486C162.179 162.721 162.81 161.91 163.684 161.337C164.38 160.88 165.074 161.753 164.749 162.402C164.249 163.401 163.388 164.193 162.627 165.005L162.548 165.09C161.806 165.891 161.057 166.686 160.303 167.476C159.437 168.386 158.563 169.289 157.687 170.189C158.434 170.103 159.19 170.053 159.933 169.94C160.942 169.787 161.937 169.561 162.927 169.316C163.971 169.058 165.001 168.728 165.995 168.317C166.929 167.932 167.812 167.315 168.84 167.255C169.709 167.203 169.981 168.281 169.499 168.847C168.835 169.628 167.641 169.936 166.67 170.226L166.532 170.267C165.458 170.595 164.359 170.841 163.248 171.006C161.786 171.222 160.097 171.321 158.532 171.1C161.656 172.931 164.53 175.201 167.396 177.415L167.902 177.805C170.702 179.959 173.435 182.282 175.431 185.23C177.295 187.982 178.42 191.186 179.052 194.432C179.363 196.034 179.569 197.653 179.707 199.278C180.221 200.719 180.138 202.432 180.009 204.017L179.963 204.564L179.966 204.725C179.985 205.716 180.384 207.923 179.446 208.671C179.43 208.751 179.415 208.831 179.398 208.911C179.515 208.839 179.63 208.765 179.745 208.688C179.792 208.657 179.837 208.622 179.883 208.588L180.013 208.482C180.018 208.478 180.022 208.474 180.025 208.471C180.317 208.215 180.594 207.949 180.853 207.66C181.331 207.127 181.786 206.45 182.217 205.669C183.163 203.954 183.768 202.089 184.235 200.161C185.09 196.636 185.443 192.85 185.053 189.235C184.999 188.73 184.887 188.098 184.714 187.449C184.302 185.907 183.829 184.382 183.299 182.878C182.239 179.868 180.94 176.948 179.425 174.141C176.348 168.437 172.389 163.165 167.646 158.74C162.842 154.259 156.612 150.689 149.933 150.337ZM140.612 168.559C140.851 168.414 141.096 168.697 140.978 168.925C140.405 170.029 139.443 170.962 138.644 171.908C137.816 172.888 136.994 173.873 136.175 174.86C134.506 176.868 132.877 178.914 131.312 181.006L130.899 181.559C129.523 183.406 128.164 185.282 126.962 187.244C126.333 188.271 125.778 189.332 125.275 190.426C124.796 191.466 124.574 192.723 123.999 193.7C123.962 193.762 123.85 193.757 123.836 193.679C123.648 192.626 124.112 191.358 124.444 190.373C124.839 189.2 125.4 188.084 126.001 187.005C127.255 184.756 128.756 182.647 130.265 180.564C131.798 178.449 133.389 176.377 135.058 174.367C135.842 173.423 136.643 172.498 137.469 171.592L137.78 171.253C138.644 170.314 139.516 169.229 140.612 168.559ZM136.605 165.289C136.997 164.999 137.332 165.592 137.082 165.907C135.588 167.786 133.889 169.474 132.254 171.226C130.685 172.909 129.184 174.655 127.769 176.47C124.882 180.17 122.572 184.23 120.615 188.486C120.578 188.566 120.462 188.506 120.479 188.429C121.516 183.826 123.939 179.645 126.698 175.868L126.803 175.725C129.594 171.926 132.802 168.108 136.605 165.289Z" fill="black"/>
<path fill-rule="evenodd" clip-rule="evenodd" d="M168.43 212.22C167.907 212.902 166.96 213.425 165.899 213.675C164.888 213.914 163.77 213.904 162.806 213.537L162.723 213.504C162.002 213.206 161.31 212.602 161.047 211.972C160.943 211.722 160.907 211.467 160.979 211.23C161.043 211.016 161.194 210.82 161.445 210.651C161.524 210.598 161.63 210.594 161.731 210.612C161.856 210.634 161.979 210.692 162.053 210.771C162.466 211.209 163.064 211.636 163.773 211.628C164.319 211.623 164.766 211.407 165.199 211.164L165.503 210.99C165.796 210.823 166.094 210.666 166.431 210.594C167.034 210.466 167.765 210.7 168.21 211.088C168.405 211.257 168.546 211.455 168.584 211.669C168.616 211.849 168.571 212.036 168.43 212.22ZM165.296 200.279C166.494 201.005 168.318 202.699 167.03 204.5C165.514 206.088 163.331 204.267 162.255 203.444C161.257 202.806 160.137 204.447 161.062 205.192C168.836 210.936 171.99 200.469 165.902 199.425C165.231 199.31 164.982 200.054 165.296 200.279ZM151.788 189.116L152.132 189.021L152.483 188.927L152.72 188.864C154.349 188.439 156.146 188.064 157.762 188.247C158.351 188.314 158.829 188.645 158.913 189.261C158.983 189.781 158.646 190.451 158.073 190.544C156.176 190.85 154.233 190.751 152.327 191.067C151.378 191.224 150.436 191.419 149.49 191.595C148.771 191.729 148.028 191.776 147.303 191.884L147.469 191.907C147.528 191.915 147.513 192.013 147.455 192.009C147.216 191.985 146.977 191.981 146.737 191.998L146.634 192.006C146.478 192.028 146.386 191.842 146.525 191.747C147.409 191.149 148.159 190.501 149.148 190.06C150.004 189.678 150.885 189.364 151.788 189.116ZM166.62 188.198C167.872 186.934 170.536 187.42 172.026 187.998C172.877 188.328 173.686 188.745 174.359 189.37L174.425 189.431L174.526 189.528C174.981 189.972 175.488 190.584 175.416 191.224C175.405 191.322 175.351 191.433 175.241 191.453C174.644 191.558 174.058 191.244 173.507 191.055L173.142 190.93C172.593 190.744 172.042 190.566 171.477 190.437C170.774 190.278 170.057 190.185 169.336 190.195C168.606 190.204 167.823 190.409 167.128 190.12C166.354 189.798 165.952 188.872 166.62 188.198ZM154.245 198.39C153.925 198.716 153.503 198.9 152.963 198.79C152.541 198.705 151.737 198.281 151.095 197.629C150.656 197.183 150.288 196.625 150.188 195.979C150.165 195.829 150.085 195.733 149.981 195.672C149.898 195.624 149.789 195.6 149.67 195.612C149.569 195.623 149.462 195.659 149.379 195.707C149.222 195.799 149.158 195.93 149.144 196.027C149.018 196.968 149.382 197.901 149.95 198.688C150.715 199.75 151.84 200.528 152.501 200.71C153.632 201.022 154.824 200.774 155.703 199.988C156.406 199.36 156.766 198.541 157.1 197.7L157.164 197.537C157.24 197.346 157.314 197.156 157.393 196.969C157.552 196.593 157.501 196.268 157.347 196.015C157.177 195.734 156.863 195.537 156.513 195.476C156.19 195.42 155.844 195.481 155.571 195.678C155.341 195.845 155.155 196.108 155.089 196.498C154.981 197.132 154.732 197.86 154.292 198.34L154.245 198.39ZM173.641 194.721C173.377 194.583 173.171 194.542 172.879 194.63C172.717 194.678 172.557 194.771 172.432 194.896C172.308 195.02 172.219 195.173 172.184 195.344C172.098 195.765 171.867 196.16 171.538 196.417C171.257 196.637 170.902 196.753 170.508 196.687C170.083 196.617 169.678 196.344 169.399 196.024C169.321 195.934 169.258 195.835 169.196 195.734L169.159 195.674C169.022 195.447 168.888 195.237 168.699 195.07C168.627 195.007 168.519 194.963 168.414 194.963C168.371 194.963 168.328 194.97 168.287 194.983C167.864 195.407 167.782 195.728 167.796 196.047C167.81 196.381 167.942 196.72 168.156 197.036C168.657 197.777 169.607 198.384 170.249 198.522C171.127 198.71 172 198.484 172.699 197.994C173.419 197.49 173.952 196.708 174.119 195.827C174.159 195.614 174.142 195.385 174.061 195.186C173.981 194.992 173.843 194.826 173.641 194.721Z" fill="black"/>
<path fill-rule="evenodd" clip-rule="evenodd" d="M174.016 188.511C177.738 188.511 179.862 189.31 180.64 189.372L180.664 189.374C180.987 189.394 181.278 189.421 181.582 189.539C182.703 189.969 182.885 191.142 182.231 191.881C182.186 193.41 182.387 195.197 182.041 196.731C181.615 203.199 178.567 204.29 176.835 204.689C175.965 204.889 174.934 204.968 174.01 204.757C172.434 204.699 170.876 204.206 169.543 203.349C167.686 202.154 166.307 200.317 165.86 198.137C165.648 197.098 165.548 196.016 165.664 194.96L165.681 194.815C165.077 194.526 164.378 194.472 163.657 194.447C163.313 194.434 162.973 194.423 162.644 194.438C162.321 194.474 162.003 194.522 161.684 194.587C161.335 194.692 161.005 194.865 160.701 195.14L160.68 195.541C160.623 196.542 160.491 197.546 160.288 198.528C159.988 199.977 159.506 201.361 158.479 202.389C158.132 202.907 157.702 203.369 157.18 203.77C155.283 205.227 152.706 205.762 150.342 205.56C145.541 205.152 142.766 201.348 142.126 199.723L142.088 199.624C141.626 198.415 141.258 196.847 139.798 196.588L139.488 196.532C138.822 196.407 138.207 196.233 137.817 195.585C137.645 195.302 137.557 194.985 137.536 194.662C137.308 194.68 137.08 194.696 136.853 194.713C135.045 195.094 124.195 195.418 123.328 195.418C123.328 195.418 121.664 196.117 120.961 195.575C120.474 195.199 120.313 194.697 120.582 194.128C120.986 193.272 122.853 192.757 123.682 192.594C123.682 192.594 137.059 192.705 138.022 192.523C138.618 191.91 139.683 191.994 140.574 191.897C141.311 191.372 142.342 191.021 143.156 190.786C143.322 190.723 143.487 190.662 143.647 190.605C145.14 190.074 146.692 189.793 148.268 189.642C149.893 189.488 151.522 189.558 153.138 189.779C153.819 189.871 154.493 189.99 155.163 190.146C156.362 190.304 157.554 190.564 158.753 190.872L158.993 190.934C160.256 191.265 161.554 191.55 162.862 191.326C163.927 191.145 164.95 190.736 165.932 190.294L166.06 190.236C168.218 189.253 171.588 188.511 174.016 188.511ZM155.033 192.107C154.236 191.932 153.896 193.157 154.695 193.332C155.261 193.456 155.74 193.741 156.064 194.223L156.098 194.276C156.533 194.966 157.632 194.329 157.194 193.634C156.702 192.852 155.937 192.305 155.033 192.107ZM178.355 191.347C178.074 191.15 177.65 191.296 177.487 191.575C177.307 191.882 177.425 192.224 177.688 192.425L177.715 192.444C177.956 192.614 178.191 192.918 178.22 193.23L178.223 193.269C178.254 194.084 179.524 194.088 179.492 193.269C179.461 192.467 178.996 191.797 178.355 191.347Z" fill="black"/>
<path d="M86.3659 57.365C86.3659 55.8717 86.6459 54.39 87.2059 52.92C87.7659 51.45 88.5826 50.12 89.6559 48.93C90.7292 47.74 92.0359 46.795 93.5759 46.095C95.1159 45.3717 96.8659 45.01 98.8259 45.01C101.136 45.01 103.154 45.5117 104.881 46.515C106.608 47.5183 107.891 48.825 108.731 50.435L104.321 53.515C103.948 52.6517 103.446 51.975 102.816 51.485C102.186 50.9717 101.509 50.6217 100.786 50.435C100.063 50.225 99.3626 50.12 98.6859 50.12C97.2159 50.12 96.0026 50.4933 95.0459 51.24C94.0892 51.9867 93.3776 52.9317 92.9109 54.075C92.4442 55.2183 92.2109 56.385 92.2109 57.575C92.2109 58.8817 92.4792 60.1183 93.0159 61.285C93.5526 62.4283 94.3109 63.35 95.2909 64.05C96.2709 64.75 97.4259 65.1 98.7559 65.1C99.4559 65.1 100.168 64.995 100.891 64.785C101.614 64.5517 102.279 64.1783 102.886 63.665C103.516 63.1517 103.994 62.4867 104.321 61.67L109.011 64.435C108.521 65.6717 107.716 66.7217 106.596 67.585C105.476 68.425 104.204 69.0783 102.781 69.545C101.381 69.9883 99.9926 70.21 98.6159 70.21C96.8192 70.21 95.1742 69.8483 93.6809 69.125C92.1876 68.3783 90.8926 67.3983 89.7959 66.185C88.6992 64.9483 87.8476 63.5717 87.2409 62.055C86.6576 60.515 86.3659 58.9517 86.3659 57.365ZM111.288 64.505C111.288 63.2917 111.626 62.23 112.303 61.32C112.979 60.41 113.913 59.6983 115.103 59.185C116.293 58.6483 117.658 58.38 119.198 58.38C119.944 58.38 120.679 58.45 121.403 58.59C122.126 58.7067 122.756 58.8817 123.293 59.115V58.31C123.293 56.2333 122.068 55.195 119.618 55.195C118.591 55.195 117.623 55.37 116.713 55.72C115.826 56.07 114.881 56.5717 113.878 57.225L112.198 53.655C114.624 52.0683 117.284 51.275 120.178 51.275C122.931 51.275 125.066 51.94 126.583 53.27C128.123 54.5767 128.893 56.4783 128.893 58.975V63.77C128.893 64.33 128.974 64.7267 129.138 64.96C129.324 65.1933 129.639 65.3217 130.083 65.345V70C129.593 70.0933 129.149 70.1633 128.753 70.21C128.356 70.2567 128.006 70.28 127.703 70.28C126.653 70.28 125.848 70.07 125.288 69.65C124.751 69.23 124.413 68.6583 124.273 67.935L124.168 67.13C123.351 68.18 122.371 68.985 121.228 69.545C120.084 70.0817 118.906 70.35 117.693 70.35C116.479 70.35 115.383 70.0933 114.403 69.58C113.446 69.0667 112.688 68.3783 112.128 67.515C111.568 66.6283 111.288 65.625 111.288 64.505ZM122.418 65.205C123.001 64.7383 123.293 64.26 123.293 63.77V62.125C122.803 61.9383 122.266 61.7983 121.683 61.705C121.123 61.5883 120.609 61.53 120.143 61.53C119.093 61.53 118.229 61.7633 117.553 62.23C116.899 62.6967 116.573 63.2917 116.573 64.015C116.573 64.645 116.818 65.1933 117.308 65.66C117.821 66.1033 118.498 66.325 119.338 66.325C119.898 66.325 120.458 66.22 121.018 66.01C121.578 65.8 122.044 65.5317 122.418 65.205ZM145.605 56.42C144.252 56.4433 143.027 56.665 141.93 57.085C140.834 57.505 140.04 58.135 139.55 58.975V70H133.95V51.625H139.095V55.335C139.725 54.0983 140.542 53.13 141.545 52.43C142.549 51.73 143.599 51.3683 144.695 51.345C145.162 51.345 145.465 51.3567 145.605 51.38V56.42ZM157.612 70.35C155.536 70.35 153.762 69.9183 152.292 69.055C150.822 68.1917 149.691 67.0483 148.897 65.625C148.127 64.2017 147.742 62.6617 147.742 61.005C147.742 59.2317 148.127 57.61 148.897 56.14C149.667 54.67 150.787 53.4917 152.257 52.605C153.727 51.7183 155.512 51.275 157.612 51.275C159.689 51.275 161.462 51.7183 162.932 52.605C164.402 53.4917 165.511 54.6583 166.257 56.105C167.027 57.5517 167.412 59.1033 167.412 60.76C167.412 61.4367 167.366 62.0317 167.272 62.545H153.692C153.786 63.7817 154.229 64.7267 155.022 65.38C155.839 66.01 156.761 66.325 157.787 66.325C158.604 66.325 159.386 66.1267 160.132 65.73C160.879 65.3333 161.392 64.7967 161.672 64.12L166.432 65.45C165.709 66.8967 164.577 68.075 163.037 68.985C161.521 69.895 159.712 70.35 157.612 70.35ZM153.552 59.115H161.532C161.416 57.9483 160.984 57.0267 160.237 56.35C159.514 55.65 158.616 55.3 157.542 55.3C156.469 55.3 155.559 55.65 154.812 56.35C154.089 57.05 153.669 57.9717 153.552 59.115ZM179.735 70.35C177.659 70.35 175.885 69.9183 174.415 69.055C172.945 68.1917 171.814 67.0483 171.02 65.625C170.25 64.2017 169.865 62.6617 169.865 61.005C169.865 59.2317 170.25 57.61 171.02 56.14C171.79 54.67 172.91 53.4917 174.38 52.605C175.85 51.7183 177.635 51.275 179.735 51.275C181.812 51.275 183.585 51.7183 185.055 52.605C186.525 53.4917 187.634 54.6583 188.38 56.105C189.15 57.5517 189.535 59.1033 189.535 60.76C189.535 61.4367 189.489 62.0317 189.395 62.545H175.815C175.909 63.7817 176.352 64.7267 177.145 65.38C177.962 66.01 178.884 66.325 179.91 66.325C180.727 66.325 181.509 66.1267 182.255 65.73C183.002 65.3333 183.515 64.7967 183.795 64.12L188.555 65.45C187.832 66.8967 186.7 68.075 185.16 68.985C183.644 69.895 181.835 70.35 179.735 70.35ZM175.675 59.115H183.655C183.539 57.9483 183.107 57.0267 182.36 56.35C181.637 55.65 180.739 55.3 179.665 55.3C178.592 55.3 177.682 55.65 176.935 56.35C176.212 57.05 175.792 57.9717 175.675 59.115ZM204.728 56.42C203.375 56.4433 202.15 56.665 201.053 57.085C199.957 57.505 199.163 58.135 198.673 58.975V70H193.073V51.625H198.218V55.335C198.848 54.0983 199.665 53.13 200.668 52.43C201.672 51.73 202.722 51.3683 203.818 51.345C204.285 51.345 204.588 51.3567 204.728 51.38V56.42ZM123.65 102.175C121.807 102.175 120.127 101.825 118.61 101.125C117.117 100.402 115.822 99.445 114.725 98.255C113.629 97.065 112.789 95.7233 112.205 94.23C111.622 92.7133 111.33 91.15 111.33 89.54C111.33 87.9067 111.634 86.3433 112.24 84.85C112.87 83.3333 113.734 81.9917 114.83 80.825C115.95 79.635 117.269 78.7017 118.785 78.025C120.302 77.325 121.959 76.975 123.755 76.975C125.599 76.975 127.267 77.3367 128.76 78.06C130.277 78.7833 131.572 79.7517 132.645 80.965C133.742 82.1783 134.582 83.5433 135.165 85.06C135.749 86.5533 136.04 88.0817 136.04 89.645C136.04 91.2083 135.76 92.7133 135.2 94.16C134.64 95.6067 133.847 96.9017 132.82 98.045L136.39 102H131L129.705 100.6C128.842 101.09 127.897 101.475 126.87 101.755C125.844 102.035 124.77 102.175 123.65 102.175ZM123.685 97.065C124.572 97.065 125.389 96.9133 126.135 96.61L122.145 92.2H127.535L129.11 93.915C129.46 93.285 129.729 92.5967 129.915 91.85C130.102 91.08 130.195 90.31 130.195 89.54C130.195 88.2567 129.939 87.055 129.425 85.935C128.935 84.7917 128.2 83.87 127.22 83.17C126.264 82.4467 125.085 82.085 123.685 82.085C122.239 82.085 121.025 82.4583 120.045 83.205C119.089 83.9283 118.365 84.8733 117.875 86.04C117.409 87.1833 117.175 88.3733 117.175 89.61C117.175 90.8933 117.42 92.1067 117.91 93.25C118.4 94.37 119.135 95.2917 120.115 96.015C121.095 96.715 122.285 97.065 123.685 97.065ZM139.693 95.385V83.625H145.293V94.16C145.293 96.47 146.145 97.625 147.848 97.625C148.595 97.625 149.318 97.4267 150.018 97.03C150.718 96.61 151.336 95.9217 151.873 94.965V83.625H157.473V95.77C157.473 96.33 157.555 96.7267 157.718 96.96C157.905 97.1933 158.22 97.3217 158.663 97.345V102C158.126 102.093 157.671 102.163 157.298 102.21C156.925 102.257 156.586 102.28 156.283 102.28C154.276 102.28 153.133 101.498 152.853 99.935L152.748 98.815C151.908 100.028 150.858 100.927 149.598 101.51C148.361 102.07 146.973 102.35 145.433 102.35C143.566 102.35 142.143 101.755 141.163 100.565C140.183 99.375 139.693 97.6483 139.693 95.385ZM162.811 81.525V76.45H168.411V81.525H162.811ZM162.811 102V83.625H168.411V102H162.811ZM172.16 98.64L181.505 87.51H172.65V83.625H187.385V86.985L178.145 98.115H187.63V102H172.16V98.64Z" fill="black"/>
<path d="M130.101 269V260.48H131.757V267.548H136.101V269H130.101ZM139.895 260.48L142.199 267.032L144.479 260.48H146.219L142.991 269H141.395L138.155 260.48H139.895ZM150.128 269V260.48H151.784V267.548H156.128V269H150.128ZM168.032 269.084C167.352 269.084 166.764 268.956 166.268 268.7C165.772 268.436 165.404 268.076 165.164 267.62L166.028 266.528C166.148 266.8 166.372 267.048 166.7 267.272C167.036 267.496 167.46 267.608 167.972 267.608C168.46 267.608 168.848 267.504 169.136 267.296C169.432 267.088 169.58 266.8 169.58 266.432C169.58 266.032 169.396 265.728 169.028 265.52C168.66 265.304 168.128 265.196 167.432 265.196H167.036V263.996H167.456C168.032 263.996 168.492 263.9 168.836 263.708C169.188 263.508 169.364 263.22 169.364 262.844C169.364 262.508 169.232 262.244 168.968 262.052C168.712 261.86 168.404 261.764 168.044 261.764C167.636 261.764 167.28 261.86 166.976 262.052C166.672 262.236 166.44 262.476 166.28 262.772L165.236 261.608C165.412 261.352 165.652 261.136 165.956 260.96C166.26 260.776 166.6 260.632 166.976 260.528C167.36 260.424 167.756 260.372 168.164 260.372C168.732 260.372 169.232 260.472 169.664 260.672C170.104 260.864 170.448 261.128 170.696 261.464C170.952 261.8 171.08 262.184 171.08 262.616C171.08 263.104 170.932 263.52 170.636 263.864C170.348 264.2 169.96 264.424 169.472 264.536C170 264.624 170.428 264.872 170.756 265.28C171.084 265.68 171.248 266.152 171.248 266.696C171.248 267.2 171.104 267.632 170.816 267.992C170.536 268.344 170.152 268.616 169.664 268.808C169.184 268.992 168.64 269.084 168.032 269.084Z" fill="black"/>
</g>
<defs>
<radialGradient id="paint0_radial_397370:41112" cx="0" cy="0" r="1" gradientUnits="userSpaceOnUse" gradientTransform="translate(150 186) rotate(90) scale(186)">
<stop stop-color="#2AB3F1" stop-opacity="0"/>
<stop offset="1" stop-color="#3EC3FF"/>
</radialGradient>
<radialGradient id="paint1_radial_397370:41112" cx="0" cy="0" r="1" gradientUnits="userSpaceOnUse" gradientTransform="translate(150.5 186.5) rotate(90) scale(123.5)">
<stop stop-color="#10B3FC" stop-opacity="0"/>
<stop offset="1" stop-color="#10B3FC"/>
</radialGradient>
<clipPath id="clip0_397370:41112">
<rect width="300" height="300" rx="8" fill="white"/>
</clipPath>
</defs>
</svg>
