<svg width="300" height="300" viewBox="0 0 300 300" fill="none" xmlns="http://www.w3.org/2000/svg">
<g clip-path="url(#clip0_397370:41185)">
<rect width="300" height="300" fill="#FF9898"/>
<circle cx="150" cy="186" r="186" fill="url(#paint0_radial_397370:41185)"/>
<circle cx="150.5" cy="186.5" r="123.5" fill="url(#paint1_radial_397370:41185)"/>
<circle cx="62.5" cy="186.5" r="46.5" fill="#E6E6E6" stroke="black" stroke-width="2"/>
<path fill-rule="evenodd" clip-rule="evenodd" d="M84.0035 185.508C83.5396 181.806 82.0822 177.874 80.5495 174.422C77.1031 167.124 69.2132 166.119 62.1401 164.615C55.1603 163.598 47.7693 162.681 40.8948 164.708C37.0301 165.655 35.5207 170.259 36.1306 173.891C36.4787 176.155 37.5089 178.297 38.3875 180.395C40.1336 184.703 41.2415 189.316 41.2434 193.98C41.1235 197.028 40.6933 200.508 44.1959 201.799C47.5289 203.456 47.8105 207.95 51.9839 210.499C53.6715 213.918 58.2684 214.219 61.5769 215.012C63.668 215.412 65.7828 215.707 67.9033 215.897C74.0434 216.684 78.9553 214.905 82.1695 209.434C84.3203 206.105 85.922 202.261 85.5263 198.226C85.1323 193.978 84.4757 189.751 84.0035 185.508Z" fill="#D08B5B"/>
<path fill-rule="evenodd" clip-rule="evenodd" d="M62.1931 155.745C62.5436 155.348 63.0835 155.484 63.4112 155.798C63.6246 155.861 63.8313 155.954 64.0266 156.078C64.4678 156.021 64.9303 156.021 65.363 156.037C65.468 155.978 65.5805 155.926 65.703 155.881C66.5779 155.561 67.3527 155.724 67.9917 156.152C68.2996 155.861 68.6879 155.678 69.1844 155.706C69.6274 155.73 69.9431 155.939 70.2137 156.213C70.4836 155.824 70.9198 155.547 71.4632 155.508C72.2228 155.454 72.9529 155.759 73.5581 156.23C73.9107 155.826 74.3914 155.593 74.9271 155.591C75.2796 155.527 75.6515 155.552 75.9876 155.654C76.4755 155.801 76.904 156.077 77.2452 156.436C77.785 155.919 78.4458 155.547 79.2077 155.601C80.1939 155.672 81.0113 156.397 81.3913 157.29C82.0587 157.557 82.6749 157.939 83.1898 158.482C83.2173 158.511 83.2435 158.541 83.271 158.571C83.5485 158.673 83.8097 158.819 84.0397 159.01C84.7684 159.616 84.9309 160.494 84.6896 161.353C84.7234 161.491 84.7521 161.631 84.7784 161.771C85.4608 161.875 86.0807 162.269 86.4332 162.91C86.9156 163.79 86.8206 164.95 86.2982 165.79C86.0736 166.151 85.7885 166.456 85.4683 166.722C85.8304 167.544 85.6567 168.526 85.0728 169.191C84.9306 169.421 84.756 169.628 84.5595 169.815C84.7764 170.665 84.3907 171.543 83.6208 171.997L83.5549 172.162C83.5438 172.189 83.5326 172.217 83.521 172.244C83.5125 172.279 83.502 172.312 83.4916 172.347C83.4733 172.648 83.3739 172.944 83.1767 173.223C82.7729 173.795 82.2724 174.168 82.007 174.836L81.9804 174.906C81.8663 175.222 81.4979 175.444 81.1839 175.347C82.9271 178.927 83.841 182.911 84.4684 186.815C84.7813 188.762 85.0227 190.717 85.2185 192.679L85.4106 194.632C85.5795 196.369 85.7298 198.111 85.7308 199.853C85.7333 203.795 84.6059 207.586 82.1862 210.722C79.8977 213.687 76.6593 215.836 73.0009 216.682C69.2239 217.555 64.7931 217.211 61.406 215.213C60.4073 214.626 61.2822 213.213 62.2984 213.686C64.2219 214.581 66.1767 215.246 68.309 215.395C70.3875 215.541 72.471 215.281 74.442 214.601C77.7029 213.475 80.4776 211.116 82.2612 208.179C83.1398 206.731 83.776 205.16 84.1147 203.5C84.5363 201.431 84.4728 199.292 84.3179 197.196L84.3072 197.054C84.001 193.016 83.5973 188.953 82.9448 184.956C82.3681 181.421 81.4814 177.958 80.3301 174.571C79.8792 174.174 79.3747 173.846 78.8349 173.596C74.882 173.431 70.9219 173.479 66.9741 173.752C63.6072 173.986 60.2567 174.382 56.9314 174.96L56.5753 175.022C55.8391 175.153 55.0217 175.228 54.328 175.525C53.7331 175.78 53.4918 176.27 53.3419 176.872C52.9644 178.396 52.9069 180.064 52.8432 181.626C52.7807 183.153 52.9219 184.694 52.7994 186.216C52.6957 187.49 52.3695 188.793 51.4258 189.715C50.9321 190.197 50.3247 190.461 49.7548 190.827C49.3861 191.064 49.2298 191.307 49.2773 191.745C49.3798 192.702 50.151 193.908 49.2848 194.728C49.1323 194.872 48.8686 194.891 48.7186 194.728C48.3612 194.34 47.8675 194.043 47.4438 193.73C47.2663 193.6 47.4138 193.347 47.615 193.437C47.88 193.556 48.1499 193.696 48.4262 193.819C47.8162 193.316 46.9488 193.07 46.2264 192.923C45.8627 192.851 45.4802 192.83 45.1015 192.864C44.8216 192.997 44.5353 193.121 44.2491 193.242C43.8854 193.395 43.518 193.533 43.148 193.665C41.8644 194.711 41.252 196.412 41.5194 198.076C41.6657 198.995 42.0894 199.994 42.888 200.53C43.8342 201.165 45.1015 200.892 46.1239 201.364C47.0813 201.805 47.6637 202.696 48.0999 203.619L48.2818 204.003C48.6867 204.853 49.1028 205.681 49.656 206.455C50.296 207.351 51.0796 208.156 51.9345 208.847C52.3493 209.182 52.7913 209.483 53.2482 209.757L53.3731 209.831C53.8356 210.102 54.1668 210.361 54.198 210.935C54.208 211.135 54.0818 211.317 53.9193 211.421C53.2194 211.865 52.5232 211.31 51.9408 210.922C51.3121 210.505 50.7109 210.035 50.1547 209.522C49.0973 208.55 48.1824 207.395 47.4788 206.141C46.9426 205.186 46.6376 203.842 45.7902 203.102C45.2728 202.651 44.5416 202.647 43.8954 202.565C43.2942 202.487 42.7255 202.362 42.1906 202.066C40.0146 200.857 39.3997 197.931 39.9159 195.67C40.0033 195.288 40.1258 194.917 40.2771 194.56C39.4672 194.695 38.5573 193.857 38.886 193.012C38.911 192.948 38.9397 192.889 38.9672 192.827C38.4335 192.476 38.0123 191.944 37.8123 191.247C37.7098 190.887 37.6949 190.523 37.7486 190.172C37.4899 189.999 37.2761 189.76 37.1387 189.466C36.7087 189.267 36.3275 188.97 36.1 188.545C35.7851 187.958 35.8251 187.418 36.065 186.932C36.0313 186.871 35.9988 186.809 35.9675 186.745C35.0864 186.186 34.4715 185.223 34.5415 184.156C34.5639 183.802 34.6514 183.483 34.7864 183.196C34.7752 183.16 34.7639 183.122 34.7539 183.086C34.0165 182.711 33.4066 182.095 33.1891 181.272C32.9716 180.445 33.2278 179.62 33.7403 178.985C32.9904 178.436 32.5392 177.67 32.8129 176.511C32.9241 176.04 33.1479 175.611 33.4503 175.25C33.4491 175.239 33.4466 175.227 33.4441 175.216L33.3739 175.162C32.4481 174.431 31.9159 173.5 32.4842 172.355C32.7392 171.84 33.1029 171.481 33.5303 171.245L33.5516 171.177V171.177C33.2453 170.521 33.1416 169.792 33.3528 169.026C33.5253 168.395 33.934 167.892 34.4565 167.559C34.4215 167.276 34.4265 166.975 34.4827 166.648C34.5764 166.097 34.8502 165.616 35.2501 165.275C35.2651 165.202 35.2839 165.131 35.3051 165.06C35.4401 164.624 35.6926 164.15 35.985 163.798C36.2263 163.507 36.4962 163.401 36.8262 163.39C36.8062 163.121 36.8199 162.848 36.8749 162.572C37.0437 161.72 37.5861 160.918 38.3898 160.555C38.7197 160.406 39.0672 160.362 39.4022 160.398C39.6871 159.798 40.2433 159.364 40.927 159.27C41.1932 159.232 41.4407 159.235 41.6682 159.269C41.7969 159.208 41.9306 159.155 42.0706 159.106C42.1631 159.073 42.2568 159.043 42.3506 159.014C42.6668 158.621 43.083 158.307 43.5692 158.119C44.1304 157.9 44.7016 157.922 45.2078 158.106L45.369 158.072V158.072C45.6215 157.635 46.0239 157.296 46.6426 157.142C47.345 156.968 48.0662 157.211 48.6186 157.652C48.6211 157.652 48.6236 157.652 48.6274 157.651C48.9161 157.005 49.4098 156.555 50.2385 156.586C50.7547 156.606 51.2209 156.862 51.5808 157.227C51.7808 157.202 51.9808 157.18 52.182 157.157C52.3945 156.908 52.6307 156.676 52.8919 156.467C53.3194 156.125 53.8756 156.152 54.1905 156.635C54.2593 156.74 54.323 156.846 54.3867 156.952L54.6755 156.932V156.932C55.0154 156.473 55.4791 156.163 56.1141 156.139C56.6965 156.115 57.1114 156.4 57.4277 156.798C57.6851 156.792 57.9439 156.787 58.2026 156.783C58.5038 156.435 58.8588 156.127 59.2637 155.872C59.5737 155.677 60.0311 155.744 60.2823 156.004C60.4521 156.18 60.6101 156.365 60.7569 156.556C61.1355 156.131 61.6468 155.852 62.1931 155.745ZM43.7979 195.439C44.3816 195.106 45.1665 195.466 45.7315 195.749C46.4201 196.092 47.1038 196.611 47.525 197.261C48.0987 198.146 46.7501 198.861 46.1464 198.067C45.7752 197.579 45.479 197.086 45.029 196.659C44.6178 196.266 44.0217 196.004 43.7854 195.486C43.7767 195.469 43.7792 195.449 43.7979 195.439ZM44.208 173.957L44.2189 173.926C44.3849 173.472 43.6604 173.276 43.4958 173.726C43.2464 174.409 43.534 175.151 44.2081 175.446C44.395 175.528 44.6085 175.499 44.7211 175.311C44.8157 175.153 44.7718 174.879 44.5866 174.798C44.2073 174.633 44.0802 174.34 44.208 173.957V173.957ZM37.9672 172.687C38.3298 172.367 37.7977 171.838 37.4369 172.157C37.1002 172.454 36.8504 172.858 36.9153 173.322C36.9814 173.796 37.3383 174.13 37.7288 174.366C38.1428 174.616 38.5201 173.968 38.1073 173.718L38.0609 173.69C37.8876 173.582 37.6848 173.434 37.6555 173.223C37.6244 172.998 37.8147 172.822 37.9672 172.687ZM40.0254 167.041L40.0511 167.022C40.4405 166.744 40.0665 166.093 39.6725 166.374C39.3113 166.632 39.0216 166.967 38.9911 167.429C38.9615 167.878 39.1899 168.267 39.4887 168.583C39.821 168.935 40.3507 168.404 40.019 168.053C39.6958 167.711 39.6326 167.338 40.0254 167.041V167.041Z" fill="black"/>
<path fill-rule="evenodd" clip-rule="evenodd" d="M73.8245 204.919C74.0167 204.586 74.4591 204.277 74.8639 204.324C76.6774 204.536 76.6742 206.731 75.974 208.012C75.3531 209.147 74.0681 209.814 72.7821 209.717C71.431 209.614 70.2798 208.822 69.7732 207.56C69.4381 206.726 69.2833 205.186 70.1746 204.625C70.1912 204.614 70.2185 204.617 70.2316 204.632C70.659 205.128 70.6757 205.873 71.0499 206.426C71.3978 206.939 71.9384 207.364 72.5717 207.429C73.0446 207.478 73.5231 207.308 73.7081 206.884C73.8081 206.655 73.7967 206.53 73.7591 206.373L73.7249 206.236C73.6065 205.755 73.5533 205.39 73.8245 204.919ZM74.3093 195.296C75.2551 195.87 76.6963 197.208 75.6788 198.63C74.4811 199.884 72.7567 198.446 71.907 197.796C71.1191 197.292 70.2338 198.588 70.9648 199.177C77.1051 203.713 79.5969 195.446 74.7877 194.621C74.2582 194.53 74.0615 195.118 74.3093 195.296ZM64.3215 191.362C64.902 190.492 66.2272 190.62 66.547 191.652C66.7202 192.211 66.481 192.713 66.4934 193.271C66.5037 193.742 66.4728 194.267 66.328 194.724C65.9979 195.765 65.0597 196.5 63.9499 196.47C62.8437 196.439 61.8694 195.741 61.4061 194.756C60.9411 193.769 61.0396 192.746 61.379 191.742C61.3953 191.693 61.4587 191.67 61.4969 191.711C61.8981 192.136 62.1918 192.585 62.4957 193.062L62.8072 193.55C63.0452 193.918 63.3911 194.388 63.8355 194.358L63.9022 194.352C64.0257 194.341 64.0068 194.366 64.1021 194.198C64.1462 194.12 64.1381 193.975 64.1594 193.884L64.1668 193.853V193.853L64.1628 193.836C64.1534 193.792 64.1441 193.708 64.1365 193.563L64.1349 193.53C64.1027 192.851 63.9102 191.977 64.3215 191.362ZM79.0374 191.94C78.9333 190.829 80.4994 190.582 81.0201 191.404C81.2917 191.833 81.3707 192.372 81.4308 192.883L81.4589 193.125C81.5205 193.649 81.5449 194.195 81.3168 194.684C80.9576 195.454 80.1764 195.862 79.3337 195.797C78.529 195.735 77.7948 195.27 77.4078 194.563C77.0627 193.932 76.7196 192.701 77.1387 192.043C77.164 192.003 77.2146 191.998 77.2493 192.029C77.6454 192.379 77.7099 193.019 77.9453 193.477C78.1882 193.948 78.5566 194.408 79.1148 194.479C79.6489 194.548 79.8529 194.257 79.7166 193.748C79.5409 193.092 79.1035 192.646 79.0374 191.94ZM64.7445 184.752L65.0006 184.654C65.8782 184.323 67.0829 183.941 67.7964 184.653C68.2365 185.092 68.3203 185.739 68.0062 186.275C67.6255 186.924 66.9428 186.94 66.2835 187.036C65.5336 187.144 64.771 187.351 64.0728 187.646C63.2864 187.978 62.5565 188.392 61.8415 188.854C61.1619 189.294 60.4846 190.012 59.6711 190.147C59.638 190.153 59.6003 190.139 59.5916 190.102C59.4069 189.308 59.9203 188.527 60.3784 187.908C60.9328 187.158 61.6045 186.543 62.3553 185.991C63.0798 185.459 63.9077 185.074 64.7445 184.752ZM80.6848 187.574L80.763 187.56C81.2952 187.472 81.7774 187.492 82.1784 187.913C82.4845 188.234 82.6025 188.65 82.4566 189.074C82.322 189.465 82.0209 189.863 81.5839 189.945C80.1085 190.222 78.4744 190.176 76.9917 189.966C76.3133 189.87 75.6288 189.753 74.9681 189.568L74.6641 189.48C74.1124 189.322 73.4809 189.158 73.0802 188.753C72.9362 188.608 73.0192 188.4 73.1916 188.332C73.8907 188.059 74.849 188.204 75.5945 188.183C76.4617 188.158 77.3304 188.093 78.1935 188.004C79.0369 187.916 79.853 187.726 80.6848 187.574Z" fill="black"/>
<path fill-rule="evenodd" clip-rule="evenodd" d="M63.1508 208.149C64.1649 205.778 66.3781 204.036 68.9263 203.399C70.7976 202.932 72.7614 202.947 74.6689 203.132C75.6684 203.228 76.7403 203.307 77.6822 203.678C78.4865 203.994 79.142 204.592 79.6348 205.295C80.2214 206.127 80.6205 207.079 80.9006 208.055C80.9404 208.194 80.9778 208.333 81.0127 208.474C80.8909 209.21 80.6322 209.837 79.9488 210.3C79.2818 210.752 78.486 210.937 77.6927 211.003C77.6149 210.966 77.5398 210.927 77.4708 210.888C76.2346 210.182 75.3645 208.513 73.8042 208.739C72.4118 208.94 71.4952 210.689 70.6671 211.714C68.0091 212.023 65.3531 211.226 63.1904 209.709C63.0805 209.19 63.0741 208.667 63.1508 208.149M82.8193 206.351C82.6067 205.755 82.3389 205.178 82.0214 204.635C80.9719 202.838 79.3609 201.407 77.4483 200.588C72.924 198.655 67.0701 200.018 63.4164 203.188C62.1683 204.272 60.9063 205.865 60.5247 207.579C60.4107 207.601 60.3032 207.66 60.2146 207.744C57.5748 206.085 54.8564 204.489 52.7292 202.19C51.1844 200.519 50.1099 198.542 49.452 196.37C49.3982 196.191 49.1093 196.217 49.118 196.415C49.1205 196.461 49.123 196.508 49.1255 196.554C49.098 196.469 48.9679 196.513 48.9579 196.595C48.6039 199.234 48.1611 202.032 48.5689 204.685C48.8128 206.268 49.5333 207.427 50.4964 208.678C51.5284 210.02 52.6967 211.267 53.8912 212.463C54.6492 213.223 55.441 214.099 56.3691 214.656C57.4486 215.303 58.6732 215.795 59.8252 216.294C60.9973 216.803 62.1868 217.273 63.3989 217.681C65.8217 218.5 68.3259 219.065 70.8739 219.313C72.914 219.511 75.2456 219.726 77.2007 218.96C78.6992 218.373 79.9087 217.312 80.8681 216.036C81.9126 214.646 82.7382 213.062 83.1947 211.392C83.669 209.658 82.9192 206.63 82.8193 206.351" fill="black"/>
<circle cx="238.5" cy="186.5" r="46.5" fill="#E6E6E6" stroke="black" stroke-width="2"/>
<path fill-rule="evenodd" clip-rule="evenodd" d="M268.675 187.43C267.478 180.903 264.527 174.692 259.994 169.832C259.471 169.255 259.001 168.345 258.203 168.199C257.402 166.567 255.875 165.413 254.654 164.094C251.989 161.437 249.44 158.468 246.003 156.79C230.062 150.233 214.722 168.929 211.467 182.989C208.234 194.297 211.765 209.895 225.777 210.352C227.759 212.975 230.495 214.789 233.304 216.41C237.141 218.867 241.327 219.865 245.766 218.497C250.187 219.653 254.77 215.945 257.427 212.694C259.527 210.175 260.966 207.101 262.887 204.494C265.155 204.438 267.114 202.517 267.418 200.266C269.536 196.374 269.44 191.709 268.675 187.43V187.43Z" fill="#D08B5B"/>
<path fill-rule="evenodd" clip-rule="evenodd" d="M211.467 182.989C214.722 168.929 230.062 150.233 246.003 156.79C249.44 158.468 251.989 161.437 254.654 164.094C255.875 165.413 257.402 166.567 258.203 168.199C259.001 168.345 259.471 169.255 259.994 169.832C264.527 174.692 267.478 180.903 268.675 187.43C269.44 191.709 269.536 196.374 267.418 200.266C267.114 202.517 265.155 204.438 262.887 204.494C262.471 205.058 262.078 205.644 261.696 206.242L261.606 206.272L261.595 205.611C261.404 194.889 260.786 188.417 259.743 186.194C258.689 183.949 254.152 179.838 246.133 173.862L245.889 173.68L244.006 172.125L242.546 173.775C237.05 179.975 232.748 184.759 229.639 188.128C226.295 191.753 223.465 197.267 221.15 204.672L221.08 204.897L225.17 210.323C211.664 209.44 208.281 194.132 211.467 182.989Z" fill="#9DDADB"/>
<path fill-rule="evenodd" clip-rule="evenodd" d="M233.953 154.568C236.854 153.891 239.895 154.031 242.768 154.776C248.463 156.253 253.148 160.092 257.033 164.373C260.823 168.549 263.948 173.336 266.23 178.492L266.346 178.755C267.96 182.43 269.363 186.251 269.423 190.299C269.475 193.782 269.123 197.411 267.998 200.725C266.995 203.676 265.151 206.65 261.979 207.358C260.15 212.008 256.571 216.035 252.063 218.19C249.267 219.527 246.196 220.123 243.105 219.827C239.951 219.524 237.005 218.009 234.54 216.076C234.472 216.023 234.559 215.92 234.629 215.96C237.597 217.671 241.107 218.282 244.506 218.169C250.092 217.985 255.214 214.969 258.156 210.229C258.889 209.05 259.541 207.805 260.062 206.511C260.031 206.405 260.013 206.297 260.013 206.191C260.013 205.745 260.225 205.405 260.541 205.185C260.687 204.727 260.817 204.264 260.925 203.796C261.17 202.737 261.307 201.661 261.389 200.578C261.456 199.697 261.419 198.763 261.508 197.86C261.476 197.136 261.431 196.413 261.365 195.692C261.154 193.368 260.728 191.049 259.906 188.859C259.073 186.64 257.758 184.683 256.1 182.999C252.542 179.386 248.112 176.749 244.652 173.038L244.471 172.842L244.458 172.838C244.029 173.278 243.6 173.718 243.17 174.157L241.204 176.162C237.193 180.259 233.213 184.395 229.724 188.954C227.714 191.579 225.909 194.331 224.353 197.249C223.616 198.631 222.948 200.047 222.345 201.492L222.107 202.068C221.824 202.756 221.519 203.526 221.349 204.304C221.854 204.805 222.223 205.541 222.632 206.109C223.095 206.754 223.629 207.368 224.179 207.941C224.735 208.521 225.345 209.077 225.993 209.553L226.071 209.609C226.814 210.136 227.667 210.501 227.778 211.505C227.827 211.941 227.437 212.292 227.076 212.427C226.088 212.799 225.065 211.732 224.406 211.119C223.996 210.737 223.618 210.324 223.268 209.889C222.927 209.938 222.585 209.962 222.245 209.922C221.719 209.86 221.198 209.768 220.686 209.633C216.436 208.517 213.291 204.989 211.594 201.06C209.316 195.784 209.369 189.703 210.316 184.125C212.046 173.93 217.648 164.41 226.105 158.382C228.474 156.694 231.101 155.235 233.953 154.568ZM238.531 155.932C233.068 155.644 228.086 158.462 224.09 161.97C216.812 168.356 212.33 177.707 211.428 187.309C210.949 192.411 211.308 197.91 213.968 202.418C215 204.167 216.329 205.69 217.898 206.975C219.376 208.186 221.062 208.884 222.863 209.359C222.781 209.246 222.7 209.132 222.622 209.017C222.203 208.403 221.87 207.751 221.591 207.067C221.566 207.092 221.52 207.097 221.493 207.059C220.355 205.499 220.711 203.637 221.253 201.921C221.822 200.121 222.542 198.37 223.364 196.671C226.361 190.479 230.818 185.086 235.444 180.053C237.807 177.482 240.248 174.986 242.68 172.482C243.895 171.231 245.106 169.977 246.302 168.708C246.897 168.077 247.489 167.442 248.075 166.802C248.655 166.169 249.177 165.499 249.898 165.025C250.474 164.647 251.048 165.369 250.779 165.906C250.366 166.732 249.654 167.386 249.025 168.058L248.96 168.127C248.346 168.79 247.727 169.447 247.104 170.1C246.388 170.852 245.665 171.599 244.941 172.343C245.559 172.272 246.184 172.23 246.798 172.137C247.632 172.011 248.455 171.824 249.273 171.621C250.136 171.408 250.987 171.135 251.809 170.796C252.581 170.477 253.311 169.967 254.161 169.917C254.88 169.875 255.104 170.765 254.706 171.234C254.157 171.88 253.17 172.134 252.367 172.373L252.253 172.408C251.365 172.679 250.457 172.882 249.538 173.018C248.33 173.197 246.933 173.279 245.64 173.096C248.222 174.61 250.598 176.486 252.967 178.316L253.385 178.639C255.7 180.42 257.959 182.34 259.61 184.777C261.15 187.052 262.081 189.7 262.603 192.384C262.86 193.708 263.03 195.046 263.144 196.39C263.569 197.581 263.501 198.997 263.394 200.307L263.356 200.76L263.359 200.892C263.375 201.712 263.704 203.536 262.928 204.155C262.915 204.221 262.903 204.287 262.889 204.353C262.986 204.294 263.081 204.232 263.176 204.169C263.214 204.143 263.252 204.114 263.29 204.086L263.397 203.998C263.401 203.995 263.405 203.992 263.408 203.989C263.648 203.778 263.878 203.558 264.092 203.319C264.487 202.878 264.863 202.318 265.219 201.673C266.002 200.255 266.501 198.714 266.888 197.12C267.595 194.206 267.886 191.076 267.564 188.088C267.519 187.67 267.426 187.147 267.283 186.611C266.943 185.337 266.552 184.076 266.114 182.832C265.238 180.344 264.163 177.931 262.911 175.609C260.367 170.895 257.095 166.536 253.174 162.878C249.203 159.174 244.053 156.223 238.531 155.932ZM230.826 170.996C231.023 170.875 231.226 171.109 231.128 171.298C230.655 172.211 229.86 172.981 229.199 173.764C228.514 174.574 227.835 175.388 227.158 176.204C225.778 177.865 224.431 179.556 223.138 181.285L222.796 181.742C221.659 183.269 220.536 184.82 219.542 186.442C219.022 187.29 218.563 188.168 218.147 189.072C217.751 189.932 217.568 190.971 217.092 191.779C217.062 191.83 216.969 191.826 216.958 191.761C216.802 190.891 217.186 189.843 217.461 189.028C217.787 188.059 218.251 187.136 218.748 186.244C219.784 184.385 221.025 182.642 222.273 180.92C223.539 179.171 224.855 177.458 226.234 175.797C226.883 175.017 227.545 174.252 228.228 173.502L228.485 173.222C229.199 172.447 229.92 171.549 230.826 170.996ZM227.514 168.292C227.838 168.052 228.114 168.543 227.907 168.803C226.673 170.356 225.268 171.752 223.917 173.2C222.619 174.592 221.379 176.035 220.209 177.535C217.823 180.594 215.912 183.95 214.295 187.468C214.264 187.534 214.168 187.485 214.183 187.421C215.039 183.616 217.043 180.16 219.324 177.038L219.411 176.919C221.718 173.779 224.37 170.623 227.514 168.292Z" fill="black"/>
<path fill-rule="evenodd" clip-rule="evenodd" d="M253.822 207.088C253.39 207.653 252.607 208.085 251.73 208.292C250.894 208.489 249.97 208.481 249.173 208.178L249.104 208.15C248.508 207.903 247.936 207.404 247.719 206.884C247.633 206.677 247.603 206.467 247.662 206.27C247.716 206.094 247.84 205.931 248.048 205.791C248.113 205.748 248.201 205.744 248.284 205.759C248.387 205.777 248.489 205.826 248.551 205.891C248.892 206.253 249.386 206.606 249.972 206.6C250.424 206.595 250.793 206.417 251.151 206.216L251.402 206.072C251.645 205.934 251.891 205.804 252.169 205.745C252.668 205.638 253.272 205.832 253.641 206.153C253.801 206.292 253.918 206.456 253.95 206.633C253.976 206.781 253.939 206.936 253.822 207.088ZM251.231 197.217C252.221 197.818 253.729 199.218 252.665 200.707C251.411 202.019 249.607 200.514 248.717 199.834C247.893 199.306 246.966 200.663 247.731 201.279C254.157 206.027 256.765 197.374 251.732 196.511C251.178 196.416 250.972 197.032 251.231 197.217ZM240.065 187.989L240.349 187.911L240.639 187.833L240.835 187.781C242.182 187.429 243.667 187.12 245.003 187.271C245.49 187.326 245.885 187.6 245.954 188.109C246.012 188.539 245.734 189.093 245.261 189.17C243.692 189.423 242.086 189.341 240.51 189.602C239.726 189.732 238.947 189.893 238.165 190.038C237.571 190.149 236.956 190.188 236.357 190.277L236.495 190.296C236.543 190.303 236.531 190.384 236.483 190.381C236.286 190.361 236.088 190.358 235.889 190.372L235.804 190.379C235.675 190.397 235.599 190.243 235.714 190.165C236.445 189.67 237.064 189.134 237.882 188.769C238.59 188.454 239.318 188.194 240.065 187.989ZM252.326 187.23C253.361 186.186 255.563 186.587 256.795 187.065C257.498 187.338 258.167 187.683 258.724 188.199L258.778 188.25L258.862 188.33C259.237 188.697 259.657 189.203 259.597 189.732C259.588 189.813 259.544 189.905 259.452 189.921C258.959 190.008 258.474 189.749 258.019 189.592L257.717 189.489C257.264 189.335 256.808 189.188 256.341 189.081C255.76 188.95 255.167 188.873 254.571 188.881C253.968 188.889 253.32 189.059 252.746 188.82C252.106 188.553 251.774 187.787 252.326 187.23ZM242.096 195.656C241.831 195.925 241.482 196.077 241.036 195.987C240.687 195.916 240.022 195.566 239.492 195.027C239.129 194.658 238.825 194.197 238.742 193.663C238.723 193.539 238.657 193.459 238.571 193.409C238.502 193.37 238.412 193.35 238.314 193.36C238.231 193.368 238.142 193.398 238.074 193.438C237.943 193.514 237.89 193.622 237.879 193.703C237.775 194.48 238.076 195.252 238.545 195.902C239.178 196.78 240.108 197.423 240.654 197.574C241.589 197.832 242.575 197.626 243.301 196.977C243.882 196.458 244.18 195.781 244.456 195.085L244.509 194.95C244.571 194.792 244.633 194.636 244.698 194.481C244.829 194.17 244.787 193.901 244.66 193.692C244.52 193.46 244.26 193.297 243.971 193.247C243.704 193.201 243.418 193.251 243.192 193.414C243.002 193.552 242.848 193.77 242.793 194.092C242.704 194.616 242.498 195.217 242.135 195.614L242.096 195.656ZM258.13 192.622C257.912 192.509 257.741 192.475 257.5 192.547C257.366 192.587 257.234 192.664 257.13 192.767C257.028 192.87 256.954 192.997 256.925 193.138C256.855 193.486 256.664 193.812 256.392 194.025C256.159 194.206 255.865 194.303 255.54 194.248C255.188 194.19 254.854 193.965 254.623 193.7C254.559 193.626 254.506 193.543 254.455 193.46L254.425 193.41C254.311 193.223 254.201 193.049 254.044 192.912C253.985 192.859 253.895 192.823 253.809 192.823C253.774 192.823 253.738 192.829 253.704 192.839C253.354 193.19 253.287 193.455 253.298 193.719C253.31 193.995 253.419 194.275 253.596 194.536C254.009 195.149 254.795 195.651 255.326 195.765C256.052 195.92 256.773 195.733 257.351 195.329C257.946 194.912 258.387 194.265 258.525 193.537C258.558 193.361 258.544 193.172 258.477 193.007C258.411 192.847 258.297 192.709 258.13 192.622Z" fill="black"/>
<path fill-rule="evenodd" clip-rule="evenodd" d="M258.44 187.489C261.517 187.489 263.272 188.149 263.916 188.201L263.935 188.202C264.203 188.219 264.443 188.242 264.695 188.339C265.621 188.695 265.772 189.664 265.231 190.275C265.193 191.539 265.36 193.016 265.074 194.285C264.721 199.631 262.202 200.533 260.77 200.863C260.051 201.028 259.199 201.094 258.435 200.919C257.132 200.871 255.844 200.464 254.742 199.755C253.207 198.767 252.067 197.249 251.697 195.447C251.522 194.588 251.44 193.693 251.535 192.82L251.55 192.7C251.051 192.462 250.473 192.417 249.877 192.396C249.592 192.386 249.311 192.377 249.039 192.389C248.772 192.418 248.509 192.458 248.245 192.512C247.957 192.599 247.684 192.742 247.433 192.969L247.416 193.3C247.368 194.128 247.259 194.958 247.092 195.77C246.844 196.968 246.445 198.112 245.596 198.962C245.309 199.39 244.953 199.772 244.522 200.103C242.954 201.308 240.824 201.75 238.869 201.583C234.901 201.245 232.607 198.101 232.078 196.757L232.046 196.676C231.664 195.677 231.36 194.38 230.153 194.166L229.897 194.12C229.346 194.017 228.838 193.873 228.515 193.337C228.373 193.103 228.301 192.841 228.283 192.574C228.094 192.589 227.906 192.602 227.719 192.616C226.223 192.931 217.254 193.199 216.538 193.199C216.538 193.199 215.162 193.777 214.581 193.329C214.178 193.018 214.046 192.603 214.267 192.132C214.602 191.425 216.145 190.999 216.83 190.864C216.83 190.864 227.889 190.956 228.685 190.805C229.177 190.299 230.058 190.368 230.794 190.288C231.403 189.854 232.256 189.564 232.929 189.37C233.066 189.318 233.202 189.267 233.334 189.22C234.569 188.781 235.852 188.549 237.155 188.424C238.498 188.297 239.845 188.355 241.181 188.537C241.743 188.613 242.301 188.712 242.854 188.841C243.846 188.971 244.831 189.186 245.823 189.441L246.021 189.492C247.065 189.765 248.138 190.002 249.219 189.817C250.099 189.667 250.946 189.329 251.757 188.963L251.863 188.915C253.647 188.102 256.433 187.489 258.44 187.489ZM242.747 190.461C242.089 190.317 241.808 191.33 242.468 191.475C242.936 191.577 243.332 191.813 243.6 192.211L243.628 192.255C243.987 192.825 244.896 192.299 244.534 191.724C244.127 191.078 243.494 190.625 242.747 190.461ZM262.027 189.833C261.795 189.67 261.444 189.791 261.309 190.022C261.161 190.276 261.258 190.558 261.475 190.725L261.497 190.741C261.697 190.881 261.891 191.132 261.915 191.39L261.917 191.422C261.943 192.096 262.993 192.099 262.967 191.422C262.941 190.759 262.557 190.206 262.027 189.833Z" fill="black"/>
<circle cx="150.5" cy="186.5" r="55.5" fill="#E6E6E6" stroke="black" stroke-width="2"/>
<path fill-rule="evenodd" clip-rule="evenodd" d="M161.692 224.241C158.196 224.232 154.996 223.551 151.96 222.059C148.294 220.863 144.291 220.211 141.316 217.563C139.867 217.87 138.382 216.383 137.18 215.497C135.22 222.71 125.019 221.51 120.709 216.848C118.072 214.622 117.011 209.113 121.59 207.655C114.088 202.559 111.379 193.756 111.894 184.231C112.437 168.252 124.72 151.64 140.507 148.869C143.621 148.321 146.819 148.379 149.92 149.031C151.652 149.406 153.326 150.135 155.179 150.102C162.367 148.965 170.261 149.096 176.198 153.696C185.687 160.046 187.006 172.749 185.897 182.963L185.942 183.058C185.39 186.808 184.474 190.241 182.74 192.502C182.605 195.751 181.476 202.688 181.392 205.431C181.595 218.192 174.348 223.856 161.692 224.241" fill="#D08B5B"/>
<path fill-rule="evenodd" clip-rule="evenodd" d="M137.135 151.268C143.609 149.077 147.695 150.209 153.738 151.419L154.11 151.493L154.697 151.608C160.76 151.201 165.983 149.87 171.837 152.774C184.018 157.896 186.272 172.036 185.433 183.843L185.383 184.063C184.987 185.785 184.429 187.565 183.255 188.935C181.286 179.24 174.955 172.84 167.169 166.729L166.891 166.392C165.924 165.226 164.87 164.015 163.595 163.193C163.637 162.816 163.657 162.439 163.651 162.066C163.641 161.552 162.907 161.119 162.524 161.566L162.451 161.657C161.951 162.264 159.325 165.181 157.996 166.678L157.83 166.865L157.429 167.321L156.752 168.131C149.445 176.867 141.738 185.638 130.841 189.831C128.229 188.179 125.062 189.633 123.43 191.96C118.793 197.366 124.168 207.558 131.295 204.793C131.728 208.532 133.598 212.746 136.136 215.566C133.356 219.446 128.907 220.146 124.745 217.95C120.683 216.135 118.054 212.325 120.548 208.11C120.6 208.08 120.654 208.051 120.709 208.022C122.621 209.298 124.849 210.134 127.153 210.303L127.328 210.314C128.767 210.382 128.744 208.116 127.283 208C117.624 206.772 113.335 195.739 113.325 187.087C112.915 171.857 122.408 156.187 137.135 151.268Z" fill="#C93305"/>
<path fill-rule="evenodd" clip-rule="evenodd" d="M119.938 207.479C97.2139 187.398 120.527 142.208 150.094 148.204C153.086 149.206 156.125 149.554 159.224 148.811C174.841 146.372 187.617 159.625 186.956 174.958C187.066 177.58 187.045 180.205 186.762 182.817C186.438 186.25 185.552 189.922 183.578 192.776C183.556 194.693 182.427 201.885 182.246 205.268L182.211 205.974C182.031 209.451 181.643 212.998 180.115 216.168C175.415 224.685 163.308 226.513 154.627 224.032L154.266 223.913C152.654 223.377 150.825 222.663 149.802 221.312C149.26 220.598 150.156 219.687 150.901 219.881C151.86 220.131 152.655 220.716 153.55 221.131C159.39 223.712 166.296 222.848 172.06 220.437L172.235 220.364C182.558 216.173 179.73 201.264 181.089 192.763C181.398 181.969 172.396 174.618 165.614 167.479L165.411 167.252C164.714 166.48 163.978 165.726 163.009 165.561C162.743 166.367 162.091 167.052 161.486 167.639L160.117 169.119C158.748 170.596 157.376 172.068 155.984 173.527C149.227 180.391 142.343 189.711 131.928 190.412C132.568 190.992 133.13 191.654 133.801 192.199C134.084 192.483 133.795 192.958 133.416 192.861C132.708 192.68 132.255 192.008 131.79 191.484C126.165 189.122 121.546 197.849 126.311 201.462C128.079 203.334 133.246 201.909 132.051 204.218C133.355 208.307 135.362 212.42 138.757 215.156C139.753 215.908 141.31 216.289 141.972 217.397C142.131 217.665 142.05 218.1 141.75 218.242C140.308 218.915 138.759 217.784 137.651 216.932C131.802 228.367 110.354 215.733 119.938 207.479ZM154.696 151.605L154.11 151.49C147.861 150.254 143.741 149.03 137.134 151.265C122.408 156.184 112.914 171.854 113.325 187.084C113.334 195.736 117.623 206.769 127.283 207.997C128.744 208.113 128.766 210.38 127.327 210.312L127.283 210.309C124.902 210.16 122.597 209.297 120.632 207.968C117.996 212.238 120.638 216.112 124.745 217.947C128.906 220.143 133.355 219.443 136.136 215.563C133.598 212.743 131.727 208.529 131.295 204.791C124.167 207.556 118.792 197.363 123.429 191.957C125.061 189.631 128.229 188.176 130.84 189.828C142.075 185.505 149.919 176.318 157.429 167.318L157.829 166.862C159.144 165.377 162.168 162.022 162.503 161.588C162.88 161.101 163.641 161.54 163.65 162.063C163.657 162.436 163.636 162.814 163.594 163.19C164.993 164.092 166.126 165.462 167.169 166.726C174.954 172.837 181.285 179.237 183.255 188.932C184.478 187.504 185.033 185.63 185.433 183.84C186.272 172.033 184.017 157.894 171.836 152.772C165.982 149.867 160.759 151.198 154.696 151.605ZM127.073 195.949C126.566 195.497 129.917 195.442 130.233 195.797L130.305 195.821C131.505 196.243 133.702 197.603 132.623 199.015C131.085 200.465 130.013 196.161 127.073 195.949Z" fill="black"/>
<path fill-rule="evenodd" clip-rule="evenodd" d="M164.72 210.482C163.582 210.019 162.567 209.247 161.825 208.26C161.567 207.916 161.5 207.554 161.554 207.223C161.615 206.85 161.836 206.512 162.137 206.286C162.439 206.058 162.817 205.946 163.183 206.004C163.5 206.053 163.816 206.227 164.067 206.587L164.119 206.659C164.56 207.254 165.135 207.743 165.79 208.058C166.422 208.362 167.128 208.504 167.859 208.421C169.25 208.264 170.21 207.513 171.23 206.493C171.356 206.364 171.482 206.231 171.609 206.096C171.69 205.974 171.801 205.895 171.925 205.854C172.062 205.808 172.217 205.811 172.36 205.86C172.497 205.908 172.62 205.999 172.702 206.119C172.78 206.234 172.824 206.375 172.81 206.538C172.717 207.595 172.163 208.539 171.376 209.28C170.502 210.102 169.344 210.672 168.254 210.871C167.052 211.091 165.828 210.934 164.72 210.482ZM168.82 194.173C170.098 194.948 172.046 196.756 170.671 198.678C169.052 200.373 166.722 198.429 165.574 197.551C164.509 196.87 163.313 198.621 164.301 199.417C172.598 205.547 175.965 194.375 169.467 193.261C168.751 193.138 168.486 193.933 168.82 194.173ZM153.952 187.041C154.093 185.292 156.762 184.895 157.028 186.626C157.266 188.176 156.986 189.601 156.286 190.997C155.617 192.33 153.937 191.708 153.809 190.494C153.639 188.866 153.864 188.129 153.952 187.041ZM174.272 186.267C174.644 185.78 175.182 185.448 175.826 185.636C177.837 186.222 177.244 189.072 176.538 190.46C176.154 191.213 174.913 191.404 174.353 190.741C173.439 189.659 173.001 187.499 174.163 186.433C174.194 186.378 174.229 186.323 174.272 186.267ZM156.258 179.387L156.575 179.331C157.558 179.162 158.781 178.999 159.476 179.787C159.845 180.206 159.972 180.983 159.476 181.383C158.604 182.087 157.64 181.815 156.595 181.874C155.734 181.923 154.906 182.066 154.077 182.302C152.257 182.821 150.774 183.769 149.22 184.809C149.016 184.946 148.808 184.686 148.905 184.495C149.802 182.742 151.541 181.301 153.283 180.423C154.212 179.954 155.229 179.565 156.258 179.387ZM172.439 178.601L172.682 178.651C175.328 179.203 178.767 180.306 180.02 182.9C180.068 183.267 180.018 183.346 179.976 183.397L179.963 183.414C179.929 183.458 179.902 183.518 179.743 183.568C179.698 183.558 179.654 183.547 179.609 183.535C179.034 183.385 178.58 183.178 178.14 182.963L177.663 182.728C177.109 182.457 176.551 182.196 175.959 182.004C174.696 181.593 173.397 181.303 172.078 181.148C171.792 181.115 171.516 181.019 171.299 180.854C171.093 180.697 170.935 180.48 170.864 180.192C170.771 179.819 170.797 179.536 170.998 179.199C171.149 178.947 171.365 178.771 171.612 178.671C171.865 178.568 172.153 178.544 172.439 178.601Z" fill="black"/>
<path d="M50.5402 70V45.15H61.1452C62.3352 45.15 63.4202 45.395 64.4002 45.885C65.4035 46.3517 66.2668 46.9933 66.9902 47.81C67.7135 48.6033 68.2735 49.5017 68.6702 50.505C69.0668 51.5083 69.2652 52.5233 69.2652 53.55C69.2652 54.9967 68.9268 56.3617 68.2502 57.645C67.5968 58.9283 66.6752 59.9783 65.4852 60.795C64.2952 61.5883 62.9068 61.985 61.3202 61.985H56.2802V70H50.5402ZM56.2802 56.98H60.9702C61.6468 56.98 62.2302 56.6883 62.7202 56.105C63.2102 55.5217 63.4552 54.67 63.4552 53.55C63.4552 52.4067 63.1635 51.5667 62.5802 51.03C62.0202 50.47 61.4135 50.19 60.7602 50.19H56.2802V56.98ZM81.3008 70.35C79.2242 70.35 77.4508 69.9183 75.9808 69.055C74.5108 68.1917 73.3792 67.0483 72.5858 65.625C71.8158 64.2017 71.4308 62.6617 71.4308 61.005C71.4308 59.2317 71.8158 57.61 72.5858 56.14C73.3558 54.67 74.4758 53.4917 75.9458 52.605C77.4158 51.7183 79.2008 51.275 81.3008 51.275C83.3775 51.275 85.1508 51.7183 86.6208 52.605C88.0908 53.4917 89.1992 54.6583 89.9458 56.105C90.7158 57.5517 91.1008 59.1033 91.1008 60.76C91.1008 61.4367 91.0542 62.0317 90.9608 62.545H77.3808C77.4742 63.7817 77.9175 64.7267 78.7108 65.38C79.5275 66.01 80.4492 66.325 81.4758 66.325C82.2925 66.325 83.0742 66.1267 83.8208 65.73C84.5675 65.3333 85.0808 64.7967 85.3608 64.12L90.1208 65.45C89.3975 66.8967 88.2658 68.075 86.7258 68.985C85.2092 69.895 83.4008 70.35 81.3008 70.35ZM77.2408 59.115H85.2208C85.1042 57.9483 84.6725 57.0267 83.9258 56.35C83.2025 55.65 82.3042 55.3 81.2308 55.3C80.1575 55.3 79.2475 55.65 78.5008 56.35C77.7775 57.05 77.3575 57.9717 77.2408 59.115ZM106.294 56.42C104.941 56.4433 103.716 56.665 102.619 57.085C101.522 57.505 100.729 58.135 100.239 58.975V70H94.6389V51.625H99.7839V55.335C100.414 54.0983 101.231 53.13 102.234 52.43C103.237 51.73 104.287 51.3683 105.384 51.345C105.851 51.345 106.154 51.3567 106.294 51.38V56.42ZM116.688 70.35C115.101 70.35 113.561 70.0933 112.068 69.58C110.598 69.0433 109.349 68.285 108.323 67.305L110.248 63.77C112.511 65.4267 114.599 66.255 116.513 66.255C117.236 66.255 117.796 66.1383 118.193 65.905C118.589 65.6717 118.788 65.31 118.788 64.82C118.788 64.3067 118.519 63.945 117.983 63.735C117.446 63.5017 116.653 63.2333 115.603 62.93C114.203 62.4633 113.036 62.0083 112.103 61.565C111.169 61.1217 110.469 60.585 110.003 59.955C109.536 59.325 109.303 58.485 109.303 57.435C109.303 55.5917 109.991 54.11 111.368 52.99C112.744 51.8467 114.611 51.275 116.968 51.275C118.228 51.275 119.453 51.4733 120.643 51.87C121.856 52.2667 122.988 52.9317 124.038 53.865L121.868 57.365C120.818 56.6417 119.884 56.1167 119.068 55.79C118.251 55.4633 117.458 55.3 116.688 55.3C116.081 55.3 115.568 55.4167 115.148 55.65C114.728 55.86 114.518 56.2333 114.518 56.77C114.518 57.2833 114.751 57.6683 115.218 57.925C115.684 58.1583 116.408 58.415 117.388 58.695C118.881 59.1383 120.129 59.5933 121.133 60.06C122.159 60.5033 122.918 61.0633 123.408 61.74C123.921 62.3933 124.178 63.2683 124.178 64.365C124.178 66.2317 123.501 67.7017 122.148 68.775C120.794 69.825 118.974 70.35 116.688 70.35ZM136.8 70.35C134.7 70.35 132.915 69.9067 131.445 69.02C129.998 68.1333 128.89 66.9667 128.12 65.52C127.35 64.0733 126.965 62.51 126.965 60.83C126.965 59.1267 127.35 57.5517 128.12 56.105C128.89 54.6583 130.01 53.4917 131.48 52.605C132.95 51.7183 134.723 51.275 136.8 51.275C138.877 51.275 140.65 51.7183 142.12 52.605C143.59 53.4917 144.71 54.6583 145.48 56.105C146.25 57.5517 146.635 59.1267 146.635 60.83C146.635 62.51 146.25 64.0733 145.48 65.52C144.71 66.9667 143.59 68.1333 142.12 69.02C140.65 69.9067 138.877 70.35 136.8 70.35ZM132.705 60.83C132.705 62.2533 133.09 63.4083 133.86 64.295C134.653 65.1817 135.633 65.625 136.8 65.625C137.943 65.625 138.9 65.1817 139.67 64.295C140.463 63.4083 140.86 62.2533 140.86 60.83C140.86 59.4067 140.463 58.2517 139.67 57.365C138.9 56.4783 137.943 56.035 136.8 56.035C135.633 56.035 134.653 56.4783 133.86 57.365C133.09 58.2517 132.705 59.4067 132.705 60.83ZM168.122 70H162.522V59.675C162.522 58.4617 162.289 57.5867 161.822 57.05C161.379 56.49 160.784 56.21 160.037 56.21C159.267 56.21 158.486 56.5133 157.692 57.12C156.899 57.7267 156.339 58.5083 156.012 59.465V70H150.412V51.625H155.452V54.705C156.129 53.6317 157.086 52.7917 158.322 52.185C159.559 51.5783 160.982 51.275 162.592 51.275C163.782 51.275 164.739 51.4967 165.462 51.94C166.209 52.36 166.769 52.92 167.142 53.62C167.539 54.2967 167.796 55.0433 167.912 55.86C168.052 56.6767 168.122 57.47 168.122 58.24V70ZM171.688 64.505C171.688 63.2917 172.026 62.23 172.703 61.32C173.38 60.41 174.313 59.6983 175.503 59.185C176.693 58.6483 178.058 58.38 179.598 58.38C180.345 58.38 181.08 58.45 181.803 58.59C182.526 58.7067 183.156 58.8817 183.693 59.115V58.31C183.693 56.2333 182.468 55.195 180.018 55.195C178.991 55.195 178.023 55.37 177.113 55.72C176.226 56.07 175.281 56.5717 174.278 57.225L172.598 53.655C175.025 52.0683 177.685 51.275 180.578 51.275C183.331 51.275 185.466 51.94 186.983 53.27C188.523 54.5767 189.293 56.4783 189.293 58.975V63.77C189.293 64.33 189.375 64.7267 189.538 64.96C189.725 65.1933 190.04 65.3217 190.483 65.345V70C189.993 70.0933 189.55 70.1633 189.153 70.21C188.756 70.2567 188.406 70.28 188.103 70.28C187.053 70.28 186.248 70.07 185.688 69.65C185.151 69.23 184.813 68.6583 184.673 67.935L184.568 67.13C183.751 68.18 182.771 68.985 181.628 69.545C180.485 70.0817 179.306 70.35 178.093 70.35C176.88 70.35 175.783 70.0933 174.803 69.58C173.846 69.0667 173.088 68.3783 172.528 67.515C171.968 66.6283 171.688 65.625 171.688 64.505ZM182.818 65.205C183.401 64.7383 183.693 64.26 183.693 63.77V62.125C183.203 61.9383 182.666 61.7983 182.083 61.705C181.523 61.5883 181.01 61.53 180.543 61.53C179.493 61.53 178.63 61.7633 177.953 62.23C177.3 62.6967 176.973 63.2917 176.973 64.015C176.973 64.645 177.218 65.1933 177.708 65.66C178.221 66.1033 178.898 66.325 179.738 66.325C180.298 66.325 180.858 66.22 181.418 66.01C181.978 65.8 182.445 65.5317 182.818 65.205ZM194.281 44.45H199.881V63.455C199.881 64.225 200.021 64.7733 200.301 65.1C200.581 65.4267 200.977 65.59 201.491 65.59C201.841 65.59 202.191 65.5433 202.541 65.45C202.914 65.3333 203.241 65.205 203.521 65.065L204.256 69.265C203.556 69.5917 202.751 69.8483 201.841 70.035C200.931 70.2217 200.079 70.315 199.286 70.315C197.699 70.315 196.462 69.895 195.576 69.055C194.712 68.215 194.281 67.0017 194.281 65.415V44.45ZM207.074 49.525V44.45H212.674V49.525H207.074ZM207.074 70V51.625H212.674V70H207.074ZM229.408 69.02C228.638 69.3467 227.751 69.65 226.748 69.93C225.768 70.21 224.776 70.35 223.773 70.35C222.84 70.35 221.988 70.1983 221.218 69.895C220.448 69.5683 219.83 69.0433 219.363 68.32C218.896 67.5967 218.663 66.64 218.663 65.45V55.86H216.318V51.625H218.663V45.78H224.263V51.625H228.008V55.86H224.263V63.525C224.263 64.1317 224.415 64.575 224.718 64.855C225.021 65.1117 225.406 65.24 225.873 65.24C226.293 65.24 226.725 65.17 227.168 65.03C227.611 64.89 227.996 64.7383 228.323 64.575L229.408 69.02ZM232.593 72.765C233.55 73.0683 234.355 73.22 235.008 73.22C235.662 73.22 236.175 72.9867 236.548 72.52C236.945 72.0533 237.295 71.2133 237.598 70L230.598 51.625H236.373L240.643 64.26L244.283 51.625H249.568L242.568 72.975C242.078 74.4917 241.192 75.7167 239.908 76.65C238.648 77.6067 237.167 78.085 235.463 78.085C234.483 78.085 233.527 77.91 232.593 77.56V72.765ZM123.15 102.175C121.307 102.175 119.627 101.825 118.11 101.125C116.617 100.402 115.322 99.445 114.225 98.255C113.129 97.065 112.289 95.7233 111.705 94.23C111.122 92.7133 110.83 91.15 110.83 89.54C110.83 87.9067 111.134 86.3433 111.74 84.85C112.37 83.3333 113.234 81.9917 114.33 80.825C115.45 79.635 116.769 78.7017 118.285 78.025C119.802 77.325 121.459 76.975 123.255 76.975C125.099 76.975 126.767 77.3367 128.26 78.06C129.777 78.7833 131.072 79.7517 132.145 80.965C133.242 82.1783 134.082 83.5433 134.665 85.06C135.249 86.5533 135.54 88.0817 135.54 89.645C135.54 91.2083 135.26 92.7133 134.7 94.16C134.14 95.6067 133.347 96.9017 132.32 98.045L135.89 102H130.5L129.205 100.6C128.342 101.09 127.397 101.475 126.37 101.755C125.344 102.035 124.27 102.175 123.15 102.175ZM123.185 97.065C124.072 97.065 124.889 96.9133 125.635 96.61L121.645 92.2H127.035L128.61 93.915C128.96 93.285 129.229 92.5967 129.415 91.85C129.602 91.08 129.695 90.31 129.695 89.54C129.695 88.2567 129.439 87.055 128.925 85.935C128.435 84.7917 127.7 83.87 126.72 83.17C125.764 82.4467 124.585 82.085 123.185 82.085C121.739 82.085 120.525 82.4583 119.545 83.205C118.589 83.9283 117.865 84.8733 117.375 86.04C116.909 87.1833 116.675 88.3733 116.675 89.61C116.675 90.8933 116.92 92.1067 117.41 93.25C117.9 94.37 118.635 95.2917 119.615 96.015C120.595 96.715 121.785 97.065 123.185 97.065ZM139.193 95.385V83.625H144.793V94.16C144.793 96.47 145.645 97.625 147.348 97.625C148.095 97.625 148.818 97.4267 149.518 97.03C150.218 96.61 150.836 95.9217 151.373 94.965V83.625H156.973V95.77C156.973 96.33 157.055 96.7267 157.218 96.96C157.405 97.1933 157.72 97.3217 158.163 97.345V102C157.626 102.093 157.171 102.163 156.798 102.21C156.425 102.257 156.086 102.28 155.783 102.28C153.776 102.28 152.633 101.498 152.353 99.935L152.248 98.815C151.408 100.028 150.358 100.927 149.098 101.51C147.861 102.07 146.473 102.35 144.933 102.35C143.066 102.35 141.643 101.755 140.663 100.565C139.683 99.375 139.193 97.6483 139.193 95.385ZM162.311 81.525V76.45H167.911V81.525H162.311ZM162.311 102V83.625H167.911V102H162.311ZM171.66 98.64L181.005 87.51H172.15V83.625H186.885V86.985L177.645 98.115H187.13V102H171.66V98.64Z" fill="black"/>
<path d="M129.96 269V260.48H131.616V267.548H135.96V269H129.96ZM139.754 260.48L142.058 267.032L144.338 260.48H146.078L142.85 269H141.254L138.014 260.48H139.754ZM149.988 269V260.48H151.644V267.548H155.988V269H149.988ZM165.119 269C165.119 268.352 165.175 267.804 165.287 267.356C165.407 266.9 165.595 266.512 165.851 266.192C166.115 265.864 166.463 265.568 166.895 265.304C167.175 265.136 167.463 264.98 167.759 264.836C168.063 264.684 168.343 264.528 168.599 264.368C168.863 264.2 169.075 264.008 169.235 263.792C169.403 263.568 169.487 263.3 169.487 262.988C169.487 262.636 169.375 262.356 169.151 262.148C168.935 261.932 168.627 261.824 168.227 261.824C167.923 261.824 167.639 261.88 167.375 261.992C167.119 262.096 166.887 262.228 166.679 262.388C166.479 262.54 166.307 262.692 166.163 262.844L165.155 261.788C165.299 261.62 165.519 261.428 165.815 261.212C166.119 260.988 166.491 260.792 166.931 260.624C167.371 260.456 167.871 260.372 168.431 260.372C169.055 260.372 169.579 260.484 170.003 260.708C170.427 260.924 170.747 261.224 170.963 261.608C171.187 261.984 171.299 262.42 171.299 262.916C171.299 263.396 171.195 263.804 170.987 264.14C170.787 264.468 170.527 264.748 170.207 264.98C169.887 265.212 169.555 265.428 169.211 265.628C168.659 265.924 168.239 266.176 167.951 266.384C167.671 266.592 167.471 266.788 167.351 266.972C167.231 267.148 167.135 267.34 167.063 267.548H171.311V269H165.119Z" fill="black"/>
</g>
<defs>
<radialGradient id="paint0_radial_397370:41185" cx="0" cy="0" r="1" gradientUnits="userSpaceOnUse" gradientTransform="translate(150 186) rotate(90) scale(186)">
<stop stop-color="#FF7F7F" stop-opacity="0"/>
<stop offset="1" stop-color="#FF7777"/>
</radialGradient>
<radialGradient id="paint1_radial_397370:41185" cx="0" cy="0" r="1" gradientUnits="userSpaceOnUse" gradientTransform="translate(150.5 186.5) rotate(90) scale(123.5)">
<stop stop-color="#EC5F5F" stop-opacity="0"/>
<stop offset="1" stop-color="#EF5B5B"/>
</radialGradient>
<clipPath id="clip0_397370:41185">
<rect width="300" height="300" rx="8" fill="white"/>
</clipPath>
</defs>
</svg>
