<svg width="300" height="300" viewBox="0 0 300 300" fill="none" xmlns="http://www.w3.org/2000/svg">
<rect width="300" height="300" rx="8" fill="white"/>
<rect y="150" width="300" height="150" fill="url(#paint0_linear_397368:40527)"/>
<path d="M124.55 46.165H121.145V55H119.09V46.165H115.685V44.35H124.55V46.165ZM137.827 44.35V55H135.772V50.455H130.942V55H128.872V44.35H130.942V48.655H135.772V44.35H137.827ZM143.049 55V44.35H145.119V55H143.049ZM156.686 47.14C156.596 47.04 156.406 46.91 156.116 46.75C155.826 46.58 155.476 46.43 155.066 46.3C154.666 46.16 154.251 46.09 153.821 46.09C152.691 46.09 152.126 46.49 152.126 47.29C152.126 47.58 152.216 47.81 152.396 47.98C152.576 48.15 152.846 48.295 153.206 48.415C153.566 48.535 154.016 48.665 154.556 48.805C155.256 48.985 155.861 49.195 156.371 49.435C156.891 49.675 157.286 49.995 157.556 50.395C157.836 50.785 157.976 51.305 157.976 51.955C157.976 52.715 157.791 53.33 157.421 53.8C157.061 54.26 156.581 54.595 155.981 54.805C155.381 55.015 154.731 55.12 154.031 55.12C153.231 55.12 152.436 55 151.646 54.76C150.866 54.51 150.171 54.17 149.561 53.74L150.476 51.955C150.566 52.045 150.726 52.165 150.956 52.315C151.186 52.455 151.466 52.6 151.796 52.75C152.126 52.89 152.486 53.01 152.876 53.11C153.266 53.21 153.661 53.26 154.061 53.26C155.201 53.26 155.771 52.895 155.771 52.165C155.771 51.855 155.656 51.605 155.426 51.415C155.196 51.225 154.871 51.065 154.451 50.935C154.041 50.805 153.561 50.66 153.011 50.5C152.331 50.31 151.766 50.1 151.316 49.87C150.876 49.63 150.546 49.335 150.326 48.985C150.106 48.625 149.996 48.17 149.996 47.62C149.996 46.89 150.166 46.28 150.506 45.79C150.856 45.29 151.326 44.915 151.916 44.665C152.506 44.405 153.161 44.275 153.881 44.275C154.621 44.275 155.311 44.395 155.951 44.635C156.591 44.875 157.141 45.15 157.601 45.46L156.686 47.14ZM169.144 55V44.35H171.214V55H169.144ZM182.781 47.14C182.691 47.04 182.501 46.91 182.211 46.75C181.921 46.58 181.571 46.43 181.161 46.3C180.761 46.16 180.346 46.09 179.916 46.09C178.786 46.09 178.221 46.49 178.221 47.29C178.221 47.58 178.311 47.81 178.491 47.98C178.671 48.15 178.941 48.295 179.301 48.415C179.661 48.535 180.111 48.665 180.651 48.805C181.351 48.985 181.956 49.195 182.466 49.435C182.986 49.675 183.381 49.995 183.651 50.395C183.931 50.785 184.071 51.305 184.071 51.955C184.071 52.715 183.886 53.33 183.516 53.8C183.156 54.26 182.676 54.595 182.076 54.805C181.476 55.015 180.826 55.12 180.126 55.12C179.326 55.12 178.531 55 177.741 54.76C176.961 54.51 176.266 54.17 175.656 53.74L176.571 51.955C176.661 52.045 176.821 52.165 177.051 52.315C177.281 52.455 177.561 52.6 177.891 52.75C178.221 52.89 178.581 53.01 178.971 53.11C179.361 53.21 179.756 53.26 180.156 53.26C181.296 53.26 181.866 52.895 181.866 52.165C181.866 51.855 181.751 51.605 181.521 51.415C181.291 51.225 180.966 51.065 180.546 50.935C180.136 50.805 179.656 50.66 179.106 50.5C178.426 50.31 177.861 50.1 177.411 49.87C176.971 49.63 176.641 49.335 176.421 48.985C176.201 48.625 176.091 48.17 176.091 47.62C176.091 46.89 176.261 46.28 176.601 45.79C176.951 45.29 177.421 44.915 178.011 44.665C178.601 44.405 179.256 44.275 179.976 44.275C180.716 44.275 181.406 44.395 182.046 44.635C182.686 44.875 183.236 45.15 183.696 45.46L182.781 47.14Z" fill="black"/>
<path d="M84.2956 88.656C84.509 88.8053 84.957 89.0187 85.6396 89.296C86.3436 89.552 87.165 89.68 88.1036 89.68C89.1063 89.68 89.8636 89.456 90.3756 89.008C90.8876 88.56 91.229 87.8453 91.3996 86.864C91.5703 85.8827 91.6556 84.6027 91.6556 83.024V71.28H96.9036V82.832C96.9036 84.56 96.8076 86.128 96.6156 87.536C96.4236 88.944 96.029 90.16 95.4316 91.184C94.8556 92.1867 93.981 92.9653 92.8076 93.52C91.6343 94.0747 90.0663 94.352 88.1036 94.352C86.1623 94.352 84.509 93.8827 83.1436 92.944L84.2956 88.656ZM109.339 94.32C107.44 94.32 105.819 93.9253 104.475 93.136C103.131 92.3467 102.096 91.3013 101.371 90C100.667 88.6987 100.315 87.2907 100.315 85.776C100.315 84.1547 100.667 82.672 101.371 81.328C102.075 79.984 103.099 78.9067 104.443 78.096C105.787 77.2853 107.419 76.88 109.339 76.88C111.238 76.88 112.859 77.2853 114.203 78.096C115.547 78.9067 116.56 79.9733 117.243 81.296C117.947 82.6187 118.299 84.0373 118.299 85.552C118.299 86.1707 118.256 86.7147 118.171 87.184H105.755C105.84 88.3147 106.246 89.1787 106.971 89.776C107.718 90.352 108.56 90.64 109.499 90.64C110.246 90.64 110.96 90.4587 111.643 90.096C112.326 89.7333 112.795 89.2427 113.051 88.624L117.403 89.84C116.742 91.1627 115.707 92.24 114.299 93.072C112.912 93.904 111.259 94.32 109.339 94.32ZM105.627 84.048H112.923C112.816 82.9813 112.422 82.1387 111.739 81.52C111.078 80.88 110.256 80.56 109.275 80.56C108.294 80.56 107.462 80.88 106.779 81.52C106.118 82.16 105.734 83.0027 105.627 84.048ZM137.811 94H132.691V84.56C132.691 83.4507 132.478 82.6507 132.051 82.16C131.646 81.648 131.102 81.392 130.419 81.392C129.715 81.392 129.001 81.6693 128.275 82.224C127.55 82.7787 127.038 83.4933 126.739 84.368V94H121.619V77.2H126.227V80.016C126.846 79.0347 127.721 78.2667 128.851 77.712C129.982 77.1573 131.283 76.88 132.755 76.88C133.843 76.88 134.718 77.0827 135.379 77.488C136.062 77.872 136.574 78.384 136.915 79.024C137.278 79.6427 137.513 80.3253 137.619 81.072C137.747 81.8187 137.811 82.544 137.811 83.248V94ZM158.405 94H153.285V84.56C153.285 83.4507 153.072 82.6507 152.645 82.16C152.24 81.648 151.696 81.392 151.013 81.392C150.309 81.392 149.594 81.6693 148.869 82.224C148.144 82.7787 147.632 83.4933 147.333 84.368V94H142.213V77.2H146.821V80.016C147.44 79.0347 148.314 78.2667 149.445 77.712C150.576 77.1573 151.877 76.88 153.349 76.88C154.437 76.88 155.312 77.0827 155.973 77.488C156.656 77.872 157.168 78.384 157.509 79.024C157.872 79.6427 158.106 80.3253 158.213 81.072C158.341 81.8187 158.405 82.544 158.405 83.248V94ZM162.807 75.28V70.64H167.927V75.28H162.807ZM162.807 94V77.2H167.927V94H162.807ZM173.52 94V82.448H171.376V78.576H173.52V77.2C173.52 75.1093 174.053 73.4453 175.12 72.208C176.187 70.9493 177.605 70.32 179.376 70.32C180.784 70.32 182.245 70.6507 183.76 71.312L182.832 75.152C182.491 75.0027 182.107 74.8853 181.68 74.8C181.253 74.6933 180.869 74.64 180.528 74.64C179.269 74.64 178.64 75.4293 178.64 77.008V78.576H182.544V82.448H178.64V94H173.52ZM193.651 94.32C191.753 94.32 190.131 93.9253 188.787 93.136C187.443 92.3467 186.409 91.3013 185.683 90C184.979 88.6987 184.627 87.2907 184.627 85.776C184.627 84.1547 184.979 82.672 185.683 81.328C186.387 79.984 187.411 78.9067 188.755 78.096C190.099 77.2853 191.731 76.88 193.651 76.88C195.55 76.88 197.171 77.2853 198.515 78.096C199.859 78.9067 200.873 79.9733 201.555 81.296C202.259 82.6187 202.611 84.0373 202.611 85.552C202.611 86.1707 202.569 86.7147 202.483 87.184H190.067C190.153 88.3147 190.558 89.1787 191.283 89.776C192.03 90.352 192.873 90.64 193.811 90.64C194.558 90.64 195.273 90.4587 195.955 90.096C196.638 89.7333 197.107 89.2427 197.363 88.624L201.715 89.84C201.054 91.1627 200.019 92.24 198.611 93.072C197.225 93.904 195.571 94.32 193.651 94.32ZM189.939 84.048H197.235C197.129 82.9813 196.734 82.1387 196.051 81.52C195.39 80.88 194.569 80.56 193.587 80.56C192.606 80.56 191.774 80.88 191.091 81.52C190.43 82.16 190.046 83.0027 189.939 84.048ZM216.588 81.584C215.351 81.6053 214.231 81.808 213.228 82.192C212.225 82.576 211.5 83.152 211.052 83.92V94H205.932V77.2H210.636V80.592C211.212 79.4613 211.959 78.576 212.876 77.936C213.793 77.296 214.753 76.9653 215.756 76.944C216.183 76.944 216.46 76.9547 216.588 76.976V81.584Z" fill="black"/>
<path fill-rule="evenodd" clip-rule="evenodd" d="M203.02 180.218C201.993 163.354 196.525 144.234 180.43 135.954C144.947 121.704 98.2952 157.589 95.8253 194.248C94.9643 206.797 101.927 220.51 114.651 223.998C117.48 227.749 121.758 230.039 125.98 232.027C176.275 258.139 208.763 236.913 203.02 180.218Z" fill="#E69B67"/>
<path fill-rule="evenodd" clip-rule="evenodd" d="M214.478 169.728C212.701 164.788 210.823 159.886 208.848 155.022C206.924 150.288 205.187 145.452 202.798 140.942C188.53 114.009 162.584 114.009 149.173 117.528C142.218 114.529 129.191 115.375 121.948 118.081C110.224 122.462 95.9323 139.694 91.0458 147.436C80.2572 164.53 73.5242 187.283 80.6907 207.036C81.6273 209.617 82.8219 212.008 84.1669 214.313C83.3196 215.462 82.3445 216.55 81.2643 217.619C78.0541 220.798 74.844 223.871 72.0709 227.456C69.3152 231.018 67.0306 234.806 65.3299 238.983C62.123 246.86 61.9685 255.779 66.2083 263.295C69.8969 269.834 76.4312 274.704 83.793 275.168C84.1709 275.221 84.5494 275.269 84.9296 275.307C85.905 276.915 87.0944 278.395 88.4518 279.686C92.6108 283.644 102.525 285.675 108.179 285.805C108.469 286.039 108.762 286.272 109.054 286.502C112.514 289.227 116.145 291.976 120.117 293.915C122.807 295.23 126.335 296.328 129.142 295.379C130.415 296.23 132.504 296.051 133.767 295.354C135.842 294.21 137.53 292.15 138.557 290.04C141.047 284.919 140.448 279.315 139.809 273.843C139.104 267.8 138.427 261.754 137.739 255.71C137.2 250.985 136.636 246.18 135.2 241.628C134.458 239.269 133.485 237.003 132.228 234.872C132.26 234.693 132.255 234.514 132.204 234.346C131.792 233.006 130.941 232.304 129.933 231.393C129.803 231.276 129.673 231.157 129.546 231.035C129.042 230.46 128.503 229.926 127.925 229.473C127.703 229.248 127.484 229.021 127.264 228.793C125.441 226.881 123.718 224.872 122.187 222.72C120.702 220.632 119.361 218.452 118.085 216.232C116.787 213.973 115.928 211.481 114.633 209.239C114.522 209.047 114.24 209.009 114.083 209.169C113.682 209.584 113.425 210.044 113.473 210.53L113.273 210.56C113.197 209.828 112.522 209.231 111.607 209.391C110.236 209.63 109.108 209.719 107.922 209.264C108.13 207.878 108.323 206.49 108.512 205.099C108.859 202.54 109.182 199.972 109.458 197.405C110.127 197.564 110.791 197.795 111.441 198.088C112.368 198.503 113.243 199.061 113.991 199.747C114.728 200.425 115.237 201.339 116.137 201.81C117.172 202.35 118.421 201.458 118.117 200.287C117.502 197.92 114.021 196.564 111.867 196.117C111.127 195.962 110.371 195.897 109.615 195.913C109.786 194.265 109.938 192.616 110.062 190.965C110.122 190.184 110.176 189.404 110.227 188.62C111.902 188.113 113.696 187.961 115.438 188.2C116.012 188.658 116.586 189.111 117.142 189.569C118.906 191.028 120.661 192.494 122.395 193.988C122.553 194.121 122.707 194.254 122.864 194.39C123.894 195.276 125.178 194.398 125.005 193.142C123.59 182.856 129.887 174.673 137.259 168.334C145.42 161.315 160.257 160.498 169.962 148.339C174.432 149.249 184.411 151.953 188.53 158.52C194.295 167.722 193.542 175.967 193.981 186.405C194.42 196.851 195.536 207.748 193.166 218.048C190.979 227.546 185.059 235.66 175.874 239.391C175.646 239.483 175.416 239.573 175.186 239.66C170.436 241.452 165.253 241.959 160.257 241.015C154.727 239.969 150.11 237.436 145.51 234.321C145.244 234.145 144.857 234.508 145.057 234.774C151.121 242.816 163.031 245.502 172.479 243.379C172.921 243.279 173.36 243.171 173.796 243.051C171.683 249.133 172.108 255.808 174.861 261.729C176.516 265.292 179.041 268.375 182.117 270.807C185.506 273.485 189.711 275.649 192.063 279.409C194.217 282.855 193.577 286.727 189.89 288.717C188.961 289.222 188.603 290.851 189.524 291.567C189.876 291.838 190.229 292.114 190.589 292.386C192.654 293.945 198.324 296.873 199.243 296.981C207.398 297.949 212.882 291.957 216.396 284.889C220.523 276.592 219.45 266.482 214.903 258.582C211.256 252.243 204.074 245.996 206.93 237.973C207.948 235.107 210.032 232.665 212.056 230.458C214.364 227.944 216.846 225.591 219.06 222.988C221.26 220.404 223.21 217.593 224.3 214.35C225.89 209.611 225.099 204.486 223.904 199.755C221.344 189.599 218.019 179.578 214.478 169.728Z" fill="#311809"/>
<path fill-rule="evenodd" clip-rule="evenodd" d="M168.972 222.751C167.146 222.008 165.518 220.767 164.327 219.183C163.913 218.632 163.806 218.051 163.893 217.519C163.991 216.921 164.345 216.379 164.828 216.015C165.313 215.65 165.919 215.47 166.506 215.562C167.015 215.642 167.522 215.92 167.924 216.498L168.008 216.613C168.715 217.57 169.638 218.354 170.689 218.86C171.702 219.347 172.835 219.575 174.007 219.443C176.24 219.191 177.779 217.985 179.415 216.347C179.618 216.141 179.82 215.927 180.024 215.711C180.153 215.514 180.332 215.388 180.53 215.322C180.75 215.248 181 215.252 181.228 215.332C181.448 215.409 181.645 215.554 181.777 215.747C181.902 215.931 181.973 216.159 181.95 216.42C181.8 218.117 180.912 219.631 179.65 220.821C178.248 222.141 176.39 223.055 174.641 223.376C172.714 223.729 170.75 223.476 168.972 222.751ZM175.55 196.571C177.6 197.816 180.724 200.718 178.519 203.803C175.922 206.523 172.184 203.404 170.342 201.994C168.634 200.9 166.715 203.712 168.3 204.989C181.611 214.829 187.012 196.897 176.587 195.108C175.439 194.911 175.013 196.186 175.55 196.571ZM151.697 185.124C151.924 182.316 156.206 181.679 156.632 184.457C157.014 186.946 156.564 189.233 155.442 191.474C154.369 193.614 151.673 192.616 151.469 190.666C151.195 188.053 151.556 186.871 151.697 185.124ZM184.296 183.881C184.893 183.1 185.755 182.567 186.788 182.869C190.015 183.81 189.064 188.385 187.931 190.612C187.315 191.821 185.324 192.127 184.425 191.063C182.959 189.326 182.257 185.859 184.12 184.149C184.171 184.06 184.227 183.971 184.296 183.881ZM155.396 172.838L155.906 172.749C157.483 172.477 159.444 172.215 160.559 173.481C161.151 174.152 161.354 175.4 160.559 176.042C159.16 177.173 157.614 176.735 155.937 176.831C154.556 176.91 153.228 177.138 151.898 177.518C148.978 178.351 146.599 179.872 144.106 181.542C143.779 181.761 143.445 181.343 143.601 181.038C145.04 178.223 147.83 175.91 150.624 174.501C152.115 173.748 153.747 173.124 155.396 172.838ZM181.354 171.577L181.745 171.657C185.99 172.543 191.507 174.313 193.517 178.477C193.594 179.066 193.513 179.193 193.447 179.275L193.425 179.302C193.371 179.373 193.328 179.47 193.072 179.55C193.001 179.533 192.929 179.515 192.857 179.496C191.935 179.255 191.206 178.923 190.5 178.578L189.735 178.202C188.847 177.767 187.951 177.348 187.002 177.039C184.976 176.379 182.892 175.914 180.775 175.666C180.317 175.612 179.875 175.457 179.526 175.192C179.196 174.941 178.943 174.593 178.828 174.13C178.679 173.531 178.721 173.077 179.043 172.537C179.285 172.131 179.631 171.85 180.029 171.689C180.434 171.524 180.896 171.485 181.354 171.577Z" fill="black"/>
<path fill-rule="evenodd" clip-rule="evenodd" d="M198.827 186.448C196.646 201.206 181.422 202.838 178.717 188.187C179.151 187.997 179.463 187.623 179.398 186.896C179.383 183.703 180.373 180.328 183.253 178.553C186.228 176.721 189.71 176.539 193.153 176.585C199.723 176.429 199.585 181.922 198.827 186.448ZM176.333 180.03C174.271 179.943 171.663 180.016 169.815 181.272C169.308 179.904 167.988 178.444 166.655 177.663C171.61 177.808 176.711 177.32 181.703 176.941C180.508 177.756 179.397 178.98 178.674 180.396C178.003 180.038 177.043 180.071 176.333 180.03ZM167.244 188.013C161.527 207.702 147.254 199.12 145.698 196.597C142.892 192.421 142.364 182.271 144.809 179.557C148.308 177.103 153.262 177.735 157.396 177.674C164.991 177.777 170.385 180.05 167.244 188.013ZM205.579 178.957C204.025 178.754 202.365 178.713 200.921 179.397C200.476 177.506 199.08 175.925 197.503 175.23C197.313 174.99 197.341 174.862 196.69 174.898C192.688 173.694 188.209 174.331 184.363 175.565C178.289 176.077 171.917 176.48 165.792 177.185C160.054 174.607 142.739 174.23 141.663 180.583C140.31 180.381 138.005 179.315 136.867 180.76C128.524 179.345 119.904 181.312 111.524 182.188C109.415 182.576 108.329 186.764 110.723 186.706C112.069 186.341 110.682 184.099 112.494 183.93C120.579 183.047 128.486 181.794 136.653 181.647C136.369 183.058 142.055 183.15 142.139 182.326C142.151 182.332 142.164 182.336 142.177 182.342C140.772 187.58 142.04 195.119 144.579 198.367C148.137 202.62 157.068 203.84 161.029 201.104C166.137 198.578 171.452 185.9 169.959 181.687C172.669 180.828 175.347 181.086 178.159 181.524C177.515 183.343 176.404 187.821 178.003 188.209C177.709 197.1 185.797 202.647 193.253 199C199.707 195.97 201.964 186.377 201.174 180.554C201.977 182.107 208.723 180.417 205.579 178.957Z" fill="#F8B2BC"/>
<defs>
<linearGradient id="paint0_linear_397368:40527" x1="150" y1="150" x2="150" y2="300" gradientUnits="userSpaceOnUse">
<stop stop-color="#CA870C"/>
<stop offset="1" stop-color="#FFD68C"/>
</linearGradient>
</defs>
</svg>
