<svg width="300" height="300" viewBox="0 0 300 300" fill="none" xmlns="http://www.w3.org/2000/svg">
<rect width="300" height="300" rx="8" fill="white"/>
<rect y="150" width="300" height="150" fill="url(#paint0_linear_397368:40537)"/>
<path d="M124.55 46.165H121.145V55H119.09V46.165H115.685V44.35H124.55V46.165ZM137.827 44.35V55H135.772V50.455H130.942V55H128.872V44.35H130.942V48.655H135.772V44.35H137.827ZM143.049 55V44.35H145.119V55H143.049ZM156.686 47.14C156.596 47.04 156.406 46.91 156.116 46.75C155.826 46.58 155.476 46.43 155.066 46.3C154.666 46.16 154.251 46.09 153.821 46.09C152.691 46.09 152.126 46.49 152.126 47.29C152.126 47.58 152.216 47.81 152.396 47.98C152.576 48.15 152.846 48.295 153.206 48.415C153.566 48.535 154.016 48.665 154.556 48.805C155.256 48.985 155.861 49.195 156.371 49.435C156.891 49.675 157.286 49.995 157.556 50.395C157.836 50.785 157.976 51.305 157.976 51.955C157.976 52.715 157.791 53.33 157.421 53.8C157.061 54.26 156.581 54.595 155.981 54.805C155.381 55.015 154.731 55.12 154.031 55.12C153.231 55.12 152.436 55 151.646 54.76C150.866 54.51 150.171 54.17 149.561 53.74L150.476 51.955C150.566 52.045 150.726 52.165 150.956 52.315C151.186 52.455 151.466 52.6 151.796 52.75C152.126 52.89 152.486 53.01 152.876 53.11C153.266 53.21 153.661 53.26 154.061 53.26C155.201 53.26 155.771 52.895 155.771 52.165C155.771 51.855 155.656 51.605 155.426 51.415C155.196 51.225 154.871 51.065 154.451 50.935C154.041 50.805 153.561 50.66 153.011 50.5C152.331 50.31 151.766 50.1 151.316 49.87C150.876 49.63 150.546 49.335 150.326 48.985C150.106 48.625 149.996 48.17 149.996 47.62C149.996 46.89 150.166 46.28 150.506 45.79C150.856 45.29 151.326 44.915 151.916 44.665C152.506 44.405 153.161 44.275 153.881 44.275C154.621 44.275 155.311 44.395 155.951 44.635C156.591 44.875 157.141 45.15 157.601 45.46L156.686 47.14ZM169.144 55V44.35H171.214V55H169.144ZM182.781 47.14C182.691 47.04 182.501 46.91 182.211 46.75C181.921 46.58 181.571 46.43 181.161 46.3C180.761 46.16 180.346 46.09 179.916 46.09C178.786 46.09 178.221 46.49 178.221 47.29C178.221 47.58 178.311 47.81 178.491 47.98C178.671 48.15 178.941 48.295 179.301 48.415C179.661 48.535 180.111 48.665 180.651 48.805C181.351 48.985 181.956 49.195 182.466 49.435C182.986 49.675 183.381 49.995 183.651 50.395C183.931 50.785 184.071 51.305 184.071 51.955C184.071 52.715 183.886 53.33 183.516 53.8C183.156 54.26 182.676 54.595 182.076 54.805C181.476 55.015 180.826 55.12 180.126 55.12C179.326 55.12 178.531 55 177.741 54.76C176.961 54.51 176.266 54.17 175.656 53.74L176.571 51.955C176.661 52.045 176.821 52.165 177.051 52.315C177.281 52.455 177.561 52.6 177.891 52.75C178.221 52.89 178.581 53.01 178.971 53.11C179.361 53.21 179.756 53.26 180.156 53.26C181.296 53.26 181.866 52.895 181.866 52.165C181.866 51.855 181.751 51.605 181.521 51.415C181.291 51.225 180.966 51.065 180.546 50.935C180.136 50.805 179.656 50.66 179.106 50.5C178.426 50.31 177.861 50.1 177.411 49.87C176.971 49.63 176.641 49.335 176.421 48.985C176.201 48.625 176.091 48.17 176.091 47.62C176.091 46.89 176.261 46.28 176.601 45.79C176.951 45.29 177.421 44.915 178.011 44.665C178.601 44.405 179.256 44.275 179.976 44.275C180.716 44.275 181.406 44.395 182.046 44.635C182.686 44.875 183.236 45.15 183.696 45.46L182.781 47.14Z" fill="black"/>
<path d="M100.379 94V71.28H110.619C111.686 71.28 112.667 71.504 113.563 71.952C114.48 72.3787 115.27 72.9653 115.931 73.712C116.592 74.4373 117.104 75.2587 117.467 76.176C117.851 77.0933 118.043 78.0213 118.043 78.96C118.043 80.368 117.702 81.6693 117.019 82.864C116.358 84.0373 115.462 84.9333 114.331 85.552L119.323 94H113.531L109.179 86.672H105.627V94H100.379ZM105.627 82.096H110.427C111.046 82.096 111.579 81.808 112.027 81.232C112.475 80.6347 112.699 79.8773 112.699 78.96C112.699 78.0427 112.443 77.3067 111.931 76.752C111.419 76.176 110.864 75.888 110.267 75.888H105.627V82.096ZM121.032 88.976C121.032 87.8667 121.341 86.896 121.96 86.064C122.579 85.232 123.432 84.5813 124.52 84.112C125.608 83.6213 126.856 83.376 128.264 83.376C128.947 83.376 129.619 83.44 130.28 83.568C130.941 83.6747 131.517 83.8347 132.008 84.048V83.312C132.008 81.4133 130.888 80.464 128.648 80.464C127.709 80.464 126.824 80.624 125.992 80.944C125.181 81.264 124.317 81.7227 123.4 82.32L121.864 79.056C124.083 77.6053 126.515 76.88 129.16 76.88C131.677 76.88 133.629 77.488 135.016 78.704C136.424 79.8987 137.128 81.6373 137.128 83.92V88.304C137.128 88.816 137.203 89.1787 137.352 89.392C137.523 89.6053 137.811 89.7227 138.216 89.744V94C137.768 94.0853 137.363 94.1493 137 94.192C136.637 94.2347 136.317 94.256 136.04 94.256C135.08 94.256 134.344 94.064 133.832 93.68C133.341 93.296 133.032 92.7733 132.904 92.112L132.808 91.376C132.061 92.336 131.165 93.072 130.12 93.584C129.075 94.0747 127.997 94.32 126.888 94.32C125.779 94.32 124.776 94.0853 123.88 93.616C123.005 93.1467 122.312 92.5173 121.8 91.728C121.288 90.9173 121.032 90 121.032 88.976ZM131.208 89.616C131.741 89.1893 132.008 88.752 132.008 88.304V86.8C131.56 86.6293 131.069 86.5013 130.536 86.416C130.024 86.3093 129.555 86.256 129.128 86.256C128.168 86.256 127.379 86.4693 126.76 86.896C126.163 87.3227 125.864 87.8667 125.864 88.528C125.864 89.104 126.088 89.6053 126.536 90.032C127.005 90.4373 127.624 90.64 128.392 90.64C128.904 90.64 129.416 90.544 129.928 90.352C130.44 90.16 130.867 89.9147 131.208 89.616ZM158.03 94H152.91V84.56C152.91 83.4507 152.697 82.6507 152.27 82.16C151.865 81.648 151.321 81.392 150.638 81.392C149.934 81.392 149.219 81.6693 148.494 82.224C147.769 82.7787 147.257 83.4933 146.958 84.368V94H141.838V77.2H146.446V80.016C147.065 79.0347 147.939 78.2667 149.07 77.712C150.201 77.1573 151.502 76.88 152.974 76.88C154.062 76.88 154.937 77.0827 155.598 77.488C156.281 77.872 156.793 78.384 157.134 79.024C157.497 79.6427 157.731 80.3253 157.838 81.072C157.966 81.8187 158.03 82.544 158.03 83.248V94ZM170.432 94.32C168.512 94.32 166.88 93.9147 165.536 93.104C164.213 92.2933 163.2 91.2267 162.496 89.904C161.792 88.5813 161.44 87.152 161.44 85.616C161.44 84.0587 161.792 82.6187 162.496 81.296C163.2 79.9733 164.224 78.9067 165.568 78.096C166.912 77.2853 168.533 76.88 170.432 76.88C172.331 76.88 173.952 77.2853 175.296 78.096C176.64 78.9067 177.664 79.9733 178.368 81.296C179.072 82.6187 179.424 84.0587 179.424 85.616C179.424 87.152 179.072 88.5813 178.368 89.904C177.664 91.2267 176.64 92.2933 175.296 93.104C173.952 93.9147 172.331 94.32 170.432 94.32ZM166.688 85.616C166.688 86.9173 167.04 87.9733 167.744 88.784C168.469 89.5947 169.365 90 170.432 90C171.477 90 172.352 89.5947 173.056 88.784C173.781 87.9733 174.144 86.9173 174.144 85.616C174.144 84.3147 173.781 83.2587 173.056 82.448C172.352 81.6373 171.477 81.232 170.432 81.232C169.365 81.232 168.469 81.6373 167.744 82.448C167.04 83.2587 166.688 84.3147 166.688 85.616ZM199.155 94H194.035V84.56C194.035 83.4507 193.822 82.6507 193.395 82.16C192.99 81.648 192.446 81.392 191.763 81.392C191.059 81.392 190.344 81.6693 189.619 82.224C188.894 82.7787 188.382 83.4933 188.083 84.368V94H182.963V77.2H187.571V80.016C188.19 79.0347 189.064 78.2667 190.195 77.712C191.326 77.1573 192.627 76.88 194.099 76.88C195.187 76.88 196.062 77.0827 196.723 77.488C197.406 77.872 197.918 78.384 198.259 79.024C198.622 79.6427 198.856 80.3253 198.963 81.072C199.091 81.8187 199.155 82.544 199.155 83.248V94Z" fill="black"/>
<path fill-rule="evenodd" clip-rule="evenodd" d="M151 129.443C167.89 129.443 185.36 142.568 191.552 150.944C196.757 157.986 199.56 189.827 199.56 211.347C199.56 215.847 202.037 224.331 201.314 228.636C198.665 244.411 187.122 257.641 164.277 257.641C141.432 257.641 125.053 248.563 108.072 224.19C99.8334 224.19 95.8406 217.856 95.7826 207.86C95.7246 197.864 103.735 194.228 103.735 194.228C103.735 194.228 100.879 154.78 108.072 144.51C115.266 134.24 134.109 129.443 151 129.443Z" fill="#FCC8A4"/>
<path fill-rule="evenodd" clip-rule="evenodd" d="M143.892 123.866C154.556 122.783 165.006 123.693 175.516 125.575C176.319 125.721 176.774 126.249 176.943 126.884C181.893 127.11 186.849 127.474 191.793 127.746C193.587 127.844 194.604 129.621 193.786 131.226C193.622 131.545 193.453 131.855 193.28 132.165L193.497 132.093C194.984 131.615 196.59 131.379 198.04 132.138C199.884 133.105 200.607 135.237 200.199 137.199C200.095 137.7 199.92 138.18 199.721 138.649C200.125 138.622 200.533 138.631 200.937 138.684C203.091 138.971 204.691 140.626 204.804 142.829C204.971 146.157 202.832 149.533 200.312 151.916C200.678 152.671 200.818 153.559 200.666 154.46C200.363 156.24 199.055 157.306 197.538 158.002C198.17 160.015 198.469 162.12 198.293 164.271C198.234 164.989 197.608 165.582 196.946 165.728C199.411 172.531 200.659 179.835 201.556 186.953C202.195 192.017 202.511 197.11 202.549 202.213C202.568 204.516 202.53 206.822 202.434 209.126L202.395 209.99C202.276 212.48 202.27 215.095 201.824 217.559C203.347 220.156 203.959 223.38 204.218 226.29C204.54 229.893 204.031 233.608 202.897 237.035C198.62 249.983 185.71 258.154 172.743 260.278C160.74 262.243 146.851 259.598 139.837 248.668C139.727 248.495 139.962 248.352 140.099 248.466C145.117 252.557 150.938 254.382 157.263 255.271C168.198 256.804 180.489 254.203 189.264 247.309C193.476 243.999 196.514 239.179 197.849 233.993C198.531 231.342 198.766 228.578 198.498 225.849C198.224 223.082 197.002 220.72 196.231 218.105C195.972 217.222 196.246 216.402 196.785 215.817C196.936 213.694 197.293 211.553 197.43 209.436C197.581 207.029 197.674 204.622 197.707 202.213C197.769 197.214 197.561 192.207 197.141 187.231C196.374 178.117 194.336 169.224 193.141 160.188C192.698 160.586 192.063 160.75 191.398 160.402L191.329 160.364L190.966 160.156C190.945 160.156 190.921 160.159 190.9 160.161C188.417 160.403 185.841 160.057 183.461 159.314C180.971 158.539 178.66 157.347 176.595 155.757C176.203 157.752 176.039 159.768 176.036 161.802C176.033 163.072 174.692 163.731 173.627 163.189C168.906 160.785 164.396 158.015 160.116 154.901C159.616 157.469 159.116 160.036 158.613 162.607C158.42 163.597 157.161 163.997 156.355 163.526C153.149 161.655 150.379 159.207 148.125 156.297C147.674 157.16 147.223 158.022 146.768 158.883L146.084 160.173C145.409 161.441 144.504 162.843 143.026 163.248C141.461 163.677 140.155 162.661 139.629 161.241C139.468 160.8 139.32 160.346 139.183 159.89C137.85 162.941 136.345 165.923 134.643 168.768C132.091 173.035 129.027 176.837 125.972 180.738C125.044 181.922 123.456 180.792 123.328 179.641C123.253 178.964 123.191 178.284 123.137 177.607C121.357 181.208 119.5 184.776 117.476 188.24L117.766 189.378C118.601 192.741 119.294 196.128 120.048 199.509C120.291 200.6 119.713 202.16 118.441 202.346C116.923 202.568 115.486 203.346 113.93 202.81C112.233 202.227 111.898 200.757 111.097 199.363C110.938 199.086 110.752 198.831 110.552 198.589L110.501 198.655C110.376 198.819 110.078 198.64 110.153 198.452L110.24 198.235C109.552 197.503 108.729 196.892 107.971 196.235C106.172 195.932 104.149 196.264 102.909 196.997C100.086 198.667 98.7895 202.108 98.7627 205.272C98.73 208.976 99.875 213.139 101.809 216.306C102.66 217.699 103.826 218.957 105.366 219.575C106.896 220.189 108.552 219.998 110.108 220.577C111.137 220.962 111.771 222.107 111.149 223.144C111.108 223.216 111.06 223.281 111.015 223.35L111.478 223.966C111.796 224.392 112.128 224.849 112.437 225.324C113.229 226.237 114.062 227.117 114.868 228.014C116.358 229.669 117.804 231.369 119.27 233.048C120.653 234.632 122.117 236.119 123.625 237.584C125.05 238.971 126.829 240.136 128.138 241.616C129.411 243.059 129.756 245.579 127.661 246.414C125.344 247.34 123.293 245.169 121.733 243.722L121.668 243.661C118.809 241.024 116.227 238.009 114.176 234.69C112.145 236.076 109.207 236.209 107.185 234.823C106.12 234.094 105.304 232.869 104.907 231.536C104.533 231.62 104.159 231.669 103.794 231.663C103.606 231.772 103.418 231.879 103.228 231.978C101.719 232.765 99.8664 232.413 99.1762 230.74C98.5478 229.221 99.1954 227.496 99.7614 226.032L99.8783 225.73C100.2 224.895 100.554 223.985 100.994 223.13C99.7682 222.205 98.7208 221.057 97.8346 219.751C94.857 215.352 93.3696 208.919 94.027 203.671C94.4227 200.504 95.9067 197.224 98.3371 195.088L98.2481 194.856C97.5669 193.123 96.9479 191.384 96.5466 189.554C96.0766 187.412 95.8473 185.194 95.6393 183.014C95.1991 178.409 95.3181 173.701 95.9041 169.114C97.0047 160.481 99.795 152.006 104.748 144.822C103.343 143.136 102.231 141.153 102.811 138.872C103.076 137.825 103.68 136.832 104.59 136.233C105.093 135.902 105.691 135.851 106.194 135.577L106.345 135.493C106.565 135.364 106.397 135.378 106.265 134.778C105.744 132.38 106.176 130.063 108.808 129.267C111.286 128.518 113.63 130.108 115.097 132.001C118.934 129.272 123.991 127.844 128.438 126.63C133.495 125.255 138.683 124.397 143.892 123.866ZM102.443 204.294C102.424 202.341 104.272 201.136 106.09 201.455C107.31 201.668 108.328 202.399 109.285 203.153L109.751 203.523C110.915 204.44 112.252 205.428 112.946 206.725C113.963 208.639 111.813 211.216 109.805 209.874C108.428 208.948 107.545 207.466 106.641 206.088L106.548 205.946C106.137 205.329 105.777 204.673 105.215 204.178L105.093 204.071C104.908 203.913 104.71 203.769 104.471 203.701C104.01 203.568 103.157 203.754 102.954 204.304L102.936 204.36C102.862 204.637 102.446 204.577 102.443 204.294Z" fill="black"/>
<path fill-rule="evenodd" clip-rule="evenodd" d="M154.948 227.436C157.246 222.849 178.324 224.91 178.324 224.91L180.104 239.491C180.104 239.491 169.934 242.754 163.88 242.07C157.827 241.387 152.65 232.023 154.948 227.436Z" fill="white"/>
<path fill-rule="evenodd" clip-rule="evenodd" d="M156.433 235.094C155.705 233.539 170.773 229.299 175.439 232.196C180.104 235.094 178.645 239.046 178.645 239.046C178.645 239.046 159.023 243.514 156.433 235.094Z" fill="#FF8181"/>
<path fill-rule="evenodd" clip-rule="evenodd" d="M153.641 224.721C157.158 220.642 163.082 220.358 167.988 221.378C171.137 222.032 174.203 223.123 177.401 223.527C178.895 223.716 180.405 223.773 181.91 223.745C183.387 223.718 184.868 223.42 186.34 223.476C186.567 223.484 186.652 223.781 186.456 223.901C184.436 225.14 181.714 225.537 179.327 225.78C179.335 225.956 179.345 226.128 179.37 226.274C179.435 226.663 179.494 227.049 179.542 227.441C179.651 228.324 179.772 229.205 179.893 230.086C180.131 231.821 180.206 233.611 180.625 235.316L180.698 235.599C180.795 235.958 180.818 236.281 180.785 236.572L180.882 236.528L181.189 236.38L181.39 236.285C182.123 235.946 182.823 235.699 183.686 235.781C184.342 235.844 184.893 236.291 184.897 236.99C184.914 240.131 180.673 241.141 178.248 241.742L177.537 241.917C174.45 242.669 171.297 243.328 168.122 243.485C163.027 243.738 157.301 242.335 153.968 238.209C150.858 234.36 150.288 228.611 153.641 224.721ZM176.781 237.917C176.246 233.188 170.425 232.928 168.751 235.927C168.008 231.747 157.015 235.566 157.875 236.397C161.133 239.546 166.077 239.83 170.327 239.247C172.491 238.95 174.658 238.467 176.781 237.917ZM170.321 225.523L168.857 225.313L168.281 225.234C164.653 224.749 160.573 224.498 157.59 226.82C156.501 227.668 155.888 228.773 155.659 229.961C158.482 229.543 161.314 229.225 164.156 228.959L164.931 228.888C166.708 228.728 168.485 228.56 170.261 228.383L171.524 228.255L172.785 228.125C173.229 228.078 176.222 227.925 176.784 228.028C176.844 227.523 176.923 226.431 177.05 225.94C174.924 226.012 172.807 225.855 170.694 225.574L170.321 225.523ZM177.057 204.388C179.226 205.704 182.531 208.773 180.198 212.035C177.451 214.912 173.497 211.614 171.549 210.122C169.742 208.966 167.712 211.939 169.389 213.289C183.468 223.694 189.182 204.733 178.154 202.841C176.94 202.633 176.489 203.981 177.057 204.388ZM180.939 209.932L181.043 209.876L181.078 209.854C181.139 209.815 181.1 209.819 180.962 209.867L180.858 209.904V209.978C180.884 209.961 180.913 209.949 180.939 209.932ZM153.163 198.241L153.163 198.176C153.167 196.348 154.234 192.174 156.87 192.174C158.517 192.174 159.517 195.015 159.69 197.943L159.696 198.063C159.773 199.883 159.272 203.863 156.87 203.863C154.443 203.863 153.188 200.094 153.163 198.241ZM191.98 197.668L191.98 197.603C191.976 195.775 190.909 191.601 188.273 191.601C186.667 191.601 185.676 194.301 185.467 197.15L185.453 197.37C185.349 199.129 185.817 203.289 188.273 203.289C190.7 203.289 191.955 199.52 191.98 197.668ZM154.668 179.71C156.819 179.383 159.669 180.003 160.672 182.187C161.119 183.16 160.589 184.236 159.463 184.29C156.74 184.42 154.298 183.816 151.908 185.583C150.879 186.344 150.014 187.397 149.289 188.448L149.014 188.848L148.787 189.177C148.294 189.9 147.827 190.686 147.9 191.558C147.922 191.817 147.657 192.062 147.406 192.052C145.84 191.987 145.671 190.027 145.877 188.85C146.26 186.664 147.32 184.613 148.788 182.961C150.33 181.226 152.366 180.059 154.668 179.71ZM184.303 182.362C185.787 181.41 187.685 181.044 189.423 181.184C192.85 181.459 198.6 184.368 197.843 188.546C197.609 189.835 195.814 190.515 194.756 189.8C193.618 189.031 193.341 187.837 192.495 186.832C191.819 186.03 190.963 185.449 190.046 184.954C189.143 184.467 188.097 184.171 187.072 184.063L186.901 184.047C186.284 183.995 183.167 184.009 183.625 185.17C183.714 185.397 183.375 185.577 183.22 185.405C182.264 184.35 183.346 182.976 184.303 182.362Z" fill="black"/>
<defs>
<linearGradient id="paint0_linear_397368:40537" x1="150" y1="150" x2="150" y2="300" gradientUnits="userSpaceOnUse">
<stop stop-color="#0094B6"/>
<stop offset="1" stop-color="#B0E1EC"/>
</linearGradient>
</defs>
</svg>
