<svg width="300" height="300" viewBox="0 0 300 300" fill="none" xmlns="http://www.w3.org/2000/svg">
<g clip-path="url(#clip0_397368:40520)">
<rect width="300" height="300" rx="8" fill="white"/>
<rect y="150" width="300" height="150" fill="url(#paint0_linear_397368:40520)"/>
<path d="M124.55 45.165H121.145V54H119.09V45.165H115.685V43.35H124.55V45.165ZM137.827 43.35V54H135.772V49.455H130.942V54H128.872V43.35H130.942V47.655H135.772V43.35H137.827ZM143.049 54V43.35H145.119V54H143.049ZM156.686 46.14C156.596 46.04 156.406 45.91 156.116 45.75C155.826 45.58 155.476 45.43 155.066 45.3C154.666 45.16 154.251 45.09 153.821 45.09C152.691 45.09 152.126 45.49 152.126 46.29C152.126 46.58 152.216 46.81 152.396 46.98C152.576 47.15 152.846 47.295 153.206 47.415C153.566 47.535 154.016 47.665 154.556 47.805C155.256 47.985 155.861 48.195 156.371 48.435C156.891 48.675 157.286 48.995 157.556 49.395C157.836 49.785 157.976 50.305 157.976 50.955C157.976 51.715 157.791 52.33 157.421 52.8C157.061 53.26 156.581 53.595 155.981 53.805C155.381 54.015 154.731 54.12 154.031 54.12C153.231 54.12 152.436 54 151.646 53.76C150.866 53.51 150.171 53.17 149.561 52.74L150.476 50.955C150.566 51.045 150.726 51.165 150.956 51.315C151.186 51.455 151.466 51.6 151.796 51.75C152.126 51.89 152.486 52.01 152.876 52.11C153.266 52.21 153.661 52.26 154.061 52.26C155.201 52.26 155.771 51.895 155.771 51.165C155.771 50.855 155.656 50.605 155.426 50.415C155.196 50.225 154.871 50.065 154.451 49.935C154.041 49.805 153.561 49.66 153.011 49.5C152.331 49.31 151.766 49.1 151.316 48.87C150.876 48.63 150.546 48.335 150.326 47.985C150.106 47.625 149.996 47.17 149.996 46.62C149.996 45.89 150.166 45.28 150.506 44.79C150.856 44.29 151.326 43.915 151.916 43.665C152.506 43.405 153.161 43.275 153.881 43.275C154.621 43.275 155.311 43.395 155.951 43.635C156.591 43.875 157.141 44.15 157.601 44.46L156.686 46.14ZM169.144 54V43.35H171.214V54H169.144ZM182.781 46.14C182.691 46.04 182.501 45.91 182.211 45.75C181.921 45.58 181.571 45.43 181.161 45.3C180.761 45.16 180.346 45.09 179.916 45.09C178.786 45.09 178.221 45.49 178.221 46.29C178.221 46.58 178.311 46.81 178.491 46.98C178.671 47.15 178.941 47.295 179.301 47.415C179.661 47.535 180.111 47.665 180.651 47.805C181.351 47.985 181.956 48.195 182.466 48.435C182.986 48.675 183.381 48.995 183.651 49.395C183.931 49.785 184.071 50.305 184.071 50.955C184.071 51.715 183.886 52.33 183.516 52.8C183.156 53.26 182.676 53.595 182.076 53.805C181.476 54.015 180.826 54.12 180.126 54.12C179.326 54.12 178.531 54 177.741 53.76C176.961 53.51 176.266 53.17 175.656 52.74L176.571 50.955C176.661 51.045 176.821 51.165 177.051 51.315C177.281 51.455 177.561 51.6 177.891 51.75C178.221 51.89 178.581 52.01 178.971 52.11C179.361 52.21 179.756 52.26 180.156 52.26C181.296 52.26 181.866 51.895 181.866 51.165C181.866 50.855 181.751 50.605 181.521 50.415C181.291 50.225 180.966 50.065 180.546 49.935C180.136 49.805 179.656 49.66 179.106 49.5C178.426 49.31 177.861 49.1 177.411 48.87C176.971 48.63 176.641 48.335 176.421 47.985C176.201 47.625 176.091 47.17 176.091 46.62C176.091 45.89 176.261 45.28 176.601 44.79C176.951 44.29 177.421 43.915 178.011 43.665C178.601 43.405 179.256 43.275 179.976 43.275C180.716 43.275 181.406 43.395 182.046 43.635C182.686 43.875 183.236 44.15 183.696 44.46L182.781 46.14Z" fill="black"/>
<path d="M90.2165 71.28H95.8805L103.689 94H98.3125L96.5525 88.912H89.4805L87.7525 94H82.3765L90.2165 71.28ZM95.6885 85.296L93.0325 76.56L90.3125 85.296H95.6885ZM133.07 94H127.95V84.56C127.95 83.472 127.747 82.672 127.342 82.16C126.937 81.648 126.414 81.392 125.774 81.392C125.091 81.392 124.419 81.6693 123.758 82.224C123.097 82.7787 122.627 83.4933 122.35 84.368V94H117.23V84.56C117.23 83.4507 117.027 82.6507 116.622 82.16C116.217 81.648 115.694 81.392 115.054 81.392C114.371 81.392 113.699 81.6693 113.038 82.224C112.398 82.7787 111.929 83.4933 111.63 84.368V94H106.51V77.2H111.118V80.016C111.737 79.0133 112.579 78.2453 113.646 77.712C114.713 77.1573 115.939 76.88 117.326 76.88C118.713 76.88 119.779 77.2107 120.526 77.872C121.273 78.512 121.753 79.2693 121.966 80.144C122.606 79.12 123.449 78.32 124.494 77.744C125.561 77.168 126.755 76.88 128.078 76.88C129.145 76.88 129.998 77.0827 130.638 77.488C131.299 77.872 131.801 78.384 132.142 79.024C132.505 79.664 132.75 80.3573 132.878 81.104C133.006 81.8293 133.07 82.544 133.07 83.248V94ZM136.36 88.976C136.36 87.8667 136.67 86.896 137.288 86.064C137.907 85.232 138.76 84.5813 139.848 84.112C140.936 83.6213 142.184 83.376 143.592 83.376C144.275 83.376 144.947 83.44 145.608 83.568C146.27 83.6747 146.846 83.8347 147.336 84.048V83.312C147.336 81.4133 146.216 80.464 143.976 80.464C143.038 80.464 142.152 80.624 141.32 80.944C140.51 81.264 139.646 81.7227 138.728 82.32L137.192 79.056C139.411 77.6053 141.843 76.88 144.488 76.88C147.006 76.88 148.958 77.488 150.344 78.704C151.752 79.8987 152.456 81.6373 152.456 83.92V88.304C152.456 88.816 152.531 89.1787 152.68 89.392C152.851 89.6053 153.139 89.7227 153.544 89.744V94C153.096 94.0853 152.691 94.1493 152.328 94.192C151.966 94.2347 151.646 94.256 151.368 94.256C150.408 94.256 149.672 94.064 149.16 93.68C148.67 93.296 148.36 92.7733 148.232 92.112L148.136 91.376C147.39 92.336 146.494 93.072 145.448 93.584C144.403 94.0747 143.326 94.32 142.216 94.32C141.107 94.32 140.104 94.0853 139.208 93.616C138.334 93.1467 137.64 92.5173 137.128 91.728C136.616 90.9173 136.36 90 136.36 88.976ZM146.536 89.616C147.07 89.1893 147.336 88.752 147.336 88.304V86.8C146.888 86.6293 146.398 86.5013 145.864 86.416C145.352 86.3093 144.883 86.256 144.456 86.256C143.496 86.256 142.707 86.4693 142.088 86.896C141.491 87.3227 141.192 87.8667 141.192 88.528C141.192 89.104 141.416 89.6053 141.864 90.032C142.334 90.4373 142.952 90.64 143.72 90.64C144.232 90.64 144.744 90.544 145.256 90.352C145.768 90.16 146.195 89.9147 146.536 89.616ZM173.358 94H168.238V84.56C168.238 83.4507 168.025 82.6507 167.598 82.16C167.193 81.648 166.649 81.392 165.966 81.392C165.262 81.392 164.548 81.6693 163.822 82.224C163.097 82.7787 162.585 83.4933 162.286 84.368V94H157.166V77.2H161.774V80.016C162.393 79.0347 163.268 78.2667 164.398 77.712C165.529 77.1573 166.83 76.88 168.302 76.88C169.39 76.88 170.265 77.0827 170.926 77.488C171.609 77.872 172.121 78.384 172.462 79.024C172.825 79.6427 173.06 80.3253 173.166 81.072C173.294 81.8187 173.358 82.544 173.358 83.248V94ZM176.8 85.584C176.8 83.9627 177.109 82.5013 177.728 81.2C178.368 79.8773 179.243 78.832 180.352 78.064C181.483 77.2747 182.773 76.88 184.224 76.88C185.397 76.88 186.453 77.168 187.392 77.744C188.352 78.2987 189.088 79.0347 189.6 79.952V70.64H194.72V88.304C194.72 88.816 194.795 89.1787 194.944 89.392C195.115 89.6053 195.403 89.7227 195.808 89.744V94C194.912 94.1707 194.187 94.256 193.632 94.256C192.757 94.256 192.043 94.064 191.488 93.68C190.933 93.296 190.603 92.7627 190.496 92.08L190.4 91.216C189.803 92.2613 188.992 93.04 187.968 93.552C186.944 94.064 185.867 94.32 184.736 94.32C183.2 94.32 181.835 93.9467 180.64 93.2C179.445 92.432 178.507 91.3867 177.824 90.064C177.141 88.7413 176.8 87.248 176.8 85.584ZM189.632 87.664V84.144C189.312 83.2907 188.789 82.5973 188.064 82.064C187.36 81.5093 186.624 81.232 185.856 81.232C185.131 81.232 184.48 81.4347 183.904 81.84C183.328 82.2453 182.88 82.7893 182.56 83.472C182.24 84.1547 182.08 84.8907 182.08 85.68C182.08 86.9173 182.453 87.952 183.2 88.784C183.968 89.5947 184.939 90 186.112 90C186.816 90 187.488 89.7973 188.128 89.392C188.789 88.9653 189.291 88.3893 189.632 87.664ZM198.642 88.976C198.642 87.8667 198.951 86.896 199.57 86.064C200.188 85.232 201.042 84.5813 202.13 84.112C203.218 83.6213 204.466 83.376 205.874 83.376C206.556 83.376 207.228 83.44 207.89 83.568C208.551 83.6747 209.127 83.8347 209.618 84.048V83.312C209.618 81.4133 208.498 80.464 206.258 80.464C205.319 80.464 204.434 80.624 203.602 80.944C202.791 81.264 201.927 81.7227 201.01 82.32L199.474 79.056C201.692 77.6053 204.124 76.88 206.77 76.88C209.287 76.88 211.239 77.488 212.626 78.704C214.034 79.8987 214.738 81.6373 214.738 83.92V88.304C214.738 88.816 214.812 89.1787 214.962 89.392C215.132 89.6053 215.42 89.7227 215.826 89.744V94C215.378 94.0853 214.972 94.1493 214.61 94.192C214.247 94.2347 213.927 94.256 213.65 94.256C212.69 94.256 211.954 94.064 211.442 93.68C210.951 93.296 210.642 92.7733 210.514 92.112L210.418 91.376C209.671 92.336 208.775 93.072 207.73 93.584C206.684 94.0747 205.607 94.32 204.498 94.32C203.388 94.32 202.386 94.0853 201.49 93.616C200.615 93.1467 199.922 92.5173 199.41 91.728C198.898 90.9173 198.642 90 198.642 88.976ZM208.818 89.616C209.351 89.1893 209.618 88.752 209.618 88.304V86.8C209.17 86.6293 208.679 86.5013 208.146 86.416C207.634 86.3093 207.164 86.256 206.738 86.256C205.778 86.256 204.988 86.4693 204.37 86.896C203.772 87.3227 203.474 87.8667 203.474 88.528C203.474 89.104 203.698 89.6053 204.146 90.032C204.615 90.4373 205.234 90.64 206.002 90.64C206.514 90.64 207.026 90.544 207.538 90.352C208.05 90.16 208.476 89.9147 208.818 89.616Z" fill="black"/>
<path fill-rule="evenodd" clip-rule="evenodd" d="M198.307 162.764C195.33 152.009 183.95 147.316 173.7 146.571C145.949 143.685 117.702 159.165 105.399 184.267C95.5514 203.328 95.243 223.351 116.412 234.235C117.568 234.872 118.775 235.554 120.008 236.173C121.08 237.17 122.183 238.127 123.387 238.931C134.914 246.517 149.063 249.797 162.774 249.086C183.017 248.677 190.244 234.931 194.667 217.303C199.331 199.753 201.94 180.71 198.307 162.764Z" fill="#FAB98C"/>
<path fill-rule="evenodd" clip-rule="evenodd" d="M211.596 264.14C210.651 261.279 209.466 258.506 208.359 255.703C208.125 254.306 207.969 252.898 207.929 251.478C207.775 246.404 208.723 241.288 209.787 236.348C211.949 226.309 214.241 216.374 215.391 206.15C217.446 187.862 216.223 168.846 207.911 152.152C200.708 137.69 188.503 125.864 172.736 121.433C168.075 120.122 163.278 119.4 158.448 119.111C157.85 119.016 157.253 118.923 156.659 118.833C149.941 117.82 143.14 117.315 136.349 117.752C125.089 118.477 113.933 121.715 104.555 128.119C95.1125 134.568 88.4035 143.611 85.2817 154.64C82.0342 166.113 82.3096 178.539 76.7016 189.296C75.0449 192.474 73.111 195.496 71.2667 198.567C66.3731 204.031 61.0602 210.105 59.896 217.618C58.4595 226.902 63.7979 234.749 68.8501 241.994C73.4168 248.536 79.6136 257.572 74.914 265.626C72.6971 269.427 69.1449 272.27 66.4772 275.735C63.7112 279.333 61.5521 283.463 60.4365 287.877C58.341 296.166 60.2688 304.805 65.8731 311.284C68.7923 314.656 72.541 316.886 76.599 318.624C80.7524 320.4 84.8103 322.086 88.244 325.109C89.8134 326.488 91.2499 328.001 92.6083 329.586C93.8743 331.567 95.3483 333.418 97.0103 335.113C98.8398 336.978 102.424 334.425 100.745 332.229C100.62 332.067 100.499 331.908 100.375 331.746C99.1462 330.144 97.912 328.542 96.6201 326.992C92.7673 320.883 91.2846 313.404 93.2009 306.268C93.698 304.415 94.3974 302.656 95.2677 300.996C95.4524 301.479 95.6547 301.956 95.8686 302.428C96.701 304.255 97.869 306.421 99.3543 308.273C99.4121 309.542 99.6031 310.801 99.9728 312.033C102.262 319.671 109.915 323.44 116.817 326.373C117.494 326.662 118.161 326.939 118.818 327.214C120.621 327.969 122.529 325.398 121.404 323.847C121.11 323.44 120.823 323.023 120.552 322.601C117.315 317.586 115.774 311.587 116.647 305.612C117.566 299.292 121.289 294.063 124.985 289.045C128.616 284.111 132.515 279.075 134.139 273.057C135.937 266.407 134.301 259.778 131.526 253.658C128.986 248.058 125.601 242.896 122.763 237.45C123.735 238.42 124.738 239.358 125.771 240.262C126.932 241.28 128.126 242.444 129.502 243.162C130.52 243.692 131.54 242.423 130.734 241.565C129.674 240.437 128.319 239.566 127.142 238.56C126.012 237.594 124.915 236.59 123.846 235.558C122.529 234.288 121.276 232.958 120.068 231.588C119.101 229.124 118.304 226.593 117.656 224.024C116.774 220.548 115.959 216.848 116.023 213.245C116.086 209.548 118.005 206.96 120.56 204.478C121.643 203.428 122.735 202.389 123.826 201.349C126.148 199.643 128.339 197.737 130.467 195.836C134.259 192.449 137.927 188.868 141.43 185.183C142.369 184.195 143.301 183.195 144.222 182.184C147.437 178.882 150.504 175.435 153.394 171.868C156.267 170.821 159.027 169.436 161.617 167.804C160.49 168.947 159.351 170.075 158.218 171.212C155.695 173.745 153.074 176.29 150.148 178.355C149.848 178.569 150.03 179.024 150.4 178.951C154.12 178.208 157.6 176.97 160.848 174.997C164.152 172.99 167.062 170.263 169.779 167.527C171.317 166.833 172.8 165.939 174.155 165.06C174.227 165.013 174.3 164.964 174.372 164.918C173.037 169.152 171.077 173.948 166.9 175.457C166.765 175.507 166.773 175.732 166.935 175.723C170.454 175.517 173.282 173.933 175.514 171.624C177.31 170.331 179.023 168.961 180.658 167.47C182.242 166.025 183.742 164.475 185.167 162.87C183.176 166.818 180.945 170.678 178.745 174.494C178.629 174.697 178.872 174.971 179.08 174.83C183.725 171.683 187.248 167.622 190.13 162.821C190.555 162.114 190.961 161.395 191.357 160.672C191.058 161.804 190.732 162.93 190.383 164.05C189.75 166.077 189.127 168.109 188.493 170.135C188.152 171.227 187.735 172.295 187.278 173.344C186.951 174.095 186.523 174.844 186.456 175.668C186.452 175.723 186.511 175.758 186.559 175.747C188.411 175.283 190.136 173.17 191.456 171.86C192.191 171.131 192.879 170.331 193.512 169.487C193.63 174.348 193.711 179.209 193.604 184.085C193.405 193.039 192.827 201.991 192.087 210.916C191.433 218.807 190.951 227.087 186.552 233.945C183.147 239.252 177.626 242.925 171.629 244.704C171.1 244.863 170.568 245.005 170.034 245.132C161.351 247.194 152.703 244.857 145.027 240.727C142.72 239.486 140.749 242.853 142.975 244.238C151.304 249.427 161.863 251.194 171.291 248.869C170.993 260.012 176.482 270.584 181.942 280.036C184.997 285.326 188.055 290.581 190.214 296.316C192.046 301.187 193.292 306.24 193.711 311.437C194.208 317.563 193.72 323.723 192.864 329.797C192.818 330.126 192.772 330.459 192.722 330.789C192.532 332.093 193.702 333.186 194.971 332.519C200.581 329.569 203 323.28 204.471 317.467C205.847 312.021 206.781 306.468 207.301 300.877C208.064 302.986 208.683 305.146 209.162 307.35C209.229 307.665 209.292 307.981 209.356 308.296C209.72 310.138 212.506 310.008 212.952 308.296C213.033 307.986 213.111 307.677 213.183 307.365C215.481 298.066 216.099 288.368 214.885 278.861C214.246 273.861 213.18 268.927 211.596 264.14Z" fill="black"/>
<path fill-rule="evenodd" clip-rule="evenodd" d="M167.428 232.397C165.533 231.624 163.843 230.336 162.607 228.689C162.178 228.117 162.066 227.513 162.157 226.96C162.258 226.339 162.626 225.775 163.127 225.398C163.63 225.019 164.26 224.832 164.868 224.927C165.397 225.01 165.923 225.299 166.34 225.899L166.427 226.019C167.162 227.013 168.119 227.828 169.21 228.354C170.261 228.86 171.437 229.096 172.653 228.959C174.971 228.697 176.568 227.444 178.266 225.743C178.476 225.528 178.687 225.307 178.898 225.082C179.032 224.878 179.218 224.746 179.423 224.678C179.652 224.601 179.911 224.605 180.147 224.688C180.376 224.768 180.58 224.919 180.717 225.12C180.847 225.311 180.921 225.547 180.897 225.818C180.742 227.582 179.82 229.155 178.51 230.391C177.055 231.763 175.127 232.712 173.311 233.045C171.311 233.412 169.273 233.149 167.428 232.397ZM174.255 205.196C176.383 206.489 179.625 209.504 177.336 212.71C174.641 215.536 170.762 212.295 168.85 210.83C167.077 209.694 165.086 212.615 166.73 213.942C180.545 224.166 186.151 205.534 175.331 203.676C174.14 203.471 173.697 204.796 174.255 205.196ZM149.499 193.302C149.734 190.385 154.179 189.723 154.621 192.609C155.017 195.195 154.551 197.571 153.386 199.899C152.272 202.124 149.474 201.086 149.262 199.06C148.979 196.345 149.353 195.117 149.499 193.302ZM183.332 192.011C183.952 191.2 184.846 190.646 185.918 190.959C189.267 191.937 188.28 196.69 187.104 199.004C186.465 200.26 184.399 200.579 183.466 199.473C181.944 197.669 181.215 194.066 183.15 192.289C183.202 192.197 183.26 192.104 183.332 192.011ZM153.338 180.537L153.867 180.444C155.504 180.161 157.539 179.89 158.697 181.205C159.311 181.902 159.522 183.199 158.697 183.866C157.245 185.041 155.64 184.586 153.9 184.685C152.466 184.768 151.088 185.005 149.707 185.399C146.677 186.265 144.209 187.845 141.621 189.581C141.281 189.808 140.935 189.374 141.097 189.057C142.591 186.132 145.485 183.729 148.385 182.265C149.933 181.483 151.626 180.834 153.338 180.537ZM180.279 179.227L180.684 179.31C185.09 180.23 190.815 182.07 192.902 186.396C192.981 187.008 192.897 187.139 192.829 187.225L192.806 187.254C192.75 187.327 192.705 187.428 192.44 187.511C192.366 187.493 192.292 187.475 192.217 187.455C191.26 187.204 190.504 186.859 189.771 186.501L188.977 186.11C188.055 185.658 187.125 185.223 186.14 184.901C184.037 184.216 181.874 183.733 179.678 183.475C179.202 183.419 178.743 183.258 178.382 182.983C178.039 182.722 177.776 182.36 177.657 181.879C177.502 181.257 177.546 180.786 177.88 180.224C178.131 179.803 178.491 179.511 178.903 179.343C179.324 179.172 179.803 179.131 180.279 179.227Z" fill="black"/>
</g>
<defs>
<linearGradient id="paint0_linear_397368:40520" x1="150" y1="150" x2="150" y2="300" gradientUnits="userSpaceOnUse">
<stop stop-color="#C0093D"/>
<stop offset="1" stop-color="#F5CBD7"/>
</linearGradient>
<clipPath id="clip0_397368:40520">
<rect width="300" height="300" rx="8" fill="white"/>
</clipPath>
</defs>
</svg>
