<svg width="300" height="300" viewBox="0 0 300 300" fill="none" xmlns="http://www.w3.org/2000/svg">
<rect width="300" height="300" rx="8" fill="white"/>
<rect y="150" width="300" height="150" fill="url(#paint0_linear_397368:40512)"/>
<path d="M124.55 46.165H121.145V55H119.09V46.165H115.685V44.35H124.55V46.165ZM137.827 44.35V55H135.772V50.455H130.942V55H128.872V44.35H130.942V48.655H135.772V44.35H137.827ZM143.049 55V44.35H145.119V55H143.049ZM156.686 47.14C156.596 47.04 156.406 46.91 156.116 46.75C155.826 46.58 155.476 46.43 155.066 46.3C154.666 46.16 154.251 46.09 153.821 46.09C152.691 46.09 152.126 46.49 152.126 47.29C152.126 47.58 152.216 47.81 152.396 47.98C152.576 48.15 152.846 48.295 153.206 48.415C153.566 48.535 154.016 48.665 154.556 48.805C155.256 48.985 155.861 49.195 156.371 49.435C156.891 49.675 157.286 49.995 157.556 50.395C157.836 50.785 157.976 51.305 157.976 51.955C157.976 52.715 157.791 53.33 157.421 53.8C157.061 54.26 156.581 54.595 155.981 54.805C155.381 55.015 154.731 55.12 154.031 55.12C153.231 55.12 152.436 55 151.646 54.76C150.866 54.51 150.171 54.17 149.561 53.74L150.476 51.955C150.566 52.045 150.726 52.165 150.956 52.315C151.186 52.455 151.466 52.6 151.796 52.75C152.126 52.89 152.486 53.01 152.876 53.11C153.266 53.21 153.661 53.26 154.061 53.26C155.201 53.26 155.771 52.895 155.771 52.165C155.771 51.855 155.656 51.605 155.426 51.415C155.196 51.225 154.871 51.065 154.451 50.935C154.041 50.805 153.561 50.66 153.011 50.5C152.331 50.31 151.766 50.1 151.316 49.87C150.876 49.63 150.546 49.335 150.326 48.985C150.106 48.625 149.996 48.17 149.996 47.62C149.996 46.89 150.166 46.28 150.506 45.79C150.856 45.29 151.326 44.915 151.916 44.665C152.506 44.405 153.161 44.275 153.881 44.275C154.621 44.275 155.311 44.395 155.951 44.635C156.591 44.875 157.141 45.15 157.601 45.46L156.686 47.14ZM169.144 55V44.35H171.214V55H169.144ZM182.781 47.14C182.691 47.04 182.501 46.91 182.211 46.75C181.921 46.58 181.571 46.43 181.161 46.3C180.761 46.16 180.346 46.09 179.916 46.09C178.786 46.09 178.221 46.49 178.221 47.29C178.221 47.58 178.311 47.81 178.491 47.98C178.671 48.15 178.941 48.295 179.301 48.415C179.661 48.535 180.111 48.665 180.651 48.805C181.351 48.985 181.956 49.195 182.466 49.435C182.986 49.675 183.381 49.995 183.651 50.395C183.931 50.785 184.071 51.305 184.071 51.955C184.071 52.715 183.886 53.33 183.516 53.8C183.156 54.26 182.676 54.595 182.076 54.805C181.476 55.015 180.826 55.12 180.126 55.12C179.326 55.12 178.531 55 177.741 54.76C176.961 54.51 176.266 54.17 175.656 53.74L176.571 51.955C176.661 52.045 176.821 52.165 177.051 52.315C177.281 52.455 177.561 52.6 177.891 52.75C178.221 52.89 178.581 53.01 178.971 53.11C179.361 53.21 179.756 53.26 180.156 53.26C181.296 53.26 181.866 52.895 181.866 52.165C181.866 51.855 181.751 51.605 181.521 51.415C181.291 51.225 180.966 51.065 180.546 50.935C180.136 50.805 179.656 50.66 179.106 50.5C178.426 50.31 177.861 50.1 177.411 49.87C176.971 49.63 176.641 49.335 176.421 48.985C176.201 48.625 176.091 48.17 176.091 47.62C176.091 46.89 176.261 46.28 176.601 45.79C176.951 45.29 177.421 44.915 178.011 44.665C178.601 44.405 179.256 44.275 179.976 44.275C180.716 44.275 181.406 44.395 182.046 44.635C182.686 44.875 183.236 45.15 183.696 45.46L182.781 47.14Z" fill="black"/>
<path d="M110.011 77.936C109.947 77.8507 109.723 77.6907 109.339 77.456C108.955 77.2213 108.475 76.976 107.899 76.72C107.323 76.4427 106.694 76.2187 106.011 76.048C105.328 75.856 104.646 75.76 103.963 75.76C102.086 75.76 101.147 76.3893 101.147 77.648C101.147 78.416 101.552 78.96 102.363 79.28C103.195 79.6 104.379 79.984 105.915 80.432C107.366 80.8373 108.614 81.3067 109.659 81.84C110.726 82.352 111.547 83.0453 112.123 83.92C112.699 84.7733 112.987 85.904 112.987 87.312C112.987 88.592 112.752 89.68 112.283 90.576C111.814 91.4507 111.174 92.1653 110.363 92.72C109.552 93.2533 108.635 93.648 107.611 93.904C106.608 94.1387 105.563 94.256 104.475 94.256C102.79 94.256 101.083 94.0107 99.3551 93.52C97.6271 93.008 96.1018 92.3147 94.7791 91.44L97.0831 86.864C97.1685 86.9707 97.4458 87.1733 97.9151 87.472C98.3845 87.7493 98.9711 88.048 99.6751 88.368C100.379 88.688 101.147 88.9653 101.979 89.2C102.832 89.4133 103.696 89.52 104.571 89.52C106.427 89.52 107.355 88.9547 107.355 87.824C107.355 87.248 107.11 86.8 106.619 86.48C106.15 86.1387 105.499 85.8507 104.667 85.616C103.835 85.36 102.896 85.072 101.851 84.752C99.7605 84.112 98.2138 83.3333 97.2111 82.416C96.2298 81.4987 95.7391 80.1867 95.7391 78.48C95.7391 76.88 96.1125 75.536 96.8591 74.448C97.6271 73.3387 98.6511 72.5067 99.9311 71.952C101.211 71.376 102.608 71.088 104.123 71.088C105.723 71.088 107.238 71.3653 108.667 71.92C110.096 72.4533 111.312 73.008 112.315 73.584L110.011 77.936ZM132.718 94H127.598V84.56C127.598 83.472 127.374 82.672 126.926 82.16C126.499 81.648 125.923 81.392 125.198 81.392C124.6 81.392 123.928 81.6693 123.182 82.224C122.456 82.7573 121.944 83.472 121.646 84.368V94H116.526V70.64H121.646V80.016C122.243 79.0133 123.054 78.2453 124.078 77.712C125.102 77.1573 126.222 76.88 127.438 76.88C128.568 76.88 129.486 77.072 130.19 77.456C130.894 77.84 131.427 78.352 131.79 78.992C132.152 79.6107 132.398 80.2933 132.526 81.04C132.654 81.7867 132.718 82.5227 132.718 83.248V94ZM147.775 81.584C146.538 81.6053 145.418 81.808 144.415 82.192C143.413 82.576 142.687 83.152 142.239 83.92V94H137.119V77.2H141.823V80.592C142.399 79.4613 143.146 78.576 144.063 77.936C144.981 77.296 145.941 76.9653 146.943 76.944C147.37 76.944 147.647 76.9547 147.775 76.976V81.584ZM158.839 94.32C156.94 94.32 155.319 93.9253 153.975 93.136C152.631 92.3467 151.596 91.3013 150.871 90C150.167 88.6987 149.815 87.2907 149.815 85.776C149.815 84.1547 150.167 82.672 150.871 81.328C151.575 79.984 152.599 78.9067 153.943 78.096C155.287 77.2853 156.919 76.88 158.839 76.88C160.738 76.88 162.359 77.2853 163.703 78.096C165.047 78.9067 166.06 79.9733 166.743 81.296C167.447 82.6187 167.799 84.0373 167.799 85.552C167.799 86.1707 167.756 86.7147 167.671 87.184H155.255C155.34 88.3147 155.746 89.1787 156.471 89.776C157.218 90.352 158.06 90.64 158.999 90.64C159.746 90.64 160.46 90.4587 161.143 90.096C161.826 89.7333 162.295 89.2427 162.551 88.624L166.903 89.84C166.242 91.1627 165.207 92.24 163.799 93.072C162.412 93.904 160.759 94.32 158.839 94.32ZM155.127 84.048H162.423C162.316 82.9813 161.922 82.1387 161.239 81.52C160.578 80.88 159.756 80.56 158.775 80.56C157.794 80.56 156.962 80.88 156.279 81.52C155.618 82.16 155.234 83.0027 155.127 84.048ZM170.685 96.528C171.56 96.8053 172.296 96.944 172.893 96.944C173.49 96.944 173.96 96.7307 174.301 96.304C174.664 95.8773 174.984 95.1093 175.261 94L168.861 77.2H174.141L178.045 88.752L181.373 77.2H186.205L179.805 96.72C179.357 98.1067 178.546 99.2267 177.373 100.08C176.221 100.955 174.866 101.392 173.309 101.392C172.413 101.392 171.538 101.232 170.685 100.912V96.528ZM187.751 88.976C187.751 87.8667 188.06 86.896 188.679 86.064C189.298 85.232 190.151 84.5813 191.239 84.112C192.327 83.6213 193.575 83.376 194.983 83.376C195.666 83.376 196.338 83.44 196.999 83.568C197.66 83.6747 198.236 83.8347 198.727 84.048V83.312C198.727 81.4133 197.607 80.464 195.367 80.464C194.428 80.464 193.543 80.624 192.711 80.944C191.9 81.264 191.036 81.7227 190.119 82.32L188.583 79.056C190.802 77.6053 193.234 76.88 195.879 76.88C198.396 76.88 200.348 77.488 201.735 78.704C203.143 79.8987 203.847 81.6373 203.847 83.92V88.304C203.847 88.816 203.922 89.1787 204.071 89.392C204.242 89.6053 204.53 89.7227 204.935 89.744V94C204.487 94.0853 204.082 94.1493 203.719 94.192C203.356 94.2347 203.036 94.256 202.759 94.256C201.799 94.256 201.063 94.064 200.551 93.68C200.06 93.296 199.751 92.7733 199.623 92.112L199.527 91.376C198.78 92.336 197.884 93.072 196.839 93.584C195.794 94.0747 194.716 94.32 193.607 94.32C192.498 94.32 191.495 94.0853 190.599 93.616C189.724 93.1467 189.031 92.5173 188.519 91.728C188.007 90.9173 187.751 90 187.751 88.976ZM197.927 89.616C198.46 89.1893 198.727 88.752 198.727 88.304V86.8C198.279 86.6293 197.788 86.5013 197.255 86.416C196.743 86.3093 196.274 86.256 195.847 86.256C194.887 86.256 194.098 86.4693 193.479 86.896C192.882 87.3227 192.583 87.8667 192.583 88.528C192.583 89.104 192.807 89.6053 193.255 90.032C193.724 90.4373 194.343 90.64 195.111 90.64C195.623 90.64 196.135 90.544 196.647 90.352C197.159 90.16 197.586 89.9147 197.927 89.616Z" fill="black"/>
<path fill-rule="evenodd" clip-rule="evenodd" d="M130.837 135.776C175.284 133.585 205.442 168.725 206.74 182.738C207.64 192.466 207.029 205.438 207.029 214.13C207.029 218.567 209.262 232.053 206.74 238.52C201.125 252.913 194.782 264.187 177.205 264.187C159.629 264.187 132.834 255.054 123.633 243.275C121.953 241.125 101.078 225.382 101.078 213.007C101.078 186.606 99.1214 137.34 130.837 135.776Z" fill="#D08B5B"/>
<path fill-rule="evenodd" clip-rule="evenodd" d="M100.515 107.261C103.048 106.467 104.664 107.61 105.818 109.38C106.072 109.331 106.318 109.334 106.592 109.4C106.66 109.417 106.824 109.479 106.948 109.527C107.043 109.568 107.13 109.616 107.213 109.668L107.263 109.642C107.453 109.434 107.653 109.245 107.868 109.092C108.353 108.748 108.852 108.648 109.325 108.719L109.545 108.638C111.42 107.983 113.452 108.287 114.724 109.906C114.97 110.219 115.169 110.567 115.338 110.935C115.72 111.06 116.077 111.241 116.386 111.464C116.602 111.362 116.831 111.276 117.076 111.213C118.459 110.857 119.912 111.193 121.039 112.043C121.588 112.457 121.992 112.975 122.298 113.566C122.647 113.648 122.992 113.796 123.314 113.994C123.592 113.856 123.874 113.726 124.162 113.637C125.218 113.312 126.351 113.192 127.45 113.274C129.819 113.45 132.109 116.162 130.526 118.491L130.477 118.561C130.276 118.842 130.102 119.132 129.94 119.427C130.507 119.674 131.053 120.005 131.557 120.419C134.024 122.447 134.246 125.572 133.785 128.519L133.765 128.642H133.771C135.082 128.767 136.214 130.139 135.439 131.43L135.402 131.491C134.353 133.115 133.455 134.908 132.453 136.617C129.682 137.618 127.009 138.852 124.493 140.347C122.926 141.723 121.433 143.178 120.12 144.797C119.465 145.606 118.863 146.461 118.31 147.349C118.752 147.562 119.299 147.551 119.761 147.122C123.872 143.303 128.839 140.622 134.128 138.826C134.509 138.696 134.758 138.452 134.899 138.164C137.246 137.493 139.635 136.973 142.048 136.605C142.713 135.97 143.41 135.362 144.072 134.73C144.918 133.922 145.977 133.934 146.768 134.441C147.161 134.262 147.563 134.103 147.971 133.961L148.224 133.874C148.329 133.84 148.43 133.799 148.534 133.768C151.365 132.9 153.955 133.222 156.739 133.935L157.096 134.028C158.394 134.373 159.211 134.318 160.469 134L160.61 133.964C161.946 133.615 163.375 133.356 164.74 133.724C166.169 134.109 167.116 134.965 168.089 135.999L168.187 136.103C168.641 136.59 168.903 136.643 169.498 136.631L170.134 136.612C172.537 136.546 174.89 136.648 176.69 138.511C177.355 139.2 178.069 140.175 178.498 141.065L178.56 141.198C178.58 141.241 178.597 141.277 178.614 141.31C178.872 141.268 179.274 141.104 179.465 141.067C182.084 140.558 184.269 141.342 185.95 143.411C186.318 143.864 186.874 144.753 187.259 145.241C187.394 145.356 187.521 145.479 187.641 145.608C188.273 146.012 189.168 145.987 189.875 146.128C191.805 146.513 193.867 147.249 194.848 149.09C195.258 149.858 195.409 150.698 195.582 151.538C196.231 151.965 196.739 152.581 197.134 153.247C197.614 154.056 197.818 155.047 198.37 155.811C198.771 156.366 199.385 156.663 199.968 157.002L200.191 157.133C201.919 158.165 203.273 159.31 203.842 161.332L203.891 161.512C203.983 161.821 204.307 162.705 204.025 162.572C204.268 162.707 204.681 162.754 204.903 162.828C206.102 163.225 207.144 163.868 207.783 164.997C208.269 165.856 208.357 166.751 208.496 167.698L208.556 168.08C208.571 168.173 208.589 168.28 208.608 168.384L208.626 168.487L208.63 168.489C208.847 168.583 209.06 168.685 209.27 168.795C210.264 169.382 210.943 170.4 210.943 171.578C210.943 172.15 210.765 172.596 210.506 172.994C210.715 173.312 210.878 173.652 211.001 174.03C211.242 174.769 211.259 175.577 211.178 176.341C211.08 177.259 210.845 178.094 210.569 178.97C210.462 179.308 210.419 179.78 210.259 180.103C210.555 180.482 210.731 180.944 210.676 181.4C210.598 182.053 210.301 182.816 209.711 183.182C209.423 184.608 208.803 186.065 208.192 187.23C208.121 187.366 208.036 187.486 207.943 187.586C208.028 192.24 207.687 196.926 207.664 201.574C207.638 206.633 207.743 211.696 207.919 216.749C208.215 225.125 209.274 233.786 206.808 241.953C204.79 248.638 200.749 254.376 195.33 258.727C189.782 263.178 183.093 265.754 175.99 266.156C172.377 266.359 168.703 265.947 165.207 265.01L164.834 264.908C161.452 263.977 157.535 262.554 155.046 260.062C153.733 258.745 155.061 255.955 156.988 256.722C158.897 257.484 160.609 258.61 162.504 259.403C164.196 260.112 165.961 260.656 167.75 261.056C171.336 261.864 175.14 262.041 178.785 261.538C191.946 259.733 202.201 248.776 204.224 235.785C204.784 232.187 204.774 228.53 204.736 224.895L204.694 220.911C204.662 217.579 204.65 214.245 204.773 210.914C204.928 206.628 205.23 202.344 205.635 198.076L205.845 195.855C206.096 193.256 206.378 190.637 206.863 188.074C206.465 188.095 203.326 182.71 201.583 179.701C200.947 179.196 200.41 178.567 200.203 177.755C200.16 177.585 200.137 177.414 200.124 177.242C199.746 176.647 199.347 176.066 198.925 175.503L198.833 175.461C198.763 175.429 198.708 175.402 198.676 175.384C197.757 174.861 196.989 174.07 196.464 173.153C196.287 172.844 196.142 172.521 196.024 172.191C195.274 171.454 194.491 170.75 193.667 170.091C193.586 170.026 193.503 169.966 193.421 169.902C192.373 169.51 191.453 168.919 190.782 168.068C190.501 167.894 190.219 167.723 189.934 167.556C189.08 167.548 188.216 167.349 187.376 167.003C185.84 166.37 184.613 165.12 183.069 164.54C181.436 163.928 179.716 165.32 177.982 165.069C177.539 165.004 177.1 164.87 176.692 164.674C175.715 165.711 174.678 166.689 173.536 167.545C171.877 168.787 170.181 169.355 168.258 169.916C167.305 170.822 166.238 171.701 164.952 171.83C161.974 174.216 158.79 176.229 155.439 178.097C154.9 178.398 154.364 178.533 153.856 178.537C152.805 179.198 151.658 179.707 150.446 180.059C150.066 180.169 149.675 180.193 149.289 180.145L148.238 181.004C147.506 181.601 146.725 181.887 145.978 181.905C145.524 182.254 145.053 182.584 144.568 182.902C144.049 183.243 143.375 183.384 142.698 183.343C141.665 184.356 140.324 184.463 139.202 183.996C139.047 184.086 138.889 184.172 138.711 184.257C138.468 184.372 138.216 184.469 137.958 184.547C136.787 185.812 135.074 186.475 133.357 186.302C132.075 187.089 130.582 187.498 129.123 187.406C128.901 188.527 128.717 189.652 128.561 190.78L128.545 191.607C128.543 191.741 128.543 191.846 128.545 191.914L128.546 191.942C128.688 195.566 128.766 199.192 128.908 202.818L128.92 203.104C129.081 206.271 129.858 212.045 125.215 211.919C123.484 211.872 121.767 210.595 120.42 209.545L120.23 209.396C120.127 209.316 120.021 209.233 119.914 209.149C118.907 209.018 117.915 208.773 116.898 208.735C115.642 208.691 114.323 208.82 113.1 209.106C110.942 209.608 108.854 210.593 107.446 212.378C107.323 212.533 107.209 212.698 107.1 212.863C107 213.201 106.83 213.512 106.604 213.783C105.273 216.784 106.042 220.751 107.514 223.496C109.267 226.767 112.042 229.028 115.532 230.166L115.707 230.222C118.091 230.969 119.003 232.416 120.299 234.426C121.513 236.314 122.906 238.072 124.402 239.742C127.296 242.973 131.358 245.639 133.041 249.728C133.381 250.552 132.407 251.328 131.654 251.116C128.701 250.284 126.63 248.176 124.484 246.08C122.998 244.629 121.57 243.119 120.229 241.533C119.948 241.663 119.639 241.75 119.316 241.79C117.894 241.964 116.427 241.892 115.182 241.123C114.608 241.175 114.01 240.976 113.566 240.568C113.159 240.193 112.808 239.787 112.511 239.355C112.06 239.395 111.617 239.407 111.194 239.337C110.991 239.318 110.793 239.264 110.612 239.176C110.276 239.043 109.957 238.837 109.665 238.523C109.072 237.885 108.845 236.983 108.954 236.127C108.837 236.102 108.72 236.072 108.605 236.032C107.816 235.765 107.208 235.233 106.82 234.509C106.125 234.118 105.5 233.589 105.026 233.026C104.449 232.341 104.014 231.57 103.758 230.717C103.494 230.594 103.238 230.451 102.992 230.285C101.231 229.09 100.223 226.848 100.914 224.774L100.938 224.709C100.973 224.616 101.036 224.457 101.114 224.277C101.103 224.131 101.091 223.985 101.083 223.838L101.059 223.397L100.706 223.247C98.9469 222.545 97.7575 221.598 97.546 219.613C97.502 219.203 97.661 218.784 97.9117 218.435L97.9105 218.325C97.7962 218.265 97.6874 218.204 97.5915 218.143C96.6323 217.529 96.0428 216.428 96.1088 215.29C96.1694 214.253 96.7427 213.425 97.3874 212.66L97.5716 212.446C97.5869 212.429 97.6039 212.409 97.6223 212.388L97.1961 212.254C96.9196 212.166 96.6664 212.078 96.4842 211.975C95.7792 211.579 95.1816 211.044 94.8129 210.364C94.7593 210.279 94.7047 210.197 94.6555 210.107C94.1795 209.236 94.1174 208.121 94.4244 207.186C94.4607 207.076 94.5077 206.972 94.5558 206.869C93.2596 206.411 92.2617 205.464 92.1414 203.72C92.0942 203.034 92.2441 202.35 92.5699 201.765C92.4977 201.371 92.4828 200.962 92.5294 200.558C92.0734 200.126 91.7192 199.606 91.5608 198.971C91.2614 197.772 91.8095 196.631 92.6241 195.584C92.3227 194.757 92.3071 193.824 92.6514 192.991C92.5189 192.575 92.4435 192.136 92.4394 191.684C92.4303 190.685 92.7373 189.851 93.2332 189.141C92.5362 188.286 92.2051 187.151 92.6168 186.087C92.9098 185.331 93.2446 184.639 93.6306 183.998C93.4279 183.511 93.31 182.965 93.31 182.354C93.31 181.254 93.7212 180.383 94.3502 179.67C94.0772 178.368 94.6323 176.782 95.8422 176.209C96.2982 175.993 96.9088 175.767 97.5815 175.591C97.834 174.8 98.0976 174.013 98.3759 173.231C98.8143 172 99.2859 170.786 99.7856 169.586C99.4979 169.839 99.1961 170.074 98.8841 170.288C97.8973 171.545 96.5891 172.635 95.4898 173.287C93.3103 174.579 90.8177 173.812 89.7418 171.65C88.7307 172.407 87.5172 172.855 86.2225 172.702C84.7545 172.528 83.4123 171.575 83.0457 170.088C82.9927 169.873 82.9607 169.64 82.9575 169.406C82.1156 170.007 81.2346 170.56 80.2684 170.877C79.0376 171.28 77.7813 170.313 77.6189 169.107C77.5547 168.63 77.6438 168.207 77.8335 167.851L77.7133 167.803C77.6934 167.795 77.6735 167.786 77.6538 167.777C77.0083 167.474 76.5072 166.918 76.269 166.277C74.8714 166.82 73.2715 166.184 72.8281 164.643C72.3002 162.812 72.2683 160.957 72.6814 159.173C71.2005 158.094 70.2357 156.28 70.0715 154.384C69.9516 153.023 70.2756 151.766 70.8466 150.604C69.446 150.079 68.9645 148.239 69.6302 146.913C68.746 146.406 68.1695 145.33 68.1566 144.283C67.7616 143.683 67.6352 142.911 67.9628 142.045C68.3947 140.905 69.2745 139.951 70.2818 139.203C69.8425 138.436 69.5161 137.6 69.3135 136.736C68.4789 136.491 67.8053 135.814 67.6681 134.798C67.4962 133.524 68.3329 132.444 69.4589 132.159C69.5839 131.77 69.7363 131.391 69.9249 131.026C69.3677 129.703 69.4498 128.031 70.1683 126.584C70.8046 125.305 71.8398 124.523 73.0861 123.983C72.7694 122.895 73.1888 121.81 74.2445 121.002C75.5333 120.013 76.9467 119.258 78.4321 118.725C78.3001 116.954 79.0385 115.141 80.7836 114.523C81.2502 114.358 81.7358 114.298 82.2293 114.3C82.5877 113.518 83.1856 112.883 83.966 112.321C85.1468 111.471 87.3535 111.991 88.0084 113.324L88.0404 113.392C88.0738 113.468 88.1099 113.537 88.1442 113.61C88.2761 112.963 88.5846 112.351 89.0805 111.85C90.3201 110.597 91.6288 110.573 92.8883 111.109C93.1194 110.535 93.3992 109.989 93.7394 109.489C94.9742 107.677 97.0144 107.446 98.5082 108.428C99.107 107.9 99.7753 107.493 100.515 107.261ZM109.344 216.232C111.83 215.256 114.848 215.544 117.305 216.482L117.485 216.552C119.656 217.412 123.182 219.326 123.607 221.773C123.827 223.041 122.625 224.137 121.405 223.47C120.343 222.891 119.748 221.723 118.903 220.877C118.068 220.039 117.132 219.366 116.112 218.775C113.983 217.543 111.745 217.064 109.344 216.708C109.074 216.67 109.147 216.308 109.344 216.232Z" fill="black"/>
<path fill-rule="evenodd" clip-rule="evenodd" d="M185.138 245.754C182.785 246.434 180.259 246.495 177.861 245.793C175.685 245.156 173.452 243.754 171.85 241.899C170.428 240.251 169.507 238.249 169.543 236.112C169.547 235.868 169.635 235.664 169.769 235.506C169.914 235.335 170.117 235.218 170.333 235.168C170.556 235.115 170.792 235.134 170.993 235.225C171.174 235.307 171.33 235.447 171.427 235.652C171.673 235.974 171.919 236.292 172.165 236.601C174.143 239.038 176.059 240.86 179.034 241.513C180.648 241.867 182.261 241.71 183.74 241.169C185.323 240.59 186.754 239.572 187.876 238.269C188.383 237.68 188.981 237.44 189.567 237.436C190.23 237.432 190.885 237.739 191.379 238.23C191.864 238.713 192.189 239.37 192.219 240.056C192.245 240.659 192.048 241.288 191.524 241.85C189.797 243.7 187.559 245.055 185.138 245.754ZM185.066 215.227C187.478 216.69 191.153 220.101 188.558 223.727C185.504 226.925 181.106 223.259 178.939 221.6C176.93 220.315 174.672 223.62 176.536 225.121C192.196 236.687 198.55 215.61 186.286 213.507C184.935 213.276 184.434 214.775 185.066 215.227ZM162.502 208.791C161.727 208.296 160.815 208.126 159.804 208.585C159.014 208.943 157.629 210.138 156.665 211.708C156.005 212.783 155.538 214.043 155.635 215.356C155.658 215.661 155.545 215.886 155.366 216.052C155.226 216.183 155.023 216.279 154.784 216.31C154.581 216.335 154.355 216.312 154.17 216.255C153.819 216.145 153.634 215.918 153.564 215.733C152.889 213.945 153.18 211.949 153.936 210.148C154.957 207.718 156.811 205.683 158.026 205.027C160.105 203.903 162.557 203.851 164.638 204.996C166.41 205.97 167.518 207.542 168.62 209.145C168.855 209.486 169.087 209.824 169.327 210.157C169.809 210.823 169.857 211.483 169.671 212.049C169.464 212.677 168.937 213.206 168.278 213.483C167.669 213.739 166.963 213.775 166.338 213.512C165.809 213.29 165.325 212.857 165.018 212.121C164.501 210.883 163.64 209.517 162.502 208.791ZM201.876 211.545C201.345 211.821 200.929 211.905 200.34 211.729C200.015 211.631 199.693 211.444 199.441 211.193C199.191 210.943 199.011 210.633 198.941 210.29C198.768 209.441 198.303 208.647 197.64 208.129C197.073 207.687 196.358 207.452 195.565 207.585C194.708 207.727 193.893 208.275 193.331 208.921C193.143 209.137 192.996 209.382 192.848 209.626C192.571 210.082 192.302 210.506 191.92 210.841C191.776 210.968 191.557 211.056 191.346 211.056C191.26 211.056 191.173 211.043 191.09 211.017C190.238 210.163 190.074 209.516 190.102 208.874C190.131 208.201 190.397 207.519 190.827 206.883C191.835 205.391 193.75 204.167 195.042 203.89C196.812 203.511 198.57 203.966 199.979 204.953C201.429 205.967 202.503 207.543 202.838 209.318C202.919 209.746 202.885 210.207 202.721 210.607C202.562 210.998 202.284 211.333 201.876 211.545ZM166.405 192.883C165.343 193.915 164.086 194.075 162.814 194.217C162.108 194.297 161.543 194.361 160.988 194.486C159.463 194.83 157.955 195.347 156.579 196.093C155.141 196.872 153.573 197.811 152.446 199.015C152.177 199.302 151.925 199.602 151.672 199.903C151.441 200.178 151.218 200.442 150.984 200.697C150.715 200.99 150.46 201.297 150.205 201.603C150.048 201.862 150.017 201.925 149.985 201.991C149.938 202.091 149.882 202.202 149.819 202.321C149.732 202.485 149.631 202.663 149.525 202.826C149.348 203.122 149.253 203.204 149.171 203.24C149.035 203.301 148.906 203.331 148.781 203.314C148.663 203.299 148.553 203.243 148.443 203.151C147.898 202.691 147.737 201.937 147.754 201.136C147.779 199.921 148.228 198.576 148.642 197.749C149.605 195.827 150.94 193.83 152.546 192.396C154.378 190.759 156.383 189.519 158.685 188.665C160.116 188.134 161.772 187.647 163.331 187.709C164.453 187.753 165.524 188.086 166.409 188.917C166.952 189.427 167.213 190.152 167.213 190.877C167.213 191.617 166.942 192.361 166.405 192.883ZM204.036 202.337C203.968 202.447 203.875 202.523 203.771 202.569C203.662 202.617 203.54 202.631 203.423 202.611C203.307 202.591 203.196 202.539 203.108 202.458C203.024 202.381 202.96 202.279 202.932 202.154C202.227 199.064 200.857 196.765 197.935 195.283C196.498 194.554 194.845 194.09 193.28 193.721C192.825 193.613 192.344 193.544 191.861 193.473C190.344 193.252 188.816 192.999 187.828 191.776C187.232 191.04 186.982 190.098 187.123 189.236C187.256 188.425 187.732 187.681 188.595 187.235C190.746 186.126 193.418 187.214 195.59 188.141C195.751 188.21 195.909 188.278 196.064 188.343C198.188 189.237 200.125 190.418 201.717 192.106C202.98 193.445 204.151 195.425 204.622 197.462C205.014 199.157 204.922 200.887 204.036 202.337Z" fill="black"/>
<defs>
<linearGradient id="paint0_linear_397368:40512" x1="150" y1="150" x2="150" y2="300" gradientUnits="userSpaceOnUse">
<stop stop-color="#810808"/>
<stop offset="1" stop-color="#FF9898"/>
</linearGradient>
</defs>
</svg>
