<svg width="300" height="300" viewBox="0 0 300 300" fill="none" xmlns="http://www.w3.org/2000/svg">
<rect width="300" height="300" rx="8" fill="white"/>
<rect y="150" width="300" height="150" fill="url(#paint0_linear_397368:40545)"/>
<path d="M124.55 46.165H121.145V55H119.09V46.165H115.685V44.35H124.55V46.165ZM137.827 44.35V55H135.772V50.455H130.942V55H128.872V44.35H130.942V48.655H135.772V44.35H137.827ZM143.049 55V44.35H145.119V55H143.049ZM156.686 47.14C156.596 47.04 156.406 46.91 156.116 46.75C155.826 46.58 155.476 46.43 155.066 46.3C154.666 46.16 154.251 46.09 153.821 46.09C152.691 46.09 152.126 46.49 152.126 47.29C152.126 47.58 152.216 47.81 152.396 47.98C152.576 48.15 152.846 48.295 153.206 48.415C153.566 48.535 154.016 48.665 154.556 48.805C155.256 48.985 155.861 49.195 156.371 49.435C156.891 49.675 157.286 49.995 157.556 50.395C157.836 50.785 157.976 51.305 157.976 51.955C157.976 52.715 157.791 53.33 157.421 53.8C157.061 54.26 156.581 54.595 155.981 54.805C155.381 55.015 154.731 55.12 154.031 55.12C153.231 55.12 152.436 55 151.646 54.76C150.866 54.51 150.171 54.17 149.561 53.74L150.476 51.955C150.566 52.045 150.726 52.165 150.956 52.315C151.186 52.455 151.466 52.6 151.796 52.75C152.126 52.89 152.486 53.01 152.876 53.11C153.266 53.21 153.661 53.26 154.061 53.26C155.201 53.26 155.771 52.895 155.771 52.165C155.771 51.855 155.656 51.605 155.426 51.415C155.196 51.225 154.871 51.065 154.451 50.935C154.041 50.805 153.561 50.66 153.011 50.5C152.331 50.31 151.766 50.1 151.316 49.87C150.876 49.63 150.546 49.335 150.326 48.985C150.106 48.625 149.996 48.17 149.996 47.62C149.996 46.89 150.166 46.28 150.506 45.79C150.856 45.29 151.326 44.915 151.916 44.665C152.506 44.405 153.161 44.275 153.881 44.275C154.621 44.275 155.311 44.395 155.951 44.635C156.591 44.875 157.141 45.15 157.601 45.46L156.686 47.14ZM169.144 55V44.35H171.214V55H169.144ZM182.781 47.14C182.691 47.04 182.501 46.91 182.211 46.75C181.921 46.58 181.571 46.43 181.161 46.3C180.761 46.16 180.346 46.09 179.916 46.09C178.786 46.09 178.221 46.49 178.221 47.29C178.221 47.58 178.311 47.81 178.491 47.98C178.671 48.15 178.941 48.295 179.301 48.415C179.661 48.535 180.111 48.665 180.651 48.805C181.351 48.985 181.956 49.195 182.466 49.435C182.986 49.675 183.381 49.995 183.651 50.395C183.931 50.785 184.071 51.305 184.071 51.955C184.071 52.715 183.886 53.33 183.516 53.8C183.156 54.26 182.676 54.595 182.076 54.805C181.476 55.015 180.826 55.12 180.126 55.12C179.326 55.12 178.531 55 177.741 54.76C176.961 54.51 176.266 54.17 175.656 53.74L176.571 51.955C176.661 52.045 176.821 52.165 177.051 52.315C177.281 52.455 177.561 52.6 177.891 52.75C178.221 52.89 178.581 53.01 178.971 53.11C179.361 53.21 179.756 53.26 180.156 53.26C181.296 53.26 181.866 52.895 181.866 52.165C181.866 51.855 181.751 51.605 181.521 51.415C181.291 51.225 180.966 51.065 180.546 50.935C180.136 50.805 179.656 50.66 179.106 50.5C178.426 50.31 177.861 50.1 177.411 49.87C176.971 49.63 176.641 49.335 176.421 48.985C176.201 48.625 176.091 48.17 176.091 47.62C176.091 46.89 176.261 46.28 176.601 45.79C176.951 45.29 177.421 44.915 178.011 44.665C178.601 44.405 179.256 44.275 179.976 44.275C180.716 44.275 181.406 44.395 182.046 44.635C182.686 44.875 183.236 45.15 183.696 45.46L182.781 47.14Z" fill="black"/>
<path d="M121.102 71.28L125.998 81.328L130.958 71.28H136.686L128.59 86.256V94H123.374V86.192L115.406 71.28H121.102ZM137.288 87.952V77.2H142.408V86.832C142.408 88.944 143.186 90 144.744 90C145.426 90 146.088 89.8187 146.728 89.456C147.368 89.072 147.933 88.4427 148.424 87.568V77.2H153.544V88.304C153.544 88.816 153.618 89.1787 153.767 89.392C153.938 89.6053 154.226 89.7227 154.632 89.744V94C154.141 94.0853 153.725 94.1493 153.384 94.192C153.042 94.2347 152.733 94.256 152.456 94.256C150.621 94.256 149.576 93.5413 149.32 92.112L149.224 91.088C148.456 92.1973 147.496 93.0187 146.344 93.552C145.213 94.064 143.944 94.32 142.536 94.32C140.829 94.32 139.528 93.776 138.632 92.688C137.736 91.6 137.288 90.0213 137.288 87.952ZM169.806 94L165.422 87.28L163.63 89.104V94H158.51V70.64H163.63V84.144L169.326 77.2H174.734L168.686 84.432L175.246 94H169.806ZM177.729 75.28V70.64H182.849V75.28H177.729ZM177.729 94V77.2H182.849V94H177.729Z" fill="black"/>
<path fill-rule="evenodd" clip-rule="evenodd" d="M207.797 177.542C202.247 143.89 159.868 137.823 132.253 144.906C131.744 138.433 127.676 132.713 122.6 128.951C101.037 113.396 75.5087 139.806 80.6195 162.567C81.5363 169.462 87.0343 177.33 94.7268 176.15C85.0576 194.495 81.2791 231.486 102.583 242.92C104.638 244.387 104.98 247.365 106.561 249.275C109.129 252.354 120.1 256.277 126.035 253.133C127.9 254.851 130.052 256.523 132.567 257.117C145.563 267.546 164.554 269.899 180.379 265.596C190.128 263.937 200.235 259.528 205.251 250.52C209.501 243.665 207.542 235.632 205.593 228.376C204.751 224.385 204.203 220.361 203.866 216.304C204.557 215.495 204.596 214.372 204.768 213.349C205.516 209.723 207.152 206.358 207.97 202.742C209.8 194.535 209.482 185.766 207.797 177.542Z" fill="#E6A476"/>
<path fill-rule="evenodd" clip-rule="evenodd" d="M87.2959 141.074C92.0901 131.921 101.489 126.757 110.888 127.466C120.504 128.19 127.864 134.837 129.568 145.569L129.618 145.895L129.72 146.592L129.627 146.624L129.672 146.703L129.753 146.838C129.848 146.994 129.965 147.171 130.125 147.403L130.339 147.709L131.059 148.721L131.11 148.794L131.263 149.015L131.572 148.906C146.64 143.631 163.423 143.685 178.425 149.294L178.879 149.465L179.298 149.627L179.534 149.689C188.732 152.127 196.082 157.991 201.113 166.388L201.265 166.643L201.418 166.905C206.011 174.812 208.366 184.586 208.2 194.399L208.194 194.699L208.192 194.747L208.166 195.043C207.948 197.398 207.357 199.503 206.134 202.713L205.977 203.12L205.735 203.741L204.981 205.656L204.797 206.132L202.634 211.826L203.034 206.111C203.079 205.476 203.104 204.918 203.125 204.066L203.129 203.912L203.177 201.494L203.192 200.954C203.199 200.703 203.207 200.476 203.217 200.254L203.232 199.924L203.261 199.412L203.268 199.305L203.254 199.19C202.794 195.558 201.131 192.457 198.269 189.519L198.119 189.367L197.968 189.216L197.787 189.037C195.679 186.97 193.546 185.389 189.13 182.488L188.939 182.363L186.372 180.689L185.412 180.057C183.294 178.659 182.003 177.753 180.638 176.697L180.344 176.468L180.114 176.287C177.751 174.412 175.906 172.569 174.489 170.582L174.357 170.395L174.078 169.994L174.277 169.566L174.274 169.572L174.274 169.57L174.283 169.524L174.297 169.448L174.311 169.355C174.336 169.171 174.357 168.931 174.372 168.66C174.378 168.562 174.383 168.462 174.386 168.36L174.391 168.207L174.393 168.075L174.341 168.231C171.605 176.148 165.121 182.753 155.981 187.628L155.704 187.775L155.39 187.94C146.382 192.613 135.363 195.296 125.809 195.372L125.501 195.373L125.197 195.374L124.962 195.18C124.086 194.456 122.472 195.358 122.766 196.647C125.481 208.58 126.05 220.931 124.392 232.832L124.334 233.247L124.327 233.287L124.264 233.623C124.209 233.923 124.157 234.231 124.1 234.585L124.01 235.157L123.665 237.474L123.508 238.467L123.44 238.869C122.856 242.247 122.116 244.545 120.772 246.527L120.643 246.714L120.511 246.841L120.382 246.97C120.117 247.244 119.951 247.465 119.869 247.62L119.852 247.654L119.842 247.675L119.866 247.685C120.293 247.838 121.167 247.807 121.896 247.607L121.986 247.581L122.071 247.554L122.661 247.362L123.073 247.942L123.195 248.113C123.421 248.426 123.657 248.741 123.951 249.126L124.298 249.578L125.101 250.611L124.364 251.121C121.88 252.841 118.406 252.499 114.715 250.886L114.571 250.822L114.519 250.797C112.759 249.863 111.607 248.735 109.709 246.33L109.486 246.047L108.641 244.96L108.319 244.554C108.095 244.272 107.903 244.039 107.71 243.814L107.646 243.739L107.421 243.482L107.371 243.382C106.442 241.507 105.114 240.261 102.789 238.92L102.461 238.733L102.251 238.589C96.3522 234.489 92.8702 228.02 91.4062 219.632C90.2617 213.074 90.3801 205.696 91.4286 197.411L91.4793 197.015L91.5333 196.604C92.4407 189.63 94.5163 183.119 97.6625 177.192L97.8261 176.886L97.9738 176.613L97.2355 176.026L96.9326 175.79C96.6818 175.597 96.499 175.464 96.3331 175.355L96.244 175.297L96.1613 175.246L96.1388 175.288L95.5757 175.227C93.1977 174.973 90.853 173.943 88.9443 172.355L88.7869 172.222L88.6342 172.069C84.9449 168.308 83.1333 163.094 83.1317 157.14C83.1304 151.877 84.5705 146.276 87.034 141.564L87.1559 141.333L87.2959 141.074Z" fill="#3E1F0C"/>
<path fill-rule="evenodd" clip-rule="evenodd" d="M207.352 194.68C207.032 198.738 205.316 202.389 203.88 206.171C204.037 203.933 203.963 201.605 204.119 199.281C202.449 184.733 182.714 180.911 175.053 169.91C175.343 169.289 175.447 163.734 174.305 165.296C169.874 184.736 143.535 194.489 125.502 194.526C124.139 193.4 121.434 194.59 121.945 196.836C124.641 208.687 125.232 221.084 123.5 233.127C122.684 237.379 122.546 242.495 120.002 246.159C117.3 248.735 120.548 248.941 122.335 248.36C122.833 249.062 123.359 249.744 123.887 250.424C121.32 252.201 117.574 251.232 114.917 250.048C111.962 248.48 110.272 245.441 108.131 243.005C106.962 240.646 105.188 239.29 102.909 238.012C90.2258 229.37 90.5533 210.414 92.374 196.713C97.6794 155.943 142.817 136.272 179.042 150.435C198.606 155.45 207.771 175.728 207.352 194.68ZM89.3627 171.599C81.6263 163.875 83.1836 150.372 88.0468 141.468C97.7917 122.864 125.47 123.468 128.785 146.019C114.67 150.866 102.759 161.26 95.6683 174.385C93.3595 174.138 91.1276 173.107 89.3627 171.599ZM207.797 177.548C202.247 143.897 159.868 137.829 132.253 144.913C131.744 138.439 127.676 132.72 122.6 128.957C101.037 113.402 75.5086 139.812 80.6194 162.573C81.5362 169.468 87.0342 177.336 94.7267 176.156C85.0575 194.501 81.2793 231.492 102.583 242.927C104.638 244.393 104.979 247.371 106.561 249.281C109.129 252.361 120.1 256.284 126.035 253.14C127.447 254.875 135.456 260.154 134.872 254.98C134.283 253.585 132.462 253.222 131.25 252.533C128.702 251.123 126.489 249.135 124.749 246.801C130.212 231.359 129.796 214.165 126.736 198.265C145.024 197.342 166.543 189.306 174.61 171.66C180.063 184.502 196.973 186.154 201.245 200.512C201.503 208.054 199.89 215.483 201.059 223.028C201.403 230.418 205.3 237.759 203.046 245.101C196.752 261.11 174.095 263.46 159.125 262.79C155.57 262.496 152.619 260.57 149.696 258.741C147.944 257.907 145.858 259.651 146.932 261.512C151.03 267.246 159.46 267.747 165.933 267.54C182.732 266.542 207.01 261.566 207.882 240.77C207.328 232.527 204.102 224.637 203.866 216.31C204.557 215.501 204.596 214.378 204.768 213.355C205.516 209.729 207.152 206.364 207.97 202.749C209.8 194.541 209.482 185.773 207.797 177.548Z" fill="black"/>
<path fill-rule="evenodd" clip-rule="evenodd" d="M174.314 245.257C172.417 244.483 170.724 243.191 169.486 241.541C169.056 240.968 168.944 240.362 169.035 239.808C169.136 239.185 169.505 238.62 170.007 238.242C170.511 237.862 171.141 237.674 171.751 237.77C172.28 237.853 172.808 238.143 173.225 238.744L173.312 238.865C174.048 239.861 175.007 240.678 176.099 241.205C177.152 241.712 178.33 241.949 179.549 241.811C181.87 241.549 183.47 240.293 185.171 238.588C185.381 238.372 185.592 238.15 185.804 237.925C185.938 237.72 186.124 237.589 186.33 237.52C186.559 237.443 186.818 237.447 187.055 237.53C187.284 237.61 187.489 237.762 187.626 237.963C187.756 238.155 187.83 238.391 187.806 238.663C187.651 240.431 186.727 242.008 185.415 243.246C183.958 244.622 182.026 245.574 180.208 245.907C178.204 246.275 176.163 246.012 174.314 245.257ZM181.153 217.992C183.284 219.288 186.532 222.31 184.239 225.523C181.54 228.357 177.654 225.108 175.739 223.639C173.964 222.5 171.969 225.429 173.616 226.758C187.453 237.007 193.069 218.331 182.231 216.468C181.038 216.263 180.594 217.591 181.153 217.992ZM156.356 206.07C156.592 203.146 161.044 202.482 161.487 205.376C161.883 207.968 161.416 210.349 160.249 212.683C159.134 214.912 156.331 213.872 156.119 211.842C155.835 209.12 156.21 207.889 156.356 206.07ZM190.245 204.776C190.866 203.962 191.762 203.407 192.836 203.721C196.19 204.702 195.202 209.466 194.023 211.785C193.383 213.044 191.314 213.364 190.379 212.255C188.855 210.447 188.125 206.835 190.063 205.054C190.115 204.962 190.173 204.869 190.245 204.776ZM160.202 193.274L160.732 193.182C162.371 192.898 164.409 192.625 165.569 193.944C166.184 194.643 166.396 195.943 165.569 196.612C164.115 197.789 162.507 197.333 160.764 197.433C159.328 197.515 157.948 197.753 156.565 198.148C153.53 199.016 151.057 200.6 148.465 202.34C148.125 202.568 147.778 202.133 147.94 201.814C149.436 198.883 152.336 196.474 155.24 195.006C156.791 194.223 158.487 193.573 160.202 193.274ZM187.187 191.961L187.593 192.044C192.006 192.967 197.741 194.811 199.831 199.148C199.911 199.761 199.826 199.892 199.758 199.978L199.735 200.007C199.679 200.08 199.634 200.181 199.368 200.265C199.294 200.247 199.22 200.229 199.145 200.209C198.187 199.958 197.429 199.612 196.695 199.253L195.899 198.86C194.976 198.408 194.045 197.971 193.058 197.649C190.951 196.962 188.785 196.478 186.585 196.219C186.108 196.163 185.649 196.002 185.287 195.726C184.943 195.465 184.68 195.102 184.56 194.62C184.405 193.996 184.45 193.524 184.784 192.961C185.036 192.539 185.396 192.246 185.809 192.077C186.231 191.906 186.71 191.866 187.187 191.961Z" fill="black"/>
<path fill-rule="evenodd" clip-rule="evenodd" d="M202.549 207.939C200.322 223.006 184.779 224.672 182.017 209.714C182.461 209.52 182.779 209.138 182.713 208.396C182.697 205.136 183.709 201.691 186.648 199.878C189.685 198.008 193.24 197.822 196.755 197.87C203.463 197.71 203.322 203.319 202.549 207.939ZM179.584 201.386C177.479 201.298 174.816 201.372 172.93 202.655C172.411 201.258 171.064 199.767 169.703 198.97C174.762 199.118 179.97 198.62 185.066 198.233C183.846 199.065 182.711 200.315 181.974 201.76C181.289 201.395 180.309 201.429 179.584 201.386ZM170.305 209.536C164.467 229.637 149.896 220.876 148.308 218.3C145.443 214.037 144.903 203.675 147.399 200.904C150.972 198.398 156.03 199.043 160.251 198.982C168.004 199.086 173.511 201.407 170.305 209.536ZM209.441 200.291C207.855 200.084 206.161 200.042 204.686 200.741C204.232 198.81 202.807 197.196 201.197 196.486C201.003 196.241 201.032 196.11 200.366 196.147C196.281 194.918 191.708 195.568 187.782 196.828C181.581 197.35 175.075 197.762 168.822 198.482C162.964 195.851 145.287 195.465 144.188 201.951C142.806 201.744 140.453 200.656 139.292 202.132C130.774 200.688 121.973 202.695 113.419 203.589C111.265 203.986 110.156 208.261 112.6 208.203C113.975 207.83 112.558 205.541 114.409 205.369C122.662 204.467 130.735 203.187 139.074 203.038C138.783 204.478 144.588 204.572 144.674 203.731C144.687 203.737 144.7 203.741 144.712 203.747C143.278 209.095 144.573 216.791 147.165 220.107C150.797 224.45 159.916 225.695 163.959 222.902C169.175 220.323 174.601 207.379 173.077 203.079C175.843 202.202 178.577 202.465 181.448 202.912C180.791 204.769 179.656 209.341 181.288 209.737C180.989 218.814 189.246 224.477 196.858 220.754C203.447 217.66 205.751 207.866 204.945 201.922C205.765 203.507 212.652 201.781 209.441 200.291Z" fill="#CCCCCC"/>
<path fill-rule="evenodd" clip-rule="evenodd" d="M164.053 125.087C165.744 127.978 163.399 131.858 164.027 135.425C165.61 138.129 166.547 141.556 167.115 144.906L164.014 146.556L162.867 146.724C144.262 149.474 132.388 151.949 127.244 154.149C122.048 156.371 115.742 164.175 108.326 177.562L108.101 177.97L106.631 187.961L99.8943 190.032L96.7233 191.539C96.6465 185.754 92.9371 181.682 93.3736 174.231C94.3586 157.416 97.7792 128.972 111.995 128.194C125.279 127.467 137.049 123.725 146.401 132.1C156.486 124.549 162.37 122.212 164.053 125.087Z" fill="#3E1F0C"/>
<path fill-rule="evenodd" clip-rule="evenodd" d="M126.189 149.722C124.922 149.858 123.655 149.992 122.388 150.122C121.58 150.215 120.771 150.298 119.961 150.368C118.745 150.459 117.528 150.473 116.316 150.306C115.886 150.247 115.464 150.163 115.047 150.059C114.762 150.268 114.467 150.465 114.166 150.653L110.818 153.221C108.572 154.99 106.376 156.865 104.398 158.934C100.945 162.549 98.1315 166.778 96.363 171.462C96.2025 171.557 96.0786 171.723 96.0372 171.976C95.7248 173.897 94.8111 175.648 94.481 177.56C94.1559 179.444 94.5883 181.045 95.7684 182.538C96.0204 182.857 96.5365 182.84 96.8531 182.625C96.9267 182.77 97.2455 182.763 97.3574 182.123C97.8821 181.553 98.331 180.956 98.635 180.217C98.8589 179.673 98.4826 179.295 98.0259 179.221C98.2157 178.536 98.4296 177.858 98.6702 177.186C99.3828 175.191 100.289 173.285 101.43 171.497C102.433 169.924 103.595 168.554 104.843 167.181C104.858 167.161 104.883 167.155 104.911 167.151L105.17 166.863C105.206 166.823 105.279 166.828 105.362 166.849C105.44 166.766 105.516 166.682 105.596 166.599C105.674 166.515 105.76 166.54 105.809 166.608C105.941 166.578 106.184 166.722 106.258 166.769C106.384 166.853 106.424 166.948 106.317 167.069C106.298 167.09 106.279 167.111 106.26 167.13C106.405 167.191 106.549 167.274 106.66 167.354C107.05 167.44 107.599 167.804 107.504 167.912C107.303 168.121 107.109 168.335 106.918 168.552C107.086 168.671 107.196 168.787 107.152 168.838C106.329 169.706 105.57 170.626 104.875 171.6C104.346 172.327 103.867 173.084 103.439 173.872C102.802 174.988 102.263 176.135 101.784 177.315C101.717 177.495 101.651 177.674 101.588 177.854C100.888 179.817 100.365 181.855 100.144 183.93L100.135 184.07C100.093 184.818 100.077 186.819 100 187.297C100.466 187.527 100.951 187.724 101.455 187.885C101.55 187.912 101.647 187.937 101.744 187.961C101.799 187.937 101.856 187.918 101.913 187.901C102.376 187.713 102.861 187.578 103.357 187.512C103.691 187.468 104.023 187.453 104.355 187.462L104.497 187.468C104.645 187.472 104.79 187.483 104.938 187.498C104.929 187.413 104.925 187.331 104.919 187.246C104.877 187.219 104.845 187.181 104.843 187.13C104.744 186.179 104.742 185.228 104.837 184.277C104.9 183.78 104.974 183.285 105.054 182.791C105.136 182.385 105.231 181.986 105.334 181.586C105.608 180.466 105.973 179.373 106.416 178.304C107.677 175.254 109.483 172.504 111.301 169.77C112.627 167.773 113.881 165.731 115.253 163.767C116.421 162.095 117.648 160.449 118.958 158.885C120.265 157.323 121.646 155.82 123.136 154.43C123.376 154.208 123.619 153.992 123.866 153.779C125.278 152.511 126.813 151.469 128.411 150.446C128.472 150.406 128.582 150.45 128.672 150.526L128.93 150.367C128.973 150.341 129.017 150.315 129.06 150.289C129.1 150.264 129.144 150.306 129.168 150.342C129.277 150.285 129.387 150.23 129.497 150.175C129.576 150.111 129.659 150.049 129.739 149.985C128.554 149.926 127.371 149.837 126.189 149.722ZM141.052 135.632C140.095 135.44 139.133 135.412 138.168 135.556C137.763 135.616 137.36 135.687 136.961 135.773C137.868 136.566 138.597 137.58 139.07 138.748C139.582 140.009 137.542 140.553 137.037 139.31C136.551 138.11 135.63 137.19 134.518 136.638C134.278 136.773 134.045 136.919 133.823 137.08C133.532 137.317 133.258 137.572 133 137.854C132.44 138.465 131.925 139.28 131.588 140.088C131.457 140.527 131.36 140.979 131.299 141.444C131.286 141.55 131.274 141.658 131.263 141.766C131.055 143.953 131.679 146.081 132.753 147.964L132.795 147.965C133.753 147.444 134.756 147.005 135.787 146.648C136.614 146.09 137.472 145.574 138.355 145.107C140.233 144.114 142.217 143.348 144.26 142.825L144.497 142.765C144.978 142.642 145.464 142.533 145.951 142.438L146.244 142.383H146.248L146.217 142.068C146.052 140.831 145.57 139.684 144.946 138.623C144.478 137.822 143.771 137.002 142.987 136.347L142.983 136.345C142.627 136.142 142.252 135.974 141.867 135.835L141.722 135.784L141.052 135.632ZM115.353 133.754C113.362 133.565 111.372 133.584 109.382 133.747C108.081 133.876 106.789 134.056 105.503 134.284C104.632 134.434 103.778 134.645 102.939 134.908L103.419 135.881C104.221 137.501 105.043 139.111 106.011 140.641C106.511 141.43 107.052 142.18 107.643 142.901C108.041 143.416 108.48 143.894 108.96 144.334C109.087 144.488 109.222 144.634 109.359 144.775C109.797 145.151 110.27 145.481 110.786 145.754C111.2 146.056 111.633 146.321 112.084 146.552L112.253 146.637L113.835 147.246C113.919 147.27 114.004 147.294 114.09 147.317L114.218 147.35L114.459 147.4L114.639 147.302C114.669 147.286 114.7 147.27 114.731 147.254C114.781 147.227 114.817 147.28 114.828 147.318C114.832 147.333 114.825 147.354 114.815 147.375L115.045 147.25C115.441 147.411 115.862 147.54 116.313 147.625C116.517 147.663 116.721 147.693 116.926 147.718L116.954 147.736C116.958 147.739 116.963 147.743 116.967 147.747H117.191C118.767 147.899 120.366 147.698 121.939 147.415C124.166 147.19 126.392 146.943 128.617 146.711C128.66 146.707 128.676 146.726 128.676 146.756L128.814 146.743C129.012 146.722 129.244 147.054 129.094 147.174C129.214 147.246 129.33 147.35 129.416 147.43L129.467 147.426C129.161 146.825 128.925 146.198 128.757 145.545L128.542 144.45C128.483 144.042 128.449 143.607 128.442 143.177C128.428 142.981 128.417 142.797 128.417 142.636C128.417 142.484 128.419 142.332 128.426 142.18C128.006 142.007 127.58 141.855 127.146 141.725C125.913 141.574 124.681 141.421 123.448 141.271C122.708 141.299 121.968 141.351 121.23 141.434C120.393 141.508 119.558 141.603 118.726 141.717C118.648 141.725 118.509 141.62 118.424 141.497L118.068 141.546C117.882 141.569 117.688 141.197 117.933 141.121C118.022 141.086 118.11 141.052 118.199 141.02L118.331 140.973L118.256 140.982C118.23 140.984 118.199 140.977 118.163 140.965C117.967 140.99 117.771 141.015 117.577 141.039C117.331 141.069 117.387 140.744 117.559 140.668L117.642 140.637C117.496 140.546 117.368 140.297 117.548 140.215L117.572 140.206C117.657 140.172 117.739 140.145 117.823 140.113C117.817 140.086 117.817 140.06 117.825 140.037L117.478 140.081C117.446 140.085 117.597 139.863 117.67 139.819L117.682 139.813L117.849 139.762C117.874 139.69 118.009 139.532 118.055 139.517C118.667 139.325 119.236 139.151 119.83 139.018C119.86 138.982 119.894 138.955 119.932 138.946C120.303 138.857 120.678 138.788 121.053 138.729C121.078 138.691 121.104 138.663 121.133 138.661C122.063 138.543 122.995 138.515 123.931 138.579C124.11 138.595 124.289 138.615 124.468 138.638C124.812 138.676 125.156 138.725 125.497 138.79C126.353 138.937 127.188 139.161 128.002 139.463L128.189 139.534C128.394 139.61 128.596 139.69 128.797 139.777C128.898 139.416 129.024 139.06 129.174 138.712C129.197 138.644 129.222 138.579 129.25 138.513L129.045 138.39C129.001 138.475 128.91 138.54 128.851 138.505C127.386 137.513 125.837 136.687 124.203 136.027C123.288 135.622 122.352 135.277 121.393 134.99C120.914 134.836 120.431 134.696 119.946 134.563C119.704 134.512 119.461 134.461 119.215 134.419C117.948 134.077 116.66 133.855 115.353 133.754ZM163.633 137.108C163.456 137.416 163.27 137.722 163.074 138.023C162.121 139.485 160.978 140.857 159.683 142.054C160.021 142.053 160.358 142.066 160.691 142.097C161.265 142.151 161.827 142.247 162.375 142.381C162.42 142.345 162.469 142.327 162.509 142.355L162.652 142.454C163.828 142.773 164.932 143.273 165.932 143.943L165.914 143.81C165.911 143.788 165.907 143.766 165.903 143.744C165.92 143.484 165.924 143.224 165.916 142.966C165.709 141.442 165.193 140.039 164.603 138.619C164.591 138.591 164.599 138.556 164.617 138.519C164.319 138.032 163.993 137.56 163.633 137.108ZM163.905 125.128C163.464 125.208 163.028 125.312 162.593 125.441C161.778 125.564 160.987 125.779 160.224 126.086C159.172 126.46 158.151 126.895 157.135 127.356C155.162 128.252 153.311 129.385 151.627 130.75C151.519 130.832 151.416 130.917 151.312 131.002C150.935 131.329 150.568 131.672 150.22 132.033C149.856 132.43 149.489 132.828 149.124 133.227C148.677 133.697 148.163 134.121 147.758 134.628C147.676 134.732 147.604 134.846 147.539 134.96L147.777 135.043C147.977 135.11 147.943 135.486 147.745 135.431C147.678 135.412 147.615 135.389 147.551 135.364C147.579 135.4 147.598 135.436 147.602 135.467C147.615 135.569 147.537 135.709 147.412 135.673C147.355 135.658 147.298 135.636 147.241 135.613C147.225 135.679 147.212 135.744 147.212 135.808C147.222 135.812 147.233 135.816 147.246 135.818C147.385 135.867 147.646 136.085 147.684 136.233C147.714 136.347 147.617 136.469 147.492 136.435C147.4 136.41 147.309 136.372 147.22 136.33C147.279 136.387 147.326 136.448 147.33 136.501C147.338 136.598 147.254 136.736 147.138 136.704C146.923 136.645 146.75 136.554 146.607 136.44C146.569 136.49 146.514 136.53 146.47 136.518L146.388 136.493C146.41 136.514 146.431 136.536 146.451 136.558L146.48 136.59C147.062 137.22 147.57 137.917 147.977 138.667C147.996 138.646 148.019 138.627 148.049 138.604C148.239 138.443 148.435 138.287 148.631 138.135L148.69 138.083L148.751 138.031L148.31 138.177L148.32 138.165C148.351 138.126 148.448 137.992 148.493 137.948L148.504 137.938C149.109 137.395 149.769 136.934 150.482 136.558C150.943 136.258 151.428 136.004 151.936 135.795C153.149 135.231 154.384 134.802 155.653 134.405C155.843 134.343 156.033 134.278 156.222 134.218C156.277 134.199 156.288 134.223 156.279 134.261L156.378 134.231C156.556 134.174 156.857 134.487 156.737 134.633C156.809 134.692 156.881 134.758 156.943 134.82L156.988 134.865L157.038 134.85C157.189 134.804 157.443 135.039 157.604 135.206L157.724 135.332C157.814 135.429 157.991 135.63 157.774 135.709L157.502 135.801C157.511 135.856 157.487 135.903 157.403 135.934C157.308 135.966 157.215 136 157.123 136.034C157.179 136.083 157.234 136.134 157.289 136.186L157.369 136.264C157.465 136.362 157.691 136.577 157.491 136.672L157.466 136.683L157.207 136.776C157.241 136.852 157.232 136.924 157.118 136.966C155.605 137.482 154.127 138.086 152.683 138.773C151.601 139.373 150.459 139.821 149.255 140.115C149.156 140.147 148.941 139.997 148.852 139.847L148.672 139.9C148.642 139.909 148.613 139.917 148.582 139.925L148.553 139.931C148.778 140.534 148.945 141.187 149.038 141.818C149.048 141.876 149.057 141.935 149.063 141.992C149.299 141.973 149.533 141.956 149.769 141.943C151.403 141.857 153.056 141.909 154.694 142.104C155.356 141.709 155.993 141.275 156.602 140.806C156.787 140.662 156.971 140.514 157.152 140.364C158.24 139.418 159.225 138.355 160.097 137.207C160.905 136.144 161.607 135.002 162.197 133.806C162.72 132.684 163.152 131.517 163.479 130.313C163.778 129.211 163.882 128.14 163.958 127.001C163.983 126.815 164 126.629 164.014 126.443L164.013 126.363L164.01 126.324C163.989 125.925 163.949 125.525 163.905 125.128ZM148.458 139.282C148.409 139.299 148.359 139.316 148.308 139.331C148.338 139.396 148.365 139.46 148.393 139.525L148.396 139.524L148.595 139.367C148.553 139.348 148.504 139.318 148.458 139.282ZM163.61 122.131C163.989 121.99 164.276 121.962 164.47 122.051C164.183 122.072 163.896 122.1 163.61 122.131Z" fill="#F59797"/>
<defs>
<linearGradient id="paint0_linear_397368:40545" x1="150" y1="150" x2="150" y2="300" gradientUnits="userSpaceOnUse">
<stop stop-color="#8521F3"/>
<stop offset="1" stop-color="#DABEF8"/>
</linearGradient>
</defs>
</svg>
