<svg width="39" height="47" viewBox="0 0 39 47" fill="none" xmlns="http://www.w3.org/2000/svg">
<path fill-rule="evenodd" clip-rule="evenodd" d="M37.8788 21.5311C37.1473 17.4958 35.3436 13.6562 32.5735 10.652C32.2539 10.2953 31.9666 9.73258 31.4789 9.64266C30.9893 8.63333 30.056 7.91982 29.3099 7.10475C27.6816 5.46221 26.1236 3.62673 24.0233 2.5895C14.2815 -1.46382 4.90673 10.0937 2.91734 18.7856C0.941391 25.7756 3.09952 35.4183 11.6625 35.7012C12.8739 37.3221 14.5456 38.4441 16.2627 39.4461C18.6076 40.965 21.1656 41.5816 23.8785 40.7363C26.5803 41.4506 29.381 39.1586 31.0047 37.1485C32.2881 35.5915 33.1677 33.6913 34.3416 32.0797C35.7274 32.0447 36.925 30.8575 37.1106 29.466C38.405 27.0596 38.3461 24.176 37.8788 21.5311V21.5311Z" fill="#D08B5B"/>
<path fill-rule="evenodd" clip-rule="evenodd" d="M2.91734 18.7856C4.90673 10.0937 14.2815 -1.46382 24.0233 2.5895C26.1236 3.62673 27.6816 5.46222 29.3099 7.10475C30.056 7.91983 30.9893 8.63334 31.4789 9.64266C31.9666 9.73259 32.2539 10.2953 32.5735 10.652C35.3436 13.6562 37.1473 17.4958 37.8788 21.5311C38.3461 24.176 38.405 27.0596 37.1106 29.466C36.925 30.8575 35.7274 32.0447 34.3416 32.0797C34.0875 32.4285 33.8473 32.7907 33.6138 33.1601L33.5587 33.179L33.5518 32.7699C33.435 26.1419 33.0577 22.1409 32.42 20.767C31.7758 19.379 29.0033 16.8377 24.1026 13.143L23.9534 13.0306L22.803 12.0695L21.9102 13.0892C18.5515 16.9221 15.9224 19.8797 14.0229 21.9621C11.9789 24.203 10.2495 27.6121 8.83478 32.1893L8.79201 32.3284L11.2915 35.6829C3.03739 35.1373 0.970237 25.6736 2.91734 18.7856Z" fill="#9DDADB"/>
<path fill-rule="evenodd" clip-rule="evenodd" d="M16.6593 1.21621C18.4319 0.797227 20.2908 0.884081 22.0467 1.34455C25.5267 2.25732 28.3901 4.63091 30.7643 7.27735C33.0802 9.85869 34.9899 12.8178 36.3847 16.0056L36.4554 16.1678C37.442 18.4402 38.2994 20.8021 38.3361 23.3042C38.3678 25.4577 38.1528 27.7012 37.4651 29.7494C36.8524 31.5741 35.7256 33.4127 33.7869 33.8501C32.669 36.7248 30.4819 39.2143 27.7269 40.5464C26.0181 41.3726 24.1416 41.7415 22.2524 41.5581C20.3249 41.3711 18.5245 40.4342 17.0181 39.2393C16.9768 39.2066 17.0299 39.1431 17.0725 39.1678C18.8862 40.2252 21.0312 40.6032 23.1086 40.5336C26.5225 40.4194 29.6523 38.5553 31.4507 35.6252C31.8982 34.8959 32.2969 34.1267 32.615 33.3265C32.5964 33.2607 32.5856 33.1939 32.5856 33.1289C32.5856 32.8532 32.7149 32.6426 32.9079 32.5065C32.9973 32.2237 33.0765 31.9376 33.1426 31.6484C33.2925 30.9932 33.3761 30.3285 33.4265 29.6585C33.4674 29.1142 33.4447 28.5367 33.4988 27.9785C33.4791 27.5312 33.4518 27.0843 33.4117 26.6384C33.2828 25.2015 33.022 23.7682 32.5198 22.4139C32.011 21.0422 31.2075 19.8326 30.1937 18.7914C28.0193 16.5583 25.312 14.9278 23.1976 12.6338L23.0869 12.5124L23.0794 12.51C22.817 12.7821 22.5548 13.0542 22.2919 13.3258L21.0907 14.5653C18.6391 17.0978 16.2074 19.6549 14.0746 22.473C12.8465 24.0958 11.7431 25.7968 10.7925 27.6007C10.3423 28.4551 9.93404 29.3307 9.56508 30.224L9.41988 30.5796C9.24712 31.0051 9.06042 31.4815 8.95671 31.9621C9.26527 32.2717 9.49093 32.7268 9.74049 33.0782C10.0235 33.4768 10.35 33.8563 10.6859 34.2104C11.0259 34.5689 11.3988 34.9125 11.7946 35.2069L11.8422 35.2417C12.2964 35.5677 12.8177 35.7929 12.8858 36.4137C12.9154 36.6832 12.6772 36.9 12.4567 36.984C11.8529 37.2134 11.2275 36.5543 10.8251 36.1752C10.5741 35.9387 10.3435 35.6839 10.1295 35.4148C9.92131 35.445 9.71171 35.4601 9.50428 35.4352C9.18285 35.3966 8.86454 35.3397 8.55143 35.2564C5.95445 34.5666 4.03221 32.3856 2.99511 29.9565C1.60278 26.6954 1.63515 22.9362 2.21397 19.4876C3.27162 13.1855 6.69466 7.29999 11.8634 3.57395C13.311 2.53041 14.9162 1.62816 16.6593 1.21621ZM19.4573 2.05927C16.1182 1.88128 13.0739 3.6232 10.6315 5.79154C6.18427 9.73957 3.445 15.5201 2.89392 21.4561C2.60111 24.61 2.82021 28.0095 4.44581 30.796C5.07651 31.8772 5.88882 32.8192 6.84766 33.6135C7.75118 34.3621 8.78109 34.7935 9.88214 35.0871C9.83202 35.0172 9.78253 34.9469 9.73441 34.8755C9.4783 34.4961 9.27486 34.0929 9.10443 33.6704C9.0894 33.6856 9.06111 33.6887 9.0444 33.6655C8.34943 32.7008 8.56694 31.5497 8.8982 30.4889C9.24552 29.3762 9.68573 28.2935 10.1881 27.2433C12.0194 23.4159 14.7432 20.0816 17.5705 16.9702C19.0145 15.3812 20.5064 13.8382 21.9927 12.2899C22.735 11.5168 23.4753 10.7415 24.2062 9.95719C24.57 9.56675 24.9316 9.17429 25.2898 8.77868C25.6441 8.38752 25.9629 7.97323 26.404 7.68024C26.7556 7.44677 27.1066 7.893 26.9423 8.22489C26.6895 8.73536 26.2548 9.14004 25.8701 9.55515L25.8305 9.59813C25.4555 10.0077 25.077 10.4139 24.6963 10.8179C24.2584 11.2826 23.8171 11.7441 23.3744 12.2044C23.7519 12.1601 24.134 12.1347 24.5093 12.077C25.0189 11.9987 25.5217 11.8834 26.022 11.758C26.5492 11.6259 27.0695 11.4573 27.5718 11.2477C28.0437 11.0509 28.4896 10.7355 29.0088 10.7046C29.4483 10.6784 29.5856 11.2289 29.3421 11.5185C29.0065 11.9177 28.4032 12.0748 27.9125 12.223L27.8433 12.2442C27.3006 12.4117 26.7452 12.5375 26.1839 12.6215C25.4454 12.7321 24.5918 12.7828 23.8017 12.6695C25.3796 13.6055 26.8316 14.7655 28.2795 15.8968L28.535 16.096C29.9497 17.1972 31.3303 18.3842 32.339 19.8907C33.2805 21.2971 33.849 22.9344 34.168 24.5934C34.3254 25.4119 34.4292 26.239 34.4989 27.0697C34.7587 27.8061 34.717 28.6816 34.6515 29.4915L34.6282 29.7711L34.63 29.8531C34.6397 30.3597 34.8409 31.4875 34.367 31.87C34.359 31.9108 34.3515 31.9518 34.343 31.9926C34.402 31.9557 34.4602 31.9178 34.518 31.8788C34.5418 31.8627 34.5648 31.845 34.5881 31.8276L34.6535 31.7732C34.656 31.7711 34.6582 31.7692 34.6599 31.7677C34.807 31.6371 34.9473 31.5007 35.0781 31.3533C35.3197 31.0808 35.5495 30.7346 35.7671 30.3358C36.2452 29.4592 36.5506 28.5062 36.7868 27.5209C37.2186 25.7195 37.3968 23.7848 37.1998 21.9374C37.1723 21.6795 37.1159 21.3562 37.0284 21.0244C36.8205 20.2368 36.5814 19.4574 36.3137 18.6886C35.7782 17.1506 35.1218 15.6585 34.3564 14.2235C32.802 11.309 30.8019 8.61444 28.4056 6.35326C25.9788 4.06329 22.8316 2.23912 19.4573 2.05927ZM14.7484 11.3713C14.8688 11.2969 14.9927 11.4414 14.933 11.5581C14.6439 12.1224 14.1577 12.5989 13.7538 13.0825C13.3357 13.5833 12.9206 14.0868 12.5065 14.591C11.6633 15.6176 10.8404 16.6631 10.0499 17.7319L9.84122 18.0146C9.14625 18.9584 8.45972 19.9171 7.8522 20.9199C7.53437 21.4445 7.25427 21.987 6.99992 22.5458C6.75779 23.0776 6.64612 23.7197 6.35515 24.2193C6.33684 24.2508 6.28009 24.2482 6.27305 24.2083C6.17809 23.6704 6.4127 23.0225 6.58033 22.5187C6.77961 21.9197 7.06323 21.3491 7.36682 20.7979C8.00008 19.6483 8.75884 18.5707 9.52112 17.5061C10.2953 16.4252 11.0991 15.3663 11.9423 14.3394C12.3384 13.8571 12.7433 13.3844 13.1604 12.921L13.3174 12.7476C13.7542 12.2683 14.1945 11.7134 14.7484 11.3713ZM12.724 9.70005C12.922 9.55165 13.091 9.85491 12.9647 10.0157C12.2102 10.9759 11.3517 11.8387 10.5259 12.7343C9.73297 13.5943 8.97501 14.4865 8.25982 15.4138C6.80154 17.3048 5.63422 19.3797 4.64557 21.5544C4.62694 21.5954 4.56827 21.5648 4.57706 21.5252C5.10073 19.173 6.32502 17.0366 7.71903 15.1063L7.77205 15.0331C9.18205 13.092 10.8028 11.1407 12.724 9.70005Z" fill="black"/>
<path fill-rule="evenodd" clip-rule="evenodd" d="M28.8023 33.6833C28.538 34.0322 28.0593 34.2994 27.5233 34.4272C27.0125 34.549 26.448 34.544 25.9608 34.3566L25.9189 34.3398C25.5547 34.1871 25.2051 33.8787 25.0723 33.5569C25.0195 33.4289 25.0016 33.2989 25.0378 33.1775C25.0703 33.0684 25.1465 32.9679 25.2734 32.8816C25.3132 32.8545 25.3666 32.8525 25.4175 32.8616C25.4807 32.8728 25.543 32.9027 25.5805 32.9429C25.789 33.1667 26.0914 33.3848 26.4493 33.3811C26.7254 33.3783 26.951 33.2682 27.1697 33.1438L27.3234 33.0549C27.4716 32.9695 27.622 32.8893 27.7921 32.8526C28.0967 32.7869 28.4661 32.9069 28.6912 33.1048C28.7893 33.1911 28.8606 33.2926 28.88 33.4018C28.8963 33.4936 28.8734 33.5894 28.8023 33.6833ZM27.2189 27.5812C27.8238 27.9524 28.7455 28.818 28.0947 29.7382C27.3287 30.5496 26.2259 29.6193 25.6824 29.1985C25.1785 28.8724 24.6123 29.7111 25.0799 30.0919C29.0069 33.027 30.6006 27.6783 27.5248 27.1448C27.1862 27.086 27.0604 27.4664 27.2189 27.5812ZM20.3946 21.8763L20.5684 21.8281L20.7456 21.7799L20.8654 21.7479C21.6885 21.5304 22.5963 21.339 23.4125 21.4324C23.7101 21.4666 23.9517 21.6357 23.9939 21.9505C24.0294 22.2161 23.8593 22.5589 23.5699 22.6061C22.6113 22.7627 21.6299 22.7119 20.6669 22.8733C20.1873 22.9536 19.7114 23.0533 19.2336 23.1432C18.8703 23.2116 18.495 23.2356 18.1285 23.2909L18.2127 23.3027C18.2422 23.3068 18.2348 23.3568 18.2058 23.3548C18.085 23.3426 17.964 23.3407 17.8429 23.3493L17.791 23.3536C17.7119 23.3648 17.6653 23.2696 17.7358 23.2212C18.1822 22.9154 18.561 22.584 19.0609 22.3586C19.4932 22.1637 19.9382 22.0031 20.3946 21.8763ZM27.8876 21.4073C28.5204 20.7615 29.8662 21.0097 30.619 21.3051C31.0487 21.4738 31.4573 21.687 31.7975 22.0061L31.8307 22.0374L31.8818 22.0871C32.1115 22.3141 32.3677 22.6265 32.3312 22.9538C32.3257 23.0037 32.2988 23.0607 32.2429 23.0707C31.9414 23.1246 31.6453 22.964 31.3668 22.8674L31.1824 22.8035C30.9055 22.7083 30.6268 22.6173 30.3413 22.5516C29.9863 22.4701 29.6241 22.4229 29.2596 22.4276C28.8912 22.4325 28.4955 22.5375 28.1446 22.3898C27.7532 22.2252 27.5503 21.7516 27.8876 21.4073ZM21.6357 26.6159C21.4742 26.7824 21.2609 26.8763 20.988 26.8204C20.7748 26.7768 20.3687 26.5603 20.0444 26.2269C19.8224 25.9988 19.6369 25.7139 19.5865 25.3837C19.5747 25.307 19.5344 25.2579 19.4815 25.2269C19.4397 25.2025 19.3846 25.1902 19.3246 25.1963C19.2736 25.2015 19.2195 25.2202 19.1777 25.2449C19.0982 25.2919 19.0656 25.3586 19.059 25.4084C18.9952 25.889 19.1791 26.3659 19.4658 26.7681C19.8527 27.3108 20.4208 27.7084 20.7548 27.8015C21.3262 27.9609 21.9284 27.834 22.3723 27.4325C22.7273 27.1115 22.9093 26.6932 23.0781 26.2631L23.1107 26.1797C23.1487 26.0821 23.1864 25.9852 23.2263 25.8894C23.3063 25.6973 23.2807 25.5313 23.2031 25.4019C23.1171 25.2586 22.9585 25.1576 22.7818 25.1267C22.6186 25.098 22.4439 25.1293 22.3059 25.23C22.1894 25.3151 22.0955 25.4498 22.0621 25.6491C22.0078 25.9731 21.8819 26.3448 21.6598 26.5901L21.6357 26.6159ZM31.4346 24.7406C31.3014 24.6705 31.1972 24.6494 31.0495 24.6941C30.9678 24.7189 30.8871 24.7663 30.8239 24.8301C30.7613 24.8934 30.7161 24.972 30.6985 25.0592C30.6553 25.2745 30.5386 25.4761 30.3723 25.6075C30.2302 25.7198 30.0508 25.7793 29.8518 25.7457C29.6371 25.7095 29.4326 25.5705 29.2917 25.4066C29.2524 25.3609 29.2202 25.31 29.1891 25.2585L29.1705 25.2276C29.1011 25.1119 29.0336 25.0043 28.9379 24.9194C28.9016 24.887 28.8469 24.8647 28.794 24.8647C28.7724 24.8647 28.7506 24.8682 28.7298 24.8747C28.5161 25.0913 28.475 25.2556 28.4819 25.4185C28.4891 25.5893 28.5558 25.7623 28.6636 25.9238C28.9166 26.3024 29.3968 26.6128 29.7209 26.6831C30.1647 26.7794 30.6055 26.6638 30.9589 26.4136C31.3225 26.1561 31.5919 25.7563 31.6759 25.3058C31.6962 25.1973 31.6876 25.0802 31.6466 24.9786C31.6066 24.8794 31.5369 24.7944 31.4346 24.7406Z" fill="black"/>
<path fill-rule="evenodd" clip-rule="evenodd" d="M31.6249 21.5672C33.5051 21.5672 34.5781 21.9754 34.9713 22.0072L34.9831 22.008C35.1467 22.0186 35.2934 22.0324 35.4473 22.0925C36.0133 22.3126 36.1055 22.9118 35.7752 23.2895C35.752 24.071 35.8538 24.9841 35.6791 25.7681C35.4637 29.0733 33.9239 29.6311 33.0487 29.8347C32.6093 29.9369 32.0886 29.9776 31.6218 29.8697C30.8256 29.8397 30.0384 29.5881 29.3649 29.1499C28.4269 28.5392 27.7303 27.6005 27.5042 26.4865C27.3971 25.9554 27.347 25.4027 27.4053 24.863L27.4139 24.7886C27.1091 24.6414 26.7558 24.6135 26.3915 24.6005C26.2176 24.5943 26.0461 24.5887 25.8795 24.5961C25.7167 24.6145 25.5558 24.6389 25.3944 24.6722C25.2182 24.7259 25.0518 24.8145 24.8981 24.9548L24.8875 25.1596C24.8586 25.6712 24.7921 26.1843 24.6895 26.6862C24.538 27.4268 24.2943 28.1341 23.7756 28.6594C23.6 28.9241 23.3827 29.1604 23.119 29.365C22.1609 30.1097 20.8592 30.3831 19.6645 30.2802C17.2392 30.0712 15.8373 28.1276 15.5142 27.2968L15.4949 27.2465C15.2615 26.6288 15.0755 25.8274 14.338 25.6947L14.1812 25.6663C13.8447 25.6025 13.5341 25.5137 13.3368 25.1823C13.2503 25.0376 13.2058 24.8757 13.1949 24.7107C13.0798 24.7197 12.9648 24.7282 12.8503 24.7365C11.9364 24.9316 6.45497 25.097 6.01744 25.097C6.01744 25.097 5.17641 25.4544 4.82133 25.1775C4.57521 24.9849 4.49424 24.7283 4.62972 24.4376C4.83415 24.0002 5.77728 23.7372 6.19606 23.6538C6.19606 23.6538 12.9542 23.7105 13.4406 23.6174C13.7415 23.3041 14.2798 23.347 14.7297 23.2975C15.1021 23.0294 15.623 22.8499 16.0345 22.7297C16.1184 22.6976 16.2014 22.6666 16.2821 22.6374C17.0365 22.3662 17.8206 22.2225 18.6167 22.1454C19.4376 22.0666 20.261 22.1022 21.0771 22.2151C21.421 22.2622 21.7617 22.3231 22.1 22.4028C22.7058 22.4834 23.3081 22.6162 23.9141 22.7737L24.0353 22.8055C24.6735 22.9744 25.3292 23.1205 25.9898 23.006C26.5276 22.9134 27.0448 22.7045 27.5407 22.4785L27.6052 22.449C28.6955 21.9464 30.3982 21.5672 31.6249 21.5672ZM22.0345 23.4047C21.6322 23.3154 21.4604 23.9416 21.8639 24.0311C22.1497 24.0946 22.3919 24.24 22.5556 24.4865L22.5728 24.5133C22.7924 24.8661 23.3476 24.5404 23.1265 24.1854C22.8778 23.7859 22.4912 23.5061 22.0345 23.4047ZM33.8169 23.0165C33.6751 22.9157 33.4605 22.9905 33.3781 23.133C33.2875 23.29 33.3469 23.4647 33.4797 23.5674L33.4933 23.5774C33.6151 23.6641 33.7338 23.8194 33.7487 23.9787L33.75 23.9986C33.7659 24.4152 34.4073 24.4173 34.3913 23.9986C34.3757 23.5889 34.1407 23.2466 33.8169 23.0165Z" fill="black"/>
</svg>
