<svg width="306" height="302" viewBox="0 0 306 302" fill="none" xmlns="http://www.w3.org/2000/svg">
<rect width="306" height="302" rx="40" fill="#9D9B9B" fill-opacity="0.31"/>
<path d="M30.548 202.252C30.548 204.34 29.828 206.08 28.388 207.472C26.972 208.84 24.8 209.524 21.872 209.524H17.048V220H13.772V194.908H21.872C24.704 194.908 26.852 195.592 28.316 196.96C29.804 198.328 30.548 200.092 30.548 202.252ZM21.872 206.824C23.696 206.824 25.04 206.428 25.904 205.636C26.768 204.844 27.2 203.716 27.2 202.252C27.2 199.156 25.424 197.608 21.872 197.608H17.048V206.824H21.872ZM52.6197 209.38C52.6197 210.004 52.5837 210.664 52.5117 211.36H36.7437C36.8637 213.304 37.5237 214.828 38.7237 215.932C39.9477 217.012 41.4237 217.552 43.1517 217.552C44.5677 217.552 45.7437 217.228 46.6797 216.58C47.6397 215.908 48.3117 215.02 48.6957 213.916H52.2237C51.6957 215.812 50.6397 217.36 49.0557 218.56C47.4717 219.736 45.5037 220.324 43.1517 220.324C41.2797 220.324 39.5997 219.904 38.1117 219.064C36.6477 218.224 35.4957 217.036 34.6557 215.5C33.8157 213.94 33.3957 212.14 33.3957 210.1C33.3957 208.06 33.8037 206.272 34.6197 204.736C35.4357 203.2 36.5757 202.024 38.0397 201.208C39.5277 200.368 41.2317 199.948 43.1517 199.948C45.0237 199.948 46.6797 200.356 48.1197 201.172C49.5597 201.988 50.6637 203.116 51.4317 204.556C52.2237 205.972 52.6197 207.58 52.6197 209.38ZM49.2357 208.696C49.2357 207.448 48.9597 206.38 48.4077 205.492C47.8557 204.58 47.0997 203.896 46.1397 203.44C45.2037 202.96 44.1597 202.72 43.0077 202.72C41.3517 202.72 39.9357 203.248 38.7597 204.304C37.6077 205.36 36.9477 206.824 36.7797 208.696H49.2357ZM60.2199 203.476C60.7959 202.348 61.6119 201.472 62.6679 200.848C63.7479 200.224 65.0559 199.912 66.5919 199.912V203.296H65.7279C62.0559 203.296 60.2199 205.288 60.2199 209.272V220H56.9439V200.272H60.2199V203.476ZM77.3576 220.324C75.8456 220.324 74.4896 220.072 73.2896 219.568C72.0896 219.04 71.1416 218.32 70.4456 217.408C69.7496 216.472 69.3656 215.404 69.2936 214.204H72.6776C72.7736 215.188 73.2296 215.992 74.0456 216.616C74.8856 217.24 75.9776 217.552 77.3216 217.552C78.5696 217.552 79.5536 217.276 80.2736 216.724C80.9936 216.172 81.3536 215.476 81.3536 214.636C81.3536 213.772 80.9696 213.136 80.2016 212.728C79.4336 212.296 78.2456 211.876 76.6376 211.468C75.1736 211.084 73.9736 210.7 73.0376 210.316C72.1256 209.908 71.3336 209.32 70.6616 208.552C70.0136 207.76 69.6896 206.728 69.6896 205.456C69.6896 204.448 69.9896 203.524 70.5896 202.684C71.1896 201.844 72.0416 201.184 73.1456 200.704C74.2496 200.2 75.5096 199.948 76.9256 199.948C79.1096 199.948 80.8736 200.5 82.2176 201.604C83.5616 202.708 84.2816 204.22 84.3776 206.14H81.1016C81.0296 205.108 80.6096 204.28 79.8416 203.656C79.0976 203.032 78.0896 202.72 76.8176 202.72C75.6416 202.72 74.7056 202.972 74.0096 203.476C73.3136 203.98 72.9656 204.64 72.9656 205.456C72.9656 206.104 73.1696 206.644 73.5776 207.076C74.0096 207.484 74.5376 207.82 75.1616 208.084C75.8096 208.324 76.6976 208.6 77.8256 208.912C79.2416 209.296 80.3936 209.68 81.2816 210.064C82.1696 210.424 82.9256 210.976 83.5496 211.72C84.1976 212.464 84.5336 213.436 84.5576 214.636C84.5576 215.716 84.2576 216.688 83.6576 217.552C83.0576 218.416 82.2056 219.1 81.1016 219.604C80.0216 220.084 78.7736 220.324 77.3576 220.324ZM97.7862 220.324C95.9382 220.324 94.2582 219.904 92.7462 219.064C91.2582 218.224 90.0822 217.036 89.2182 215.5C88.3782 213.94 87.9582 212.14 87.9582 210.1C87.9582 208.084 88.3902 206.308 89.2542 204.772C90.1422 203.212 91.3422 202.024 92.8542 201.208C94.3662 200.368 96.0582 199.948 97.9302 199.948C99.8022 199.948 101.494 200.368 103.006 201.208C104.518 202.024 105.706 203.2 106.57 204.736C107.458 206.272 107.902 208.06 107.902 210.1C107.902 212.14 107.446 213.94 106.534 215.5C105.646 217.036 104.434 218.224 102.898 219.064C101.362 219.904 99.6582 220.324 97.7862 220.324ZM97.7862 217.444C98.9622 217.444 100.066 217.168 101.098 216.616C102.13 216.064 102.958 215.236 103.582 214.132C104.23 213.028 104.554 211.684 104.554 210.1C104.554 208.516 104.242 207.172 103.618 206.068C102.994 204.964 102.178 204.148 101.17 203.62C100.162 203.068 99.0702 202.792 97.8942 202.792C96.6942 202.792 95.5902 203.068 94.5822 203.62C93.5982 204.148 92.8062 204.964 92.2062 206.068C91.6062 207.172 91.3062 208.516 91.3062 210.1C91.3062 211.708 91.5942 213.064 92.1702 214.168C92.7702 215.272 93.5622 216.1 94.5462 216.652C95.5302 217.18 96.6102 217.444 97.7862 217.444ZM121.822 199.912C124.222 199.912 126.166 200.644 127.654 202.108C129.142 203.548 129.886 205.636 129.886 208.372V220H126.646V208.84C126.646 206.872 126.154 205.372 125.17 204.34C124.186 203.284 122.842 202.756 121.138 202.756C119.41 202.756 118.03 203.296 116.998 204.376C115.99 205.456 115.486 207.028 115.486 209.092V220H112.21V200.272H115.486V203.08C116.134 202.072 117.01 201.292 118.114 200.74C119.242 200.188 120.478 199.912 121.822 199.912ZM134.013 210.064C134.013 208.048 134.421 206.284 135.237 204.772C136.053 203.236 137.169 202.048 138.585 201.208C140.025 200.368 141.621 199.948 143.373 199.948C145.101 199.948 146.601 200.32 147.873 201.064C149.145 201.808 150.093 202.744 150.717 203.872V200.272H154.029V220H150.717V216.328C150.069 217.48 149.097 218.44 147.801 219.208C146.529 219.952 145.041 220.324 143.337 220.324C141.585 220.324 140.001 219.892 138.585 219.028C137.169 218.164 136.053 216.952 135.237 215.392C134.421 213.832 134.013 212.056 134.013 210.064ZM150.717 210.1C150.717 208.612 150.417 207.316 149.817 206.212C149.217 205.108 148.401 204.268 147.369 203.692C146.361 203.092 145.245 202.792 144.021 202.792C142.797 202.792 141.681 203.08 140.673 203.656C139.665 204.232 138.861 205.072 138.261 206.176C137.661 207.28 137.361 208.576 137.361 210.064C137.361 211.576 137.661 212.896 138.261 214.024C138.861 215.128 139.665 215.98 140.673 216.58C141.681 217.156 142.797 217.444 144.021 217.444C145.245 217.444 146.361 217.156 147.369 216.58C148.401 215.98 149.217 215.128 149.817 214.024C150.417 212.896 150.717 211.588 150.717 210.1ZM162.841 193.36V220H159.565V193.36H162.841ZM170.116 197.068C169.492 197.068 168.964 196.852 168.532 196.42C168.1 195.988 167.884 195.46 167.884 194.836C167.884 194.212 168.1 193.684 168.532 193.252C168.964 192.82 169.492 192.604 170.116 192.604C170.716 192.604 171.22 192.82 171.628 193.252C172.06 193.684 172.276 194.212 172.276 194.836C172.276 195.46 172.06 195.988 171.628 196.42C171.22 196.852 170.716 197.068 170.116 197.068ZM171.7 200.272V220H168.424V200.272H171.7ZM181.28 202.972V214.6C181.28 215.56 181.484 216.244 181.892 216.652C182.3 217.036 183.008 217.228 184.016 217.228H186.428V220H183.476C181.652 220 180.284 219.58 179.372 218.74C178.46 217.9 178.004 216.52 178.004 214.6V202.972H175.448V200.272H178.004V195.304H181.28V200.272H186.428V202.972H181.28ZM207.389 200.272L195.509 229.288H192.125L196.013 219.784L188.057 200.272H191.693L197.885 216.256L204.005 200.272H207.389ZM33.896 278.752L28.892 273.748C27.668 274.084 26.42 274.252 25.148 274.252C22.82 274.252 20.696 273.712 18.776 272.632C16.856 271.528 15.332 270.004 14.204 268.06C13.1 266.092 12.548 263.884 12.548 261.436C12.548 258.988 13.1 256.792 14.204 254.848C15.332 252.88 16.856 251.356 18.776 250.276C20.696 249.172 22.82 248.62 25.148 248.62C27.5 248.62 29.636 249.172 31.556 250.276C33.476 251.356 34.988 252.868 36.092 254.812C37.196 256.756 37.748 258.964 37.748 261.436C37.748 263.836 37.22 265.996 36.164 267.916C35.108 269.836 33.656 271.348 31.808 272.452L38.144 278.752H33.896ZM15.896 261.436C15.896 263.428 16.292 265.18 17.084 266.692C17.9 268.204 19.004 269.368 20.396 270.184C21.812 271 23.396 271.408 25.148 271.408C26.9 271.408 28.472 271 29.864 270.184C31.28 269.368 32.384 268.204 33.176 266.692C33.992 265.18 34.4 263.428 34.4 261.436C34.4 259.42 33.992 257.668 33.176 256.18C32.384 254.668 31.292 253.504 29.9 252.688C28.508 251.872 26.924 251.464 25.148 251.464C23.372 251.464 21.788 251.872 20.396 252.688C19.004 253.504 17.9 254.668 17.084 256.18C16.292 257.668 15.896 259.42 15.896 261.436ZM59.6391 254.272V274H56.3631V271.084C55.7391 272.092 54.8631 272.884 53.7351 273.46C52.6311 274.012 51.4071 274.288 50.0631 274.288C48.5271 274.288 47.1471 273.976 45.9231 273.352C44.6991 272.704 43.7271 271.744 43.0071 270.472C42.3111 269.2 41.9631 267.652 41.9631 265.828V254.272H45.2031V265.396C45.2031 267.34 45.6951 268.84 46.6791 269.896C47.6631 270.928 49.0071 271.444 50.7111 271.444C52.4631 271.444 53.8431 270.904 54.8511 269.824C55.8591 268.744 56.3631 267.172 56.3631 265.108V254.272H59.6391ZM66.8624 251.068C66.2384 251.068 65.7104 250.852 65.2784 250.42C64.8464 249.988 64.6304 249.46 64.6304 248.836C64.6304 248.212 64.8464 247.684 65.2784 247.252C65.7104 246.82 66.2384 246.604 66.8624 246.604C67.4624 246.604 67.9664 246.82 68.3744 247.252C68.8064 247.684 69.0224 248.212 69.0224 248.836C69.0224 249.46 68.8064 249.988 68.3744 250.42C67.9664 250.852 67.4624 251.068 66.8624 251.068ZM68.4464 254.272V274H65.1704V254.272H68.4464ZM76.4778 271.3H86.1618V274H72.7338V271.3L82.3098 256.936H72.8058V254.272H86.0898V256.936L76.4778 271.3Z" fill="white"/>
</svg>
