<svg width="306" height="302" viewBox="0 0 306 302" fill="none" xmlns="http://www.w3.org/2000/svg">
<rect width="306" height="302" rx="40" fill="#78E185"/>
<path d="M35.34 194.908L27.168 210.532V220H23.892V210.532L15.684 194.908H19.32L25.512 207.616L31.704 194.908H35.34ZM47.3994 220.324C45.5514 220.324 43.8714 219.904 42.3594 219.064C40.8714 218.224 39.6954 217.036 38.8314 215.5C37.9914 213.94 37.5714 212.14 37.5714 210.1C37.5714 208.084 38.0034 206.308 38.8674 204.772C39.7554 203.212 40.9554 202.024 42.4674 201.208C43.9794 200.368 45.6714 199.948 47.5434 199.948C49.4154 199.948 51.1074 200.368 52.6194 201.208C54.1314 202.024 55.3194 203.2 56.1834 204.736C57.0714 206.272 57.5154 208.06 57.5154 210.1C57.5154 212.14 57.0594 213.94 56.1474 215.5C55.2594 217.036 54.0474 218.224 52.5114 219.064C50.9754 219.904 49.2714 220.324 47.3994 220.324ZM47.3994 217.444C48.5754 217.444 49.6794 217.168 50.7114 216.616C51.7434 216.064 52.5714 215.236 53.1954 214.132C53.8434 213.028 54.1674 211.684 54.1674 210.1C54.1674 208.516 53.8554 207.172 53.2314 206.068C52.6074 204.964 51.7914 204.148 50.7834 203.62C49.7754 203.068 48.6834 202.792 47.5074 202.792C46.3074 202.792 45.2034 203.068 44.1954 203.62C43.2114 204.148 42.4194 204.964 41.8194 206.068C41.2194 207.172 40.9194 208.516 40.9194 210.1C40.9194 211.708 41.2074 213.064 41.7834 214.168C42.3834 215.272 43.1754 216.1 44.1594 216.652C45.1434 217.18 46.2234 217.444 47.3994 217.444ZM79.3188 200.272V220H76.0428V217.084C75.4188 218.092 74.5428 218.884 73.4148 219.46C72.3108 220.012 71.0868 220.288 69.7428 220.288C68.2068 220.288 66.8268 219.976 65.6028 219.352C64.3788 218.704 63.4068 217.744 62.6868 216.472C61.9908 215.2 61.6428 213.652 61.6428 211.828V200.272H64.8828V211.396C64.8828 213.34 65.3748 214.84 66.3588 215.896C67.3428 216.928 68.6868 217.444 70.3908 217.444C72.1428 217.444 73.5228 216.904 74.5308 215.824C75.5388 214.744 76.0428 213.172 76.0428 211.108V200.272H79.3188ZM88.1261 203.476C88.7021 202.348 89.5181 201.472 90.5741 200.848C91.6541 200.224 92.9621 199.912 94.4981 199.912V203.296H93.6341C89.9621 203.296 88.1261 205.288 88.1261 209.272V220H84.8501V200.272H88.1261V203.476ZM120.441 207.076C121.353 207.22 122.181 207.592 122.925 208.192C123.693 208.792 124.293 209.536 124.725 210.424C125.181 211.312 125.409 212.26 125.409 213.268C125.409 214.54 125.085 215.692 124.437 216.724C123.789 217.732 122.841 218.536 121.593 219.136C120.369 219.712 118.917 220 117.237 220H107.877V194.908H116.877C118.581 194.908 120.033 195.196 121.233 195.772C122.433 196.324 123.333 197.08 123.933 198.04C124.533 199 124.833 200.08 124.833 201.28C124.833 202.768 124.425 204.004 123.609 204.988C122.817 205.948 121.761 206.644 120.441 207.076ZM111.153 205.744H116.661C118.197 205.744 119.385 205.384 120.225 204.664C121.065 203.944 121.485 202.948 121.485 201.676C121.485 200.404 121.065 199.408 120.225 198.688C119.385 197.968 118.173 197.608 116.589 197.608H111.153V205.744ZM116.949 217.3C118.581 217.3 119.853 216.916 120.765 216.148C121.677 215.38 122.133 214.312 122.133 212.944C122.133 211.552 121.653 210.46 120.693 209.668C119.733 208.852 118.449 208.444 116.841 208.444H111.153V217.3H116.949ZM128.732 210.064C128.732 208.048 129.14 206.284 129.956 204.772C130.772 203.236 131.888 202.048 133.304 201.208C134.744 200.368 136.34 199.948 138.092 199.948C139.82 199.948 141.32 200.32 142.592 201.064C143.864 201.808 144.812 202.744 145.436 203.872V200.272H148.748V220H145.436V216.328C144.788 217.48 143.816 218.44 142.52 219.208C141.248 219.952 139.76 220.324 138.056 220.324C136.304 220.324 134.72 219.892 133.304 219.028C131.888 218.164 130.772 216.952 129.956 215.392C129.14 213.832 128.732 212.056 128.732 210.064ZM145.436 210.1C145.436 208.612 145.136 207.316 144.536 206.212C143.936 205.108 143.12 204.268 142.088 203.692C141.08 203.092 139.964 202.792 138.74 202.792C137.516 202.792 136.4 203.08 135.392 203.656C134.384 204.232 133.58 205.072 132.98 206.176C132.38 207.28 132.08 208.576 132.08 210.064C132.08 211.576 132.38 212.896 132.98 214.024C133.58 215.128 134.384 215.98 135.392 216.58C136.4 217.156 137.516 217.444 138.74 217.444C139.964 217.444 141.08 217.156 142.088 216.58C143.12 215.98 143.936 215.128 144.536 214.024C145.136 212.896 145.436 211.588 145.436 210.1ZM161.268 220.324C159.756 220.324 158.4 220.072 157.2 219.568C156 219.04 155.052 218.32 154.356 217.408C153.66 216.472 153.276 215.404 153.204 214.204H156.588C156.684 215.188 157.14 215.992 157.956 216.616C158.796 217.24 159.888 217.552 161.232 217.552C162.48 217.552 163.464 217.276 164.184 216.724C164.904 216.172 165.264 215.476 165.264 214.636C165.264 213.772 164.88 213.136 164.112 212.728C163.344 212.296 162.156 211.876 160.548 211.468C159.084 211.084 157.884 210.7 156.948 210.316C156.036 209.908 155.244 209.32 154.572 208.552C153.924 207.76 153.6 206.728 153.6 205.456C153.6 204.448 153.9 203.524 154.5 202.684C155.1 201.844 155.952 201.184 157.056 200.704C158.16 200.2 159.42 199.948 160.836 199.948C163.02 199.948 164.784 200.5 166.128 201.604C167.472 202.708 168.192 204.22 168.288 206.14H165.012C164.94 205.108 164.52 204.28 163.752 203.656C163.008 203.032 162 202.72 160.728 202.72C159.552 202.72 158.616 202.972 157.92 203.476C157.224 203.98 156.876 204.64 156.876 205.456C156.876 206.104 157.08 206.644 157.488 207.076C157.92 207.484 158.448 207.82 159.072 208.084C159.72 208.324 160.608 208.6 161.736 208.912C163.152 209.296 164.304 209.68 165.192 210.064C166.08 210.424 166.836 210.976 167.46 211.72C168.108 212.464 168.444 213.436 168.468 214.636C168.468 215.716 168.168 216.688 167.568 217.552C166.968 218.416 166.116 219.1 165.012 219.604C163.932 220.084 162.684 220.324 161.268 220.324ZM174.784 197.068C174.16 197.068 173.632 196.852 173.2 196.42C172.768 195.988 172.552 195.46 172.552 194.836C172.552 194.212 172.768 193.684 173.2 193.252C173.632 192.82 174.16 192.604 174.784 192.604C175.384 192.604 175.888 192.82 176.296 193.252C176.728 193.684 176.944 194.212 176.944 194.836C176.944 195.46 176.728 195.988 176.296 196.42C175.888 196.852 175.384 197.068 174.784 197.068ZM176.368 200.272V220H173.092V200.272H176.368ZM180.728 210.1C180.728 208.06 181.136 206.284 181.952 204.772C182.768 203.236 183.896 202.048 185.336 201.208C186.8 200.368 188.468 199.948 190.34 199.948C192.764 199.948 194.756 200.536 196.316 201.712C197.9 202.888 198.944 204.52 199.448 206.608H195.92C195.584 205.408 194.924 204.46 193.94 203.764C192.98 203.068 191.78 202.72 190.34 202.72C188.468 202.72 186.956 203.368 185.804 204.664C184.652 205.936 184.076 207.748 184.076 210.1C184.076 212.476 184.652 214.312 185.804 215.608C186.956 216.904 188.468 217.552 190.34 217.552C191.78 217.552 192.98 217.216 193.94 216.544C194.9 215.872 195.56 214.912 195.92 213.664H199.448C198.92 215.68 197.864 217.3 196.28 218.524C194.696 219.724 192.716 220.324 190.34 220.324C188.468 220.324 186.8 219.904 185.336 219.064C183.896 218.224 182.768 217.036 181.952 215.5C181.136 213.964 180.728 212.164 180.728 210.1ZM34.548 256.252C34.548 258.34 33.828 260.08 32.388 261.472C30.972 262.84 28.8 263.524 25.872 263.524H21.048V274H17.772V248.908H25.872C28.704 248.908 30.852 249.592 32.316 250.96C33.804 252.328 34.548 254.092 34.548 256.252ZM25.872 260.824C27.696 260.824 29.04 260.428 29.904 259.636C30.768 258.844 31.2 257.716 31.2 256.252C31.2 253.156 29.424 251.608 25.872 251.608H21.048V260.824H25.872ZM56.6197 263.38C56.6197 264.004 56.5837 264.664 56.5117 265.36H40.7437C40.8637 267.304 41.5237 268.828 42.7237 269.932C43.9477 271.012 45.4237 271.552 47.1517 271.552C48.5677 271.552 49.7437 271.228 50.6797 270.58C51.6397 269.908 52.3117 269.02 52.6957 267.916H56.2237C55.6957 269.812 54.6397 271.36 53.0557 272.56C51.4717 273.736 49.5037 274.324 47.1517 274.324C45.2797 274.324 43.5997 273.904 42.1117 273.064C40.6477 272.224 39.4957 271.036 38.6557 269.5C37.8157 267.94 37.3957 266.14 37.3957 264.1C37.3957 262.06 37.8037 260.272 38.6197 258.736C39.4357 257.2 40.5757 256.024 42.0397 255.208C43.5277 254.368 45.2317 253.948 47.1517 253.948C49.0237 253.948 50.6797 254.356 52.1197 255.172C53.5597 255.988 54.6637 257.116 55.4317 258.556C56.2237 259.972 56.6197 261.58 56.6197 263.38ZM53.2357 262.696C53.2357 261.448 52.9597 260.38 52.4077 259.492C51.8557 258.58 51.0997 257.896 50.1397 257.44C49.2037 256.96 48.1597 256.72 47.0077 256.72C45.3517 256.72 43.9357 257.248 42.7597 258.304C41.6077 259.36 40.9477 260.824 40.7797 262.696H53.2357ZM64.2199 257.476C64.7959 256.348 65.6119 255.472 66.6679 254.848C67.7479 254.224 69.0559 253.912 70.5919 253.912V257.296H69.7279C66.0559 257.296 64.2199 259.288 64.2199 263.272V274H60.9439V254.272H64.2199V257.476ZM81.3576 274.324C79.8456 274.324 78.4896 274.072 77.2896 273.568C76.0896 273.04 75.1416 272.32 74.4456 271.408C73.7496 270.472 73.3656 269.404 73.2936 268.204H76.6776C76.7736 269.188 77.2296 269.992 78.0456 270.616C78.8856 271.24 79.9776 271.552 81.3216 271.552C82.5696 271.552 83.5536 271.276 84.2736 270.724C84.9936 270.172 85.3536 269.476 85.3536 268.636C85.3536 267.772 84.9696 267.136 84.2016 266.728C83.4336 266.296 82.2456 265.876 80.6376 265.468C79.1736 265.084 77.9736 264.7 77.0376 264.316C76.1256 263.908 75.3336 263.32 74.6616 262.552C74.0136 261.76 73.6896 260.728 73.6896 259.456C73.6896 258.448 73.9896 257.524 74.5896 256.684C75.1896 255.844 76.0416 255.184 77.1456 254.704C78.2496 254.2 79.5096 253.948 80.9256 253.948C83.1096 253.948 84.8736 254.5 86.2176 255.604C87.5616 256.708 88.2816 258.22 88.3776 260.14H85.1016C85.0296 259.108 84.6096 258.28 83.8416 257.656C83.0976 257.032 82.0896 256.72 80.8176 256.72C79.6416 256.72 78.7056 256.972 78.0096 257.476C77.3136 257.98 76.9656 258.64 76.9656 259.456C76.9656 260.104 77.1696 260.644 77.5776 261.076C78.0096 261.484 78.5376 261.82 79.1616 262.084C79.8096 262.324 80.6976 262.6 81.8256 262.912C83.2416 263.296 84.3936 263.68 85.2816 264.064C86.1696 264.424 86.9256 264.976 87.5496 265.72C88.1976 266.464 88.5336 267.436 88.5576 268.636C88.5576 269.716 88.2576 270.688 87.6576 271.552C87.0576 272.416 86.2056 273.1 85.1016 273.604C84.0216 274.084 82.7736 274.324 81.3576 274.324ZM101.786 274.324C99.9382 274.324 98.2582 273.904 96.7462 273.064C95.2582 272.224 94.0822 271.036 93.2182 269.5C92.3782 267.94 91.9582 266.14 91.9582 264.1C91.9582 262.084 92.3902 260.308 93.2542 258.772C94.1422 257.212 95.3422 256.024 96.8542 255.208C98.3662 254.368 100.058 253.948 101.93 253.948C103.802 253.948 105.494 254.368 107.006 255.208C108.518 256.024 109.706 257.2 110.57 258.736C111.458 260.272 111.902 262.06 111.902 264.1C111.902 266.14 111.446 267.94 110.534 269.5C109.646 271.036 108.434 272.224 106.898 273.064C105.362 273.904 103.658 274.324 101.786 274.324ZM101.786 271.444C102.962 271.444 104.066 271.168 105.098 270.616C106.13 270.064 106.958 269.236 107.582 268.132C108.23 267.028 108.554 265.684 108.554 264.1C108.554 262.516 108.242 261.172 107.618 260.068C106.994 258.964 106.178 258.148 105.17 257.62C104.162 257.068 103.07 256.792 101.894 256.792C100.694 256.792 99.5902 257.068 98.5822 257.62C97.5982 258.148 96.8062 258.964 96.2062 260.068C95.6062 261.172 95.3062 262.516 95.3062 264.1C95.3062 265.708 95.5942 267.064 96.1702 268.168C96.7702 269.272 97.5622 270.1 98.5462 270.652C99.5302 271.18 100.61 271.444 101.786 271.444ZM125.822 253.912C128.222 253.912 130.166 254.644 131.654 256.108C133.142 257.548 133.886 259.636 133.886 262.372V274H130.646V262.84C130.646 260.872 130.154 259.372 129.17 258.34C128.186 257.284 126.842 256.756 125.138 256.756C123.41 256.756 122.03 257.296 120.998 258.376C119.99 259.456 119.486 261.028 119.486 263.092V274H116.21V254.272H119.486V257.08C120.134 256.072 121.01 255.292 122.114 254.74C123.242 254.188 124.478 253.912 125.822 253.912ZM138.013 264.064C138.013 262.048 138.421 260.284 139.237 258.772C140.053 257.236 141.169 256.048 142.585 255.208C144.025 254.368 145.621 253.948 147.373 253.948C149.101 253.948 150.601 254.32 151.873 255.064C153.145 255.808 154.093 256.744 154.717 257.872V254.272H158.029V274H154.717V270.328C154.069 271.48 153.097 272.44 151.801 273.208C150.529 273.952 149.041 274.324 147.337 274.324C145.585 274.324 144.001 273.892 142.585 273.028C141.169 272.164 140.053 270.952 139.237 269.392C138.421 267.832 138.013 266.056 138.013 264.064ZM154.717 264.1C154.717 262.612 154.417 261.316 153.817 260.212C153.217 259.108 152.401 258.268 151.369 257.692C150.361 257.092 149.245 256.792 148.021 256.792C146.797 256.792 145.681 257.08 144.673 257.656C143.665 258.232 142.861 259.072 142.261 260.176C141.661 261.28 141.361 262.576 141.361 264.064C141.361 265.576 141.661 266.896 142.261 268.024C142.861 269.128 143.665 269.98 144.673 270.58C145.681 271.156 146.797 271.444 148.021 271.444C149.245 271.444 150.361 271.156 151.369 270.58C152.401 269.98 153.217 269.128 153.817 268.024C154.417 266.896 154.717 265.588 154.717 264.1ZM166.841 247.36V274H163.565V247.36H166.841ZM174.116 251.068C173.492 251.068 172.964 250.852 172.532 250.42C172.1 249.988 171.884 249.46 171.884 248.836C171.884 248.212 172.1 247.684 172.532 247.252C172.964 246.82 173.492 246.604 174.116 246.604C174.716 246.604 175.22 246.82 175.628 247.252C176.06 247.684 176.276 248.212 176.276 248.836C176.276 249.46 176.06 249.988 175.628 250.42C175.22 250.852 174.716 251.068 174.116 251.068ZM175.7 254.272V274H172.424V254.272H175.7ZM185.28 256.972V268.6C185.28 269.56 185.484 270.244 185.892 270.652C186.3 271.036 187.008 271.228 188.016 271.228H190.428V274H187.476C185.652 274 184.284 273.58 183.372 272.74C182.46 271.9 182.004 270.52 182.004 268.6V256.972H179.448V254.272H182.004V249.304H185.28V254.272H190.428V256.972H185.28ZM211.389 254.272L199.509 283.288H196.125L200.013 273.784L192.057 254.272H195.693L201.885 270.256L208.005 254.272H211.389Z" fill="#231F20"/>
</svg>
