<svg width="306" height="302" viewBox="0 0 306 302" fill="none" xmlns="http://www.w3.org/2000/svg">
<rect width="306" height="302" rx="40" fill="#37C1FF"/>
<path d="M18.548 207.436C18.548 204.988 19.1 202.792 20.204 200.848C21.308 198.88 22.808 197.344 24.704 196.24C26.624 195.136 28.748 194.584 31.076 194.584C33.812 194.584 36.2 195.244 38.24 196.564C40.28 197.884 41.768 199.756 42.704 202.18H38.78C38.084 200.668 37.076 199.504 35.756 198.688C34.46 197.872 32.9 197.464 31.076 197.464C29.324 197.464 27.752 197.872 26.36 198.688C24.968 199.504 23.876 200.668 23.084 202.18C22.292 203.668 21.896 205.42 21.896 207.436C21.896 209.428 22.292 211.18 23.084 212.692C23.876 214.18 24.968 215.332 26.36 216.148C27.752 216.964 29.324 217.372 31.076 217.372C32.9 217.372 34.46 216.976 35.756 216.184C37.076 215.368 38.084 214.204 38.78 212.692H42.704C41.768 215.092 40.28 216.952 38.24 218.272C36.2 219.568 33.812 220.216 31.076 220.216C28.748 220.216 26.624 219.676 24.704 218.596C22.808 217.492 21.308 215.968 20.204 214.024C19.1 212.08 18.548 209.884 18.548 207.436ZM46.3566 210.064C46.3566 208.048 46.7646 206.284 47.5806 204.772C48.3966 203.236 49.5126 202.048 50.9286 201.208C52.3686 200.368 53.9646 199.948 55.7166 199.948C57.4446 199.948 58.9446 200.32 60.2166 201.064C61.4886 201.808 62.4366 202.744 63.0606 203.872V200.272H66.3726V220H63.0606V216.328C62.4126 217.48 61.4406 218.44 60.1446 219.208C58.8726 219.952 57.3846 220.324 55.6806 220.324C53.9286 220.324 52.3446 219.892 50.9286 219.028C49.5126 218.164 48.3966 216.952 47.5806 215.392C46.7646 213.832 46.3566 212.056 46.3566 210.064ZM63.0606 210.1C63.0606 208.612 62.7606 207.316 62.1606 206.212C61.5606 205.108 60.7446 204.268 59.7126 203.692C58.7046 203.092 57.5886 202.792 56.3646 202.792C55.1406 202.792 54.0246 203.08 53.0166 203.656C52.0086 204.232 51.2046 205.072 50.6046 206.176C50.0046 207.28 49.7046 208.576 49.7046 210.064C49.7046 211.576 50.0046 212.896 50.6046 214.024C51.2046 215.128 52.0086 215.98 53.0166 216.58C54.0246 217.156 55.1406 217.444 56.3646 217.444C57.5886 217.444 58.7046 217.156 59.7126 216.58C60.7446 215.98 61.5606 215.128 62.1606 214.024C62.7606 212.896 63.0606 211.588 63.0606 210.1ZM75.1847 203.476C75.7607 202.348 76.5767 201.472 77.6327 200.848C78.7127 200.224 80.0207 199.912 81.5567 199.912V203.296H80.6927C77.0207 203.296 75.1847 205.288 75.1847 209.272V220H71.9087V200.272H75.1847V203.476ZM103.338 209.38C103.338 210.004 103.302 210.664 103.23 211.36H87.4624C87.5824 213.304 88.2424 214.828 89.4424 215.932C90.6664 217.012 92.1424 217.552 93.8704 217.552C95.2864 217.552 96.4624 217.228 97.3984 216.58C98.3584 215.908 99.0304 215.02 99.4144 213.916H102.942C102.414 215.812 101.358 217.36 99.7744 218.56C98.1904 219.736 96.2224 220.324 93.8704 220.324C91.9984 220.324 90.3184 219.904 88.8304 219.064C87.3664 218.224 86.2144 217.036 85.3744 215.5C84.5344 213.94 84.1144 212.14 84.1144 210.1C84.1144 208.06 84.5224 206.272 85.3384 204.736C86.1544 203.2 87.2944 202.024 88.7584 201.208C90.2464 200.368 91.9504 199.948 93.8704 199.948C95.7424 199.948 97.3984 200.356 98.8384 201.172C100.278 201.988 101.382 203.116 102.15 204.556C102.942 205.972 103.338 207.58 103.338 209.38ZM99.9544 208.696C99.9544 207.448 99.6784 206.38 99.1264 205.492C98.5744 204.58 97.8184 203.896 96.8584 203.44C95.9224 202.96 94.8784 202.72 93.7264 202.72C92.0704 202.72 90.6544 203.248 89.4784 204.304C88.3264 205.36 87.6664 206.824 87.4984 208.696H99.9544ZM125.663 209.38C125.663 210.004 125.627 210.664 125.555 211.36H109.787C109.907 213.304 110.567 214.828 111.767 215.932C112.991 217.012 114.467 217.552 116.195 217.552C117.611 217.552 118.787 217.228 119.723 216.58C120.683 215.908 121.355 215.02 121.739 213.916H125.267C124.739 215.812 123.683 217.36 122.099 218.56C120.515 219.736 118.547 220.324 116.195 220.324C114.323 220.324 112.643 219.904 111.155 219.064C109.691 218.224 108.539 217.036 107.699 215.5C106.859 213.94 106.439 212.14 106.439 210.1C106.439 208.06 106.847 206.272 107.663 204.736C108.479 203.2 109.619 202.024 111.083 201.208C112.571 200.368 114.275 199.948 116.195 199.948C118.067 199.948 119.723 200.356 121.163 201.172C122.603 201.988 123.707 203.116 124.475 204.556C125.267 205.972 125.663 207.58 125.663 209.38ZM122.279 208.696C122.279 207.448 122.003 206.38 121.451 205.492C120.899 204.58 120.143 203.896 119.183 203.44C118.247 202.96 117.203 202.72 116.051 202.72C114.395 202.72 112.979 203.248 111.803 204.304C110.651 205.36 109.991 206.824 109.823 208.696H122.279ZM133.263 203.476C133.839 202.348 134.655 201.472 135.711 200.848C136.791 200.224 138.099 199.912 139.635 199.912V203.296H138.771C135.099 203.296 133.263 205.288 133.263 209.272V220H129.987V200.272H133.263V203.476ZM39.896 278.752L34.892 273.748C33.668 274.084 32.42 274.252 31.148 274.252C28.82 274.252 26.696 273.712 24.776 272.632C22.856 271.528 21.332 270.004 20.204 268.06C19.1 266.092 18.548 263.884 18.548 261.436C18.548 258.988 19.1 256.792 20.204 254.848C21.332 252.88 22.856 251.356 24.776 250.276C26.696 249.172 28.82 248.62 31.148 248.62C33.5 248.62 35.636 249.172 37.556 250.276C39.476 251.356 40.988 252.868 42.092 254.812C43.196 256.756 43.748 258.964 43.748 261.436C43.748 263.836 43.22 265.996 42.164 267.916C41.108 269.836 39.656 271.348 37.808 272.452L44.144 278.752H39.896ZM21.896 261.436C21.896 263.428 22.292 265.18 23.084 266.692C23.9 268.204 25.004 269.368 26.396 270.184C27.812 271 29.396 271.408 31.148 271.408C32.9 271.408 34.472 271 35.864 270.184C37.28 269.368 38.384 268.204 39.176 266.692C39.992 265.18 40.4 263.428 40.4 261.436C40.4 259.42 39.992 257.668 39.176 256.18C38.384 254.668 37.292 253.504 35.9 252.688C34.508 251.872 32.924 251.464 31.148 251.464C29.372 251.464 27.788 251.872 26.396 252.688C25.004 253.504 23.9 254.668 23.084 256.18C22.292 257.668 21.896 259.42 21.896 261.436ZM65.6391 254.272V274H62.3631V271.084C61.7391 272.092 60.8631 272.884 59.7351 273.46C58.6311 274.012 57.4071 274.288 56.0631 274.288C54.5271 274.288 53.1471 273.976 51.9231 273.352C50.6991 272.704 49.7271 271.744 49.0071 270.472C48.3111 269.2 47.9631 267.652 47.9631 265.828V254.272H51.2031V265.396C51.2031 267.34 51.6951 268.84 52.6791 269.896C53.6631 270.928 55.0071 271.444 56.7111 271.444C58.4631 271.444 59.8431 270.904 60.8511 269.824C61.8591 268.744 62.3631 267.172 62.3631 265.108V254.272H65.6391ZM72.8624 251.068C72.2384 251.068 71.7104 250.852 71.2784 250.42C70.8464 249.988 70.6304 249.46 70.6304 248.836C70.6304 248.212 70.8464 247.684 71.2784 247.252C71.7104 246.82 72.2384 246.604 72.8624 246.604C73.4624 246.604 73.9664 246.82 74.3744 247.252C74.8064 247.684 75.0224 248.212 75.0224 248.836C75.0224 249.46 74.8064 249.988 74.3744 250.42C73.9664 250.852 73.4624 251.068 72.8624 251.068ZM74.4464 254.272V274H71.1704V254.272H74.4464ZM82.4778 271.3H92.1618V274H78.7338V271.3L88.3098 256.936H78.8058V254.272H92.0898V256.936L82.4778 271.3Z" fill="black"/>
</svg>
